0
SECTION
2
HEADER
9
$ACADVER
1
AC1009
9
$INSUNITS
70
4
0
ENDSEC
0
SECTION
2
ENTITIES
999
CNB Electrical Lab | R4.2 KTP700 mapping review | A
0
LINE
8
ENCLOSURE
10
0
20
0
30
0
11
600
21
0
31
0
0
LINE
8
ENCLOSURE
10
600
20
0
30
0
11
600
21
500
31
0
0
LINE
8
ENCLOSURE
10
600
20
500
30
0
11
0
21
500
31
0
0
LINE
8
ENCLOSURE
10
0
20
500
30
0
11
0
21
0
31
0
0
LINE
8
MOUNTING_PLATE
10
20
20
20
30
0
11
580
21
20
31
0
0
LINE
8
MOUNTING_PLATE
10
580
20
20
30
0
11
580
21
480
31
0
0
LINE
8
MOUNTING_PLATE
10
580
20
480
30
0
11
20
21
480
31
0
0
LINE
8
MOUNTING_PLATE
10
20
20
480
30
0
11
20
21
20
31
0
0
TEXT
8
TEXT
10
20
20
475
30
0
40
12
1
Control cabinet door
0
LINE
8
CAD_GEOMETRY
10
193
20
171
30
0
11
269
21
171
31
0
0
LINE
8
CAD_GEOMETRY
10
269
20
171
30
0
11
269
21
391
31
0
0
LINE
8
CAD_GEOMETRY
10
269
20
391
30
0
11
193
21
391
31
0
0
LINE
8
CAD_GEOMETRY
10
193
20
391
30
0
11
193
21
171
31
0
0
LINE
8
CAD_GEOMETRY
10
197
20
175
30
0
11
265
21
175
31
0
0
LINE
8
CAD_GEOMETRY
10
265
20
175
30
0
11
265
21
387
31
0
0
LINE
8
CAD_GEOMETRY
10
265
20
387
30
0
11
197
21
387
31
0
0
LINE
8
CAD_GEOMETRY
10
197
20
387
30
0
11
197
21
175
31
0
0
CIRCLE
8
CAD_GEOMETRY
10
253
20
367
30
0
40
1
0
LINE
8
CAD_GEOMETRY
10
254.5
20
367
30
0
11
254
21
367
31
0
0
LINE
8
CAD_GEOMETRY
10
254.5
20
366.5
30
0
11
256
21
366.5
31
0
0
LINE
8
CAD_GEOMETRY
10
256
20
366.5
30
0
11
256
21
367.5
31
0
0
LINE
8
CAD_GEOMETRY
10
256
20
367.5
30
0
11
254.5
21
367.5
31
0
0
LINE
8
CAD_GEOMETRY
10
254.5
20
367.5
30
0
11
254.5
21
366.5
31
0
0
ARC
8
CAD_GEOMETRY
10
256
20
367
30
0
40
1
50
-90
51
90
0
CIRCLE
8
CAD_GEOMETRY
10
253
20
359
30
0
40
1
0
LINE
8
CAD_GEOMETRY
10
254.5
20
359
30
0
11
254
21
359
31
0
0
LINE
8
CAD_GEOMETRY
10
254.5
20
358.5
30
0
11
256
21
358.5
31
0
0
LINE
8
CAD_GEOMETRY
10
256
20
358.5
30
0
11
256
21
359.5
31
0
0
LINE
8
CAD_GEOMETRY
10
256
20
359.5
30
0
11
254.5
21
359.5
31
0
0
LINE
8
CAD_GEOMETRY
10
254.5
20
359.5
30
0
11
254.5
21
358.5
31
0
0
ARC
8
CAD_GEOMETRY
10
256
20
359
30
0
40
1
50
-90
51
90
0
CIRCLE
8
CAD_GEOMETRY
10
253
20
334
30
0
40
1
0
LINE
8
CAD_GEOMETRY
10
254.5
20
334
30
0
11
254
21
334
31
0
0
LINE
8
CAD_GEOMETRY
10
254.5
20
333.5
30
0
11
256
21
333.5
31
0
0
LINE
8
CAD_GEOMETRY
10
256
20
333.5
30
0
11
256
21
334.5
31
0
0
LINE
8
CAD_GEOMETRY
10
256
20
334.5
30
0
11
254.5
21
334.5
31
0
0
LINE
8
CAD_GEOMETRY
10
254.5
20
334.5
30
0
11
254.5
21
333.5
31
0
0
ARC
8
CAD_GEOMETRY
10
256
20
334
30
0
40
1
50
-90
51
90
0
CIRCLE
8
CAD_GEOMETRY
10
253
20
347
30
0
40
1
0
LINE
8
CAD_GEOMETRY
10
254.5
20
347
30
0
11
254
21
347
31
0
0
LINE
8
CAD_GEOMETRY
10
254.5
20
346.5
30
0
11
256
21
346.5
31
0
0
LINE
8
CAD_GEOMETRY
10
256
20
346.5
30
0
11
256
21
347.5
31
0
0
LINE
8
CAD_GEOMETRY
10
256
20
347.5
30
0
11
254.5
21
347.5
31
0
0
LINE
8
CAD_GEOMETRY
10
254.5
20
347.5
30
0
11
254.5
21
346.5
31
0
0
ARC
8
CAD_GEOMETRY
10
256
20
347
30
0
40
1
50
-90
51
90
0
LINE
8
CAD_GEOMETRY
10
257
20
319
30
0
11
254
21
319
31
0
0
CIRCLE
8
CAD_GEOMETRY
10
253
20
319
30
0
40
1
0
LINE
8
COMPONENT
10
193
20
171
30
0
11
407
21
171
31
0
0
LINE
8
COMPONENT
10
407
20
171
30
0
11
407
21
329
31
0
0
LINE
8
COMPONENT
10
407
20
329
30
0
11
193
21
329
31
0
0
LINE
8
COMPONENT
10
193
20
329
30
0
11
193
21
171
31
0
0
LINE
8
COMPONENT_OUTLINE
10
193
20
171
30
0
11
407
21
171
31
0
0
LINE
8
COMPONENT_OUTLINE
10
407
20
171
30
0
11
407
21
329
31
0
0
LINE
8
COMPONENT_OUTLINE
10
407
20
329
30
0
11
193
21
329
31
0
0
LINE
8
COMPONENT_OUTLINE
10
193
20
329
30
0
11
193
21
171
31
0
0
LINE
8
COMPONENT_DETAIL
10
296
20
250
30
0
11
304
21
250
31
0
0
TEXT
8
TAG
10
196
20
250
30
0
40
12
1
-G1
0
TEXT
8
TEXT
10
196
20
181
30
0
40
4
1
KTP700 Basic color DP
0
CIRCLE
8
TERMINAL
10
264.3333
20
171
30
0
40
1.5
0
CIRCLE
8
TERMINAL
10
335.6667
20
171
30
0
40
1.5
0
ENDSEC
0
EOF
