0
SECTION
2
HEADER
9
$INSUNITS
70
4
0
ENDSEC
0
SECTION
2
ENTITIES
0
LINE
8
ENCLOSURE
10
0
20
0
30
0
11
800
21
0
31
0
0
LINE
8
ENCLOSURE
10
800
20
0
30
0
11
800
21
1200
31
0
0
LINE
8
ENCLOSURE
10
800
20
1200
30
0
11
0
21
1200
31
0
0
LINE
8
ENCLOSURE
10
0
20
1200
30
0
11
0
21
0
31
0
0
LINE
8
MOUNTING_PLATE
10
50
20
50
30
0
11
750
21
50
31
0
0
LINE
8
MOUNTING_PLATE
10
750
20
50
30
0
11
750
21
1150
31
0
0
LINE
8
MOUNTING_PLATE
10
750
20
1150
30
0
11
50
21
1150
31
0
0
LINE
8
MOUNTING_PLATE
10
50
20
1150
30
0
11
50
21
50
31
0
0
TEXT
8
ANNOTATION
10
50
20
1165
30
0
40
10
1
R3 Phoenix Contact control cabinet [mm]
0
LINE
8
DIN_RAIL
10
140
20
300
30
0
11
660
21
300
31
0
0
LINE
8
DIN_RAIL
10
140
20
90
30
0
11
660
21
90
31
0
0
LINE
8
WIRE_DUCT
10
705
20
50
30
0
11
750
21
50
31
0
0
LINE
8
WIRE_DUCT
10
750
20
50
30
0
11
750
21
1150
31
0
0
LINE
8
WIRE_DUCT
10
750
20
1150
30
0
11
705
21
1150
31
0
0
LINE
8
WIRE_DUCT
10
705
20
1150
30
0
11
705
21
50
31
0
0
LINE
8
WIRE_DUCT
10
50
20
275
30
0
11
750
21
275
31
0
0
LINE
8
WIRE_DUCT
10
750
20
275
30
0
11
750
21
315
31
0
0
LINE
8
WIRE_DUCT
10
750
20
315
30
0
11
50
21
315
31
0
0
LINE
8
WIRE_DUCT
10
50
20
315
30
0
11
50
21
275
31
0
0
LINE
8
WIRE_DUCT
10
50
20
50
30
0
11
95
21
50
31
0
0
LINE
8
WIRE_DUCT
10
95
20
50
30
0
11
95
21
1150
31
0
0
LINE
8
WIRE_DUCT
10
95
20
1150
30
0
11
50
21
1150
31
0
0
LINE
8
WIRE_DUCT
10
50
20
1150
30
0
11
50
21
50
31
0
0
LINE
8
DEVICE
10
245
20
125
30
0
11
259
21
125
31
0
0
LINE
8
DEVICE
10
259
20
125
30
0
11
259
21
205
31
0
0
LINE
8
DEVICE
10
259
20
205
30
0
11
245
21
205
31
0
0
LINE
8
DEVICE
10
245
20
205
30
0
11
245
21
125
31
0
0
LINE
8
COMPONENT_OUTLINE
10
245
20
125
30
0
11
259
21
125
31
0
0
LINE
8
COMPONENT_OUTLINE
10
259
20
125
30
0
11
259
21
205
31
0
0
LINE
8
COMPONENT_OUTLINE
10
259
20
205
30
0
11
245
21
205
31
0
0
LINE
8
COMPONENT_OUTLINE
10
245
20
205
30
0
11
245
21
125
31
0
0
LINE
8
COMPONENT_DETAIL
10
248.5
20
165
30
0
11
255.5
21
165
31
0
0
LINE
8
COMPONENT_DETAIL
10
252
20
161
30
0
11
252
21
169
31
0
0
TEXT
8
DEVICE_TAG
10
247
20
135
30
0
40
6
1
K1
0
TEXT
8
PART_REF
10
247
20
128
30
0
40
3
1
2903149
0
LINE
8
DEVICE
10
140
20
125
30
0
11
172
21
125
31
0
0
LINE
8
DEVICE
10
172
20
125
30
0
11
172
21
255
31
0
0
LINE
8
DEVICE
10
172
20
255
30
0
11
140
21
255
31
0
0
LINE
8
DEVICE
10
140
20
255
30
0
11
140
21
125
31
0
0
LINE
8
COMPONENT_OUTLINE
10
140
20
125
30
0
11
172
21
125
31
0
0
LINE
8
COMPONENT_OUTLINE
10
172
20
125
30
0
11
172
21
255
31
0
0
LINE
8
COMPONENT_OUTLINE
10
172
20
255
30
0
11
140
21
255
31
0
0
LINE
8
COMPONENT_OUTLINE
10
140
20
255
30
0
11
140
21
125
31
0
0
LINE
8
COMPONENT_DETAIL
10
152
20
190
30
0
11
160
21
190
31
0
0
LINE
8
COMPONENT_DETAIL
10
156
20
186
30
0
11
156
21
194
31
0
0
TEXT
8
DEVICE_TAG
10
142
20
135
30
0
40
6
1
PS1
0
TEXT
8
PART_REF
10
142
20
128
30
0
40
3
1
2866750
0
LINE
8
DEVICE
10
290
20
125
30
0
11
307.7
21
125
31
0
0
LINE
8
DEVICE
10
307.7
20
125
30
0
11
307.7
21
215
31
0
0
LINE
8
DEVICE
10
307.7
20
215
30
0
11
290
21
215
31
0
0
LINE
8
DEVICE
10
290
20
215
30
0
11
290
21
125
31
0
0
LINE
8
COMPONENT_OUTLINE
10
290
20
125
30
0
11
307.7
21
125
31
0
0
LINE
8
COMPONENT_OUTLINE
10
307.7
20
125
30
0
11
307.7
21
215
31
0
0
LINE
8
COMPONENT_OUTLINE
10
307.7
20
215
30
0
11
290
21
215
31
0
0
LINE
8
COMPONENT_OUTLINE
10
290
20
215
30
0
11
290
21
125
31
0
0
LINE
8
COMPONENT_DETAIL
10
294.85
20
170
30
0
11
302.85
21
170
31
0
0
LINE
8
COMPONENT_DETAIL
10
298.85
20
166
30
0
11
298.85
21
174
31
0
0
TEXT
8
DEVICE_TAG
10
292
20
135
30
0
40
6
1
SPD1
0
TEXT
8
PART_REF
10
292
20
128
30
0
40
3
1
2904627
0
LINE
8
DEVICE
10
185
20
125
30
0
11
233
21
125
31
0
0
LINE
8
DEVICE
10
233
20
125
30
0
11
233
21
255
31
0
0
LINE
8
DEVICE
10
233
20
255
30
0
11
185
21
255
31
0
0
LINE
8
DEVICE
10
185
20
255
30
0
11
185
21
125
31
0
0
LINE
8
COMPONENT_OUTLINE
10
185
20
125
30
0
11
233
21
125
31
0
0
LINE
8
COMPONENT_OUTLINE
10
233
20
125
30
0
11
233
21
255
31
0
0
LINE
8
COMPONENT_OUTLINE
10
233
20
255
30
0
11
185
21
255
31
0
0
LINE
8
COMPONENT_OUTLINE
10
185
20
255
30
0
11
185
21
125
31
0
0
LINE
8
COMPONENT_DETAIL
10
205
20
190
30
0
11
213
21
190
31
0
0
LINE
8
COMPONENT_DETAIL
10
209
20
186
30
0
11
209
21
194
31
0
0
TEXT
8
DEVICE_TAG
10
187
20
135
30
0
40
6
1
SW1
0
TEXT
8
PART_REF
10
187
20
128
30
0
40
3
1
2866776
0
LINE
8
DEVICE
10
155
20
335
30
0
11
160.2
21
335
31
0
0
LINE
8
DEVICE
10
160.2
20
335
30
0
11
160.2
21
391
31
0
0
LINE
8
DEVICE
10
160.2
20
391
30
0
11
155
21
391
31
0
0
LINE
8
DEVICE
10
155
20
391
30
0
11
155
21
335
31
0
0
LINE
8
COMPONENT_OUTLINE
10
155
20
335
30
0
11
160.2
21
335
31
0
0
LINE
8
COMPONENT_OUTLINE
10
160.2
20
335
30
0
11
160.2
21
391
31
0
0
LINE
8
COMPONENT_OUTLINE
10
160.2
20
391
30
0
11
155
21
391
31
0
0
LINE
8
COMPONENT_OUTLINE
10
155
20
391
30
0
11
155
21
335
31
0
0
LINE
8
COMPONENT_DETAIL
10
156.3
20
363
30
0
11
158.9
21
363
31
0
0
LINE
8
COMPONENT_DETAIL
10
157.6
20
359
30
0
11
157.6
21
367
31
0
0
TEXT
8
DEVICE_TAG
10
157
20
345
30
0
40
6
1
X1
0
TEXT
8
PART_REF
10
157
20
338
30
0
40
3
1
3209577
0
LINE
8
DEVICE
10
140
20
335
30
0
11
145.2
21
335
31
0
0
LINE
8
DEVICE
10
145.2
20
335
30
0
11
145.2
21
377.5
31
0
0
LINE
8
DEVICE
10
145.2
20
377.5
30
0
11
140
21
377.5
31
0
0
LINE
8
DEVICE
10
140
20
377.5
30
0
11
140
21
335
31
0
0
LINE
8
COMPONENT_OUTLINE
10
140
20
335
30
0
11
145.2
21
335
31
0
0
LINE
8
COMPONENT_OUTLINE
10
145.2
20
335
30
0
11
145.2
21
377.5
31
0
0
LINE
8
COMPONENT_OUTLINE
10
145.2
20
377.5
30
0
11
140
21
377.5
31
0
0
LINE
8
COMPONENT_OUTLINE
10
140
20
377.5
30
0
11
140
21
335
31
0
0
LINE
8
COMPONENT_DETAIL
10
141.3
20
356.25
30
0
11
143.9
21
356.25
31
0
0
LINE
8
COMPONENT_DETAIL
10
142.6
20
352.25
30
0
11
142.6
21
360.25
31
0
0
TEXT
8
DEVICE_TAG
10
142
20
345
30
0
40
6
1
K2
0
TEXT
8
PART_REF
10
142
20
338
30
0
40
3
1
3209510
0
LINE
8
DEVICE
10
320
20
125
30
0
11
349
21
125
31
0
0
LINE
8
DEVICE
10
349
20
125
30
0
11
349
21
255
31
0
0
LINE
8
DEVICE
10
349
20
255
30
0
11
320
21
255
31
0
0
LINE
8
DEVICE
10
320
20
255
30
0
11
320
21
125
31
0
0
LINE
8
COMPONENT_OUTLINE
10
320
20
125
30
0
11
349
21
125
31
0
0
LINE
8
COMPONENT_OUTLINE
10
349
20
125
30
0
11
349
21
255
31
0
0
LINE
8
COMPONENT_OUTLINE
10
349
20
255
30
0
11
320
21
255
31
0
0
LINE
8
COMPONENT_OUTLINE
10
320
20
255
30
0
11
320
21
125
31
0
0
LINE
8
COMPONENT_DETAIL
10
330.5
20
190
30
0
11
338.5
21
190
31
0
0
LINE
8
COMPONENT_DETAIL
10
334.5
20
186
30
0
11
334.5
21
194
31
0
0
TEXT
8
DEVICE_TAG
10
322
20
135
30
0
40
6
1
X2
0
TEXT
8
PART_REF
10
322
20
128
30
0
40
3
1
1085036
0
LINE
8
DEVICE
10
275
20
125
30
0
11
281.2
21
125
31
0
0
LINE
8
DEVICE
10
281.2
20
125
30
0
11
281.2
21
205
31
0
0
LINE
8
DEVICE
10
281.2
20
205
30
0
11
275
21
205
31
0
0
LINE
8
DEVICE
10
275
20
205
30
0
11
275
21
125
31
0
0
LINE
8
COMPONENT_OUTLINE
10
275
20
125
30
0
11
281.2
21
125
31
0
0
LINE
8
COMPONENT_OUTLINE
10
281.2
20
125
30
0
11
281.2
21
205
31
0
0
LINE
8
COMPONENT_OUTLINE
10
281.2
20
205
30
0
11
275
21
205
31
0
0
LINE
8
COMPONENT_OUTLINE
10
275
20
205
30
0
11
275
21
125
31
0
0
LINE
8
COMPONENT_DETAIL
10
276.55
20
165
30
0
11
279.65
21
165
31
0
0
LINE
8
COMPONENT_DETAIL
10
278.1
20
161
30
0
11
278.1
21
169
31
0
0
TEXT
8
DEVICE_TAG
10
277
20
135
30
0
40
6
1
PS2
0
TEXT
8
PART_REF
10
277
20
128
30
0
40
3
1
2966171
0
LINE
8
WIRE
10
334.5
20
190
30
0
11
209
21
190
31
0
0
LINE
8
WIRE
10
252
20
165
30
0
11
142.6
21
356.25
31
0
0
LINE
8
WIRE
10
209
20
190
30
0
11
298.85
21
170
31
0
0
LINE
8
WIRE
10
278.1
20
165
30
0
11
252
21
165
31
0
0
LINE
8
WIRE
10
157.6
20
363
30
0
11
334.5
21
190
31
0
0
LINE
8
WIRE
10
142.6
20
356.25
30
0
11
157.6
21
363
31
0
0
LINE
8
WIRE
10
156
20
190
30
0
11
278.1
21
165
31
0
0
ENDSEC
0
EOF
