0
SECTION
2
HEADER
9
$INSUNITS
70
4
0
ENDSEC
0
SECTION
2
ENTITIES
0
LINE
8
ENCLOSURE
10
0
20
0
30
0
11
800
21
0
31
0
0
LINE
8
ENCLOSURE
10
800
20
0
30
0
11
800
21
1200
31
0
0
LINE
8
ENCLOSURE
10
800
20
1200
30
0
11
0
21
1200
31
0
0
LINE
8
ENCLOSURE
10
0
20
1200
30
0
11
0
21
0
31
0
0
LINE
8
MOUNTING_PLATE
10
50
20
50
30
0
11
750
21
50
31
0
0
LINE
8
MOUNTING_PLATE
10
750
20
50
30
0
11
750
21
1150
31
0
0
LINE
8
MOUNTING_PLATE
10
750
20
1150
30
0
11
50
21
1150
31
0
0
LINE
8
MOUNTING_PLATE
10
50
20
1150
30
0
11
50
21
50
31
0
0
TEXT
8
ANNOTATION
10
50
20
1165
30
0
40
10
1
R3.1 ABB S200 U engineering-truth cabinet [mm]
0
LINE
8
DIN_RAIL
10
140
20
130
30
0
11
660
21
130
31
0
0
LINE
8
DIN_RAIL
10
140
20
310
30
0
11
660
21
310
31
0
0
LINE
8
WIRE_DUCT
10
705
20
50
30
0
11
750
21
50
31
0
0
LINE
8
WIRE_DUCT
10
750
20
50
30
0
11
750
21
1150
31
0
0
LINE
8
WIRE_DUCT
10
750
20
1150
30
0
11
705
21
1150
31
0
0
LINE
8
WIRE_DUCT
10
705
20
1150
30
0
11
705
21
50
31
0
0
LINE
8
WIRE_DUCT
10
50
20
280
30
0
11
750
21
280
31
0
0
LINE
8
WIRE_DUCT
10
750
20
280
30
0
11
750
21
320
31
0
0
LINE
8
WIRE_DUCT
10
750
20
320
30
0
11
50
21
320
31
0
0
LINE
8
WIRE_DUCT
10
50
20
320
30
0
11
50
21
280
31
0
0
LINE
8
WIRE_DUCT
10
50
20
50
30
0
11
95
21
50
31
0
0
LINE
8
WIRE_DUCT
10
95
20
50
30
0
11
95
21
1150
31
0
0
LINE
8
WIRE_DUCT
10
95
20
1150
30
0
11
50
21
1150
31
0
0
LINE
8
WIRE_DUCT
10
50
20
1150
30
0
11
50
21
50
31
0
0
LINE
8
DEVICE
10
170
20
345
30
0
11
187.5
21
345
31
0
0
LINE
8
DEVICE
10
187.5
20
345
30
0
11
187.5
21
437
31
0
0
LINE
8
DEVICE
10
187.5
20
437
30
0
11
170
21
437
31
0
0
LINE
8
DEVICE
10
170
20
437
30
0
11
170
21
345
31
0
0
LINE
8
COMPONENT_OUTLINE
10
170
20
345
30
0
11
187.5
21
345
31
0
0
LINE
8
COMPONENT_OUTLINE
10
187.5
20
345
30
0
11
187.5
21
437
31
0
0
LINE
8
COMPONENT_OUTLINE
10
187.5
20
437
30
0
11
170
21
437
31
0
0
LINE
8
COMPONENT_OUTLINE
10
170
20
437
30
0
11
170
21
345
31
0
0
LINE
8
COMPONENT_DETAIL
10
174.75
20
391
30
0
11
182.75
21
391
31
0
0
LINE
8
COMPONENT_DETAIL
10
178.75
20
387
30
0
11
178.75
21
395
31
0
0
TEXT
8
DEVICE_TAG
10
172
20
355
30
0
40
6
1
QF6
0
TEXT
8
PART_REF
10
172
20
348
30
0
40
3
1
2CDS271417R0104
0
LINE
8
DEVICE
10
220
20
345
30
0
11
237.5
21
345
31
0
0
LINE
8
DEVICE
10
237.5
20
345
30
0
11
237.5
21
437
31
0
0
LINE
8
DEVICE
10
237.5
20
437
30
0
11
220
21
437
31
0
0
LINE
8
DEVICE
10
220
20
437
30
0
11
220
21
345
31
0
0
LINE
8
COMPONENT_OUTLINE
10
220
20
345
30
0
11
237.5
21
345
31
0
0
LINE
8
COMPONENT_OUTLINE
10
237.5
20
345
30
0
11
237.5
21
437
31
0
0
LINE
8
COMPONENT_OUTLINE
10
237.5
20
437
30
0
11
220
21
437
31
0
0
LINE
8
COMPONENT_OUTLINE
10
220
20
437
30
0
11
220
21
345
31
0
0
LINE
8
COMPONENT_DETAIL
10
224.75
20
391
30
0
11
232.75
21
391
31
0
0
LINE
8
COMPONENT_DETAIL
10
228.75
20
387
30
0
11
228.75
21
395
31
0
0
TEXT
8
DEVICE_TAG
10
222
20
355
30
0
40
6
1
QF8
0
TEXT
8
PART_REF
10
222
20
348
30
0
40
3
1
2CDS271417R0104
0
LINE
8
DEVICE
10
220
20
165
30
0
11
237.5
21
165
31
0
0
LINE
8
DEVICE
10
237.5
20
165
30
0
11
237.5
21
257
31
0
0
LINE
8
DEVICE
10
237.5
20
257
30
0
11
220
21
257
31
0
0
LINE
8
DEVICE
10
220
20
257
30
0
11
220
21
165
31
0
0
LINE
8
COMPONENT_OUTLINE
10
220
20
165
30
0
11
237.5
21
165
31
0
0
LINE
8
COMPONENT_OUTLINE
10
237.5
20
165
30
0
11
237.5
21
257
31
0
0
LINE
8
COMPONENT_OUTLINE
10
237.5
20
257
30
0
11
220
21
257
31
0
0
LINE
8
COMPONENT_OUTLINE
10
220
20
257
30
0
11
220
21
165
31
0
0
LINE
8
COMPONENT_DETAIL
10
224.75
20
211
30
0
11
232.75
21
211
31
0
0
LINE
8
COMPONENT_DETAIL
10
228.75
20
207
30
0
11
228.75
21
215
31
0
0
TEXT
8
DEVICE_TAG
10
222
20
175
30
0
40
6
1
QF12
0
TEXT
8
PART_REF
10
222
20
168
30
0
40
3
1
2CDS271417R0204
0
LINE
8
DEVICE
10
550
20
165
30
0
11
567.5
21
165
31
0
0
LINE
8
DEVICE
10
567.5
20
165
30
0
11
567.5
21
257
31
0
0
LINE
8
DEVICE
10
567.5
20
257
30
0
11
550
21
257
31
0
0
LINE
8
DEVICE
10
550
20
257
30
0
11
550
21
165
31
0
0
LINE
8
COMPONENT_OUTLINE
10
550
20
165
30
0
11
567.5
21
165
31
0
0
LINE
8
COMPONENT_OUTLINE
10
567.5
20
165
30
0
11
567.5
21
257
31
0
0
LINE
8
COMPONENT_OUTLINE
10
567.5
20
257
30
0
11
550
21
257
31
0
0
LINE
8
COMPONENT_OUTLINE
10
550
20
257
30
0
11
550
21
165
31
0
0
LINE
8
COMPONENT_DETAIL
10
554.75
20
211
30
0
11
562.75
21
211
31
0
0
LINE
8
COMPONENT_DETAIL
10
558.75
20
207
30
0
11
558.75
21
215
31
0
0
TEXT
8
DEVICE_TAG
10
552
20
175
30
0
40
6
1
QF23
0
TEXT
8
PART_REF
10
552
20
168
30
0
40
3
1
2CDS271417R0634
0
LINE
8
DEVICE
10
390
20
165
30
0
11
407.5
21
165
31
0
0
LINE
8
DEVICE
10
407.5
20
165
30
0
11
407.5
21
257
31
0
0
LINE
8
DEVICE
10
407.5
20
257
30
0
11
390
21
257
31
0
0
LINE
8
DEVICE
10
390
20
257
30
0
11
390
21
165
31
0
0
LINE
8
COMPONENT_OUTLINE
10
390
20
165
30
0
11
407.5
21
165
31
0
0
LINE
8
COMPONENT_OUTLINE
10
407.5
20
165
30
0
11
407.5
21
257
31
0
0
LINE
8
COMPONENT_OUTLINE
10
407.5
20
257
30
0
11
390
21
257
31
0
0
LINE
8
COMPONENT_OUTLINE
10
390
20
257
30
0
11
390
21
165
31
0
0
LINE
8
COMPONENT_DETAIL
10
394.75
20
211
30
0
11
402.75
21
211
31
0
0
LINE
8
COMPONENT_DETAIL
10
398.75
20
207
30
0
11
398.75
21
215
31
0
0
TEXT
8
DEVICE_TAG
10
392
20
175
30
0
40
6
1
QF18
0
TEXT
8
PART_REF
10
392
20
168
30
0
40
3
1
2CDS271417R0324
0
LINE
8
DEVICE
10
280
20
165
30
0
11
297.5
21
165
31
0
0
LINE
8
DEVICE
10
297.5
20
165
30
0
11
297.5
21
257
31
0
0
LINE
8
DEVICE
10
297.5
20
257
30
0
11
280
21
257
31
0
0
LINE
8
DEVICE
10
280
20
257
30
0
11
280
21
165
31
0
0
LINE
8
COMPONENT_OUTLINE
10
280
20
165
30
0
11
297.5
21
165
31
0
0
LINE
8
COMPONENT_OUTLINE
10
297.5
20
165
30
0
11
297.5
21
257
31
0
0
LINE
8
COMPONENT_OUTLINE
10
297.5
20
257
30
0
11
280
21
257
31
0
0
LINE
8
COMPONENT_OUTLINE
10
280
20
257
30
0
11
280
21
165
31
0
0
LINE
8
COMPONENT_DETAIL
10
284.75
20
211
30
0
11
292.75
21
211
31
0
0
LINE
8
COMPONENT_DETAIL
10
288.75
20
207
30
0
11
288.75
21
215
31
0
0
TEXT
8
DEVICE_TAG
10
282
20
175
30
0
40
6
1
QF14
0
TEXT
8
PART_REF
10
282
20
168
30
0
40
3
1
2CDS271417R0204
0
LINE
8
DEVICE
10
470
20
165
30
0
11
487.5
21
165
31
0
0
LINE
8
DEVICE
10
487.5
20
165
30
0
11
487.5
21
257
31
0
0
LINE
8
DEVICE
10
487.5
20
257
30
0
11
470
21
257
31
0
0
LINE
8
DEVICE
10
470
20
257
30
0
11
470
21
165
31
0
0
LINE
8
COMPONENT_OUTLINE
10
470
20
165
30
0
11
487.5
21
165
31
0
0
LINE
8
COMPONENT_OUTLINE
10
487.5
20
165
30
0
11
487.5
21
257
31
0
0
LINE
8
COMPONENT_OUTLINE
10
487.5
20
257
30
0
11
470
21
257
31
0
0
LINE
8
COMPONENT_OUTLINE
10
470
20
257
30
0
11
470
21
165
31
0
0
LINE
8
COMPONENT_DETAIL
10
474.75
20
211
30
0
11
482.75
21
211
31
0
0
LINE
8
COMPONENT_DETAIL
10
478.75
20
207
30
0
11
478.75
21
215
31
0
0
TEXT
8
DEVICE_TAG
10
472
20
175
30
0
40
6
1
QF20
0
TEXT
8
PART_REF
10
472
20
168
30
0
40
3
1
2CDS271417R0324
0
LINE
8
DEVICE
10
330
20
165
30
0
11
347.5
21
165
31
0
0
LINE
8
DEVICE
10
347.5
20
165
30
0
11
347.5
21
257
31
0
0
LINE
8
DEVICE
10
347.5
20
257
30
0
11
330
21
257
31
0
0
LINE
8
DEVICE
10
330
20
257
30
0
11
330
21
165
31
0
0
LINE
8
COMPONENT_OUTLINE
10
330
20
165
30
0
11
347.5
21
165
31
0
0
LINE
8
COMPONENT_OUTLINE
10
347.5
20
165
30
0
11
347.5
21
257
31
0
0
LINE
8
COMPONENT_OUTLINE
10
347.5
20
257
30
0
11
330
21
257
31
0
0
LINE
8
COMPONENT_OUTLINE
10
330
20
257
30
0
11
330
21
165
31
0
0
LINE
8
COMPONENT_DETAIL
10
334.75
20
211
30
0
11
342.75
21
211
31
0
0
LINE
8
COMPONENT_DETAIL
10
338.75
20
207
30
0
11
338.75
21
215
31
0
0
TEXT
8
DEVICE_TAG
10
332
20
175
30
0
40
6
1
QF16
0
TEXT
8
PART_REF
10
332
20
168
30
0
40
3
1
2CDS271417R0254
0
LINE
8
DEVICE
10
415
20
165
30
0
11
432.5
21
165
31
0
0
LINE
8
DEVICE
10
432.5
20
165
30
0
11
432.5
21
257
31
0
0
LINE
8
DEVICE
10
432.5
20
257
30
0
11
415
21
257
31
0
0
LINE
8
DEVICE
10
415
20
257
30
0
11
415
21
165
31
0
0
LINE
8
COMPONENT_OUTLINE
10
415
20
165
30
0
11
432.5
21
165
31
0
0
LINE
8
COMPONENT_OUTLINE
10
432.5
20
165
30
0
11
432.5
21
257
31
0
0
LINE
8
COMPONENT_OUTLINE
10
432.5
20
257
30
0
11
415
21
257
31
0
0
LINE
8
COMPONENT_OUTLINE
10
415
20
257
30
0
11
415
21
165
31
0
0
LINE
8
COMPONENT_DETAIL
10
419.75
20
211
30
0
11
427.75
21
211
31
0
0
LINE
8
COMPONENT_DETAIL
10
423.75
20
207
30
0
11
423.75
21
215
31
0
0
TEXT
8
DEVICE_TAG
10
417
20
175
30
0
40
6
1
QF19
0
TEXT
8
PART_REF
10
417
20
168
30
0
40
3
1
2CDS271417R0324
0
LINE
8
DEVICE
10
140
20
165
30
0
11
157.5
21
165
31
0
0
LINE
8
DEVICE
10
157.5
20
165
30
0
11
157.5
21
257
31
0
0
LINE
8
DEVICE
10
157.5
20
257
30
0
11
140
21
257
31
0
0
LINE
8
DEVICE
10
140
20
257
30
0
11
140
21
165
31
0
0
LINE
8
COMPONENT_OUTLINE
10
140
20
165
30
0
11
157.5
21
165
31
0
0
LINE
8
COMPONENT_OUTLINE
10
157.5
20
165
30
0
11
157.5
21
257
31
0
0
LINE
8
COMPONENT_OUTLINE
10
157.5
20
257
30
0
11
140
21
257
31
0
0
LINE
8
COMPONENT_OUTLINE
10
140
20
257
30
0
11
140
21
165
31
0
0
LINE
8
COMPONENT_DETAIL
10
144.75
20
211
30
0
11
152.75
21
211
31
0
0
LINE
8
COMPONENT_DETAIL
10
148.75
20
207
30
0
11
148.75
21
215
31
0
0
TEXT
8
DEVICE_TAG
10
142
20
175
30
0
40
6
1
QF1
0
TEXT
8
PART_REF
10
142
20
168
30
0
40
3
1
2CDS271417R0064
0
LINE
8
DEVICE
10
580
20
165
30
0
11
597.5
21
165
31
0
0
LINE
8
DEVICE
10
597.5
20
165
30
0
11
597.5
21
257
31
0
0
LINE
8
DEVICE
10
597.5
20
257
30
0
11
580
21
257
31
0
0
LINE
8
DEVICE
10
580
20
257
30
0
11
580
21
165
31
0
0
LINE
8
COMPONENT_OUTLINE
10
580
20
165
30
0
11
597.5
21
165
31
0
0
LINE
8
COMPONENT_OUTLINE
10
597.5
20
165
30
0
11
597.5
21
257
31
0
0
LINE
8
COMPONENT_OUTLINE
10
597.5
20
257
30
0
11
580
21
257
31
0
0
LINE
8
COMPONENT_OUTLINE
10
580
20
257
30
0
11
580
21
165
31
0
0
LINE
8
COMPONENT_DETAIL
10
584.75
20
211
30
0
11
592.75
21
211
31
0
0
LINE
8
COMPONENT_DETAIL
10
588.75
20
207
30
0
11
588.75
21
215
31
0
0
TEXT
8
DEVICE_TAG
10
582
20
175
30
0
40
6
1
QF24
0
TEXT
8
PART_REF
10
582
20
168
30
0
40
3
1
2CDS271417R0634
0
LINE
8
DEVICE
10
500
20
165
30
0
11
517.5
21
165
31
0
0
LINE
8
DEVICE
10
517.5
20
165
30
0
11
517.5
21
257
31
0
0
LINE
8
DEVICE
10
517.5
20
257
30
0
11
500
21
257
31
0
0
LINE
8
DEVICE
10
500
20
257
30
0
11
500
21
165
31
0
0
LINE
8
COMPONENT_OUTLINE
10
500
20
165
30
0
11
517.5
21
165
31
0
0
LINE
8
COMPONENT_OUTLINE
10
517.5
20
165
30
0
11
517.5
21
257
31
0
0
LINE
8
COMPONENT_OUTLINE
10
517.5
20
257
30
0
11
500
21
257
31
0
0
LINE
8
COMPONENT_OUTLINE
10
500
20
257
30
0
11
500
21
165
31
0
0
LINE
8
COMPONENT_DETAIL
10
504.75
20
211
30
0
11
512.75
21
211
31
0
0
LINE
8
COMPONENT_DETAIL
10
508.75
20
207
30
0
11
508.75
21
215
31
0
0
TEXT
8
DEVICE_TAG
10
502
20
175
30
0
40
6
1
QF21
0
TEXT
8
PART_REF
10
502
20
168
30
0
40
3
1
2CDS271417R0404
0
LINE
8
DEVICE
10
610
20
165
30
0
11
627.5
21
165
31
0
0
LINE
8
DEVICE
10
627.5
20
165
30
0
11
627.5
21
257
31
0
0
LINE
8
DEVICE
10
627.5
20
257
30
0
11
610
21
257
31
0
0
LINE
8
DEVICE
10
610
20
257
30
0
11
610
21
165
31
0
0
LINE
8
COMPONENT_OUTLINE
10
610
20
165
30
0
11
627.5
21
165
31
0
0
LINE
8
COMPONENT_OUTLINE
10
627.5
20
165
30
0
11
627.5
21
257
31
0
0
LINE
8
COMPONENT_OUTLINE
10
627.5
20
257
30
0
11
610
21
257
31
0
0
LINE
8
COMPONENT_OUTLINE
10
610
20
257
30
0
11
610
21
165
31
0
0
LINE
8
COMPONENT_DETAIL
10
614.75
20
211
30
0
11
622.75
21
211
31
0
0
LINE
8
COMPONENT_DETAIL
10
618.75
20
207
30
0
11
618.75
21
215
31
0
0
TEXT
8
DEVICE_TAG
10
612
20
175
30
0
40
6
1
QF3
0
TEXT
8
PART_REF
10
612
20
168
30
0
40
3
1
2CDS271417R0064
0
LINE
8
DEVICE
10
525
20
165
30
0
11
542.5
21
165
31
0
0
LINE
8
DEVICE
10
542.5
20
165
30
0
11
542.5
21
257
31
0
0
LINE
8
DEVICE
10
542.5
20
257
30
0
11
525
21
257
31
0
0
LINE
8
DEVICE
10
525
20
257
30
0
11
525
21
165
31
0
0
LINE
8
COMPONENT_OUTLINE
10
525
20
165
30
0
11
542.5
21
165
31
0
0
LINE
8
COMPONENT_OUTLINE
10
542.5
20
165
30
0
11
542.5
21
257
31
0
0
LINE
8
COMPONENT_OUTLINE
10
542.5
20
257
30
0
11
525
21
257
31
0
0
LINE
8
COMPONENT_OUTLINE
10
525
20
257
30
0
11
525
21
165
31
0
0
LINE
8
COMPONENT_DETAIL
10
529.75
20
211
30
0
11
537.75
21
211
31
0
0
LINE
8
COMPONENT_DETAIL
10
533.75
20
207
30
0
11
533.75
21
215
31
0
0
TEXT
8
DEVICE_TAG
10
527
20
175
30
0
40
6
1
QF22
0
TEXT
8
PART_REF
10
527
20
168
30
0
40
3
1
2CDS271417R0404
0
LINE
8
DEVICE
10
250
20
165
30
0
11
267.5
21
165
31
0
0
LINE
8
DEVICE
10
267.5
20
165
30
0
11
267.5
21
257
31
0
0
LINE
8
DEVICE
10
267.5
20
257
30
0
11
250
21
257
31
0
0
LINE
8
DEVICE
10
250
20
257
30
0
11
250
21
165
31
0
0
LINE
8
COMPONENT_OUTLINE
10
250
20
165
30
0
11
267.5
21
165
31
0
0
LINE
8
COMPONENT_OUTLINE
10
267.5
20
165
30
0
11
267.5
21
257
31
0
0
LINE
8
COMPONENT_OUTLINE
10
267.5
20
257
30
0
11
250
21
257
31
0
0
LINE
8
COMPONENT_OUTLINE
10
250
20
257
30
0
11
250
21
165
31
0
0
LINE
8
COMPONENT_DETAIL
10
254.75
20
211
30
0
11
262.75
21
211
31
0
0
LINE
8
COMPONENT_DETAIL
10
258.75
20
207
30
0
11
258.75
21
215
31
0
0
TEXT
8
DEVICE_TAG
10
252
20
175
30
0
40
6
1
QF13
0
TEXT
8
PART_REF
10
252
20
168
30
0
40
3
1
2CDS271417R0204
0
LINE
8
DEVICE
10
250
20
345
30
0
11
267.5
21
345
31
0
0
LINE
8
DEVICE
10
267.5
20
345
30
0
11
267.5
21
437
31
0
0
LINE
8
DEVICE
10
267.5
20
437
30
0
11
250
21
437
31
0
0
LINE
8
DEVICE
10
250
20
437
30
0
11
250
21
345
31
0
0
LINE
8
COMPONENT_OUTLINE
10
250
20
345
30
0
11
267.5
21
345
31
0
0
LINE
8
COMPONENT_OUTLINE
10
267.5
20
345
30
0
11
267.5
21
437
31
0
0
LINE
8
COMPONENT_OUTLINE
10
267.5
20
437
30
0
11
250
21
437
31
0
0
LINE
8
COMPONENT_OUTLINE
10
250
20
437
30
0
11
250
21
345
31
0
0
LINE
8
COMPONENT_DETAIL
10
254.75
20
391
30
0
11
262.75
21
391
31
0
0
LINE
8
COMPONENT_DETAIL
10
258.75
20
387
30
0
11
258.75
21
395
31
0
0
TEXT
8
DEVICE_TAG
10
252
20
355
30
0
40
6
1
QF9
0
TEXT
8
PART_REF
10
252
20
348
30
0
40
3
1
2CDS271417R0164
0
LINE
8
DEVICE
10
195
20
165
30
0
11
212.5
21
165
31
0
0
LINE
8
DEVICE
10
212.5
20
165
30
0
11
212.5
21
257
31
0
0
LINE
8
DEVICE
10
212.5
20
257
30
0
11
195
21
257
31
0
0
LINE
8
DEVICE
10
195
20
257
30
0
11
195
21
165
31
0
0
LINE
8
COMPONENT_OUTLINE
10
195
20
165
30
0
11
212.5
21
165
31
0
0
LINE
8
COMPONENT_OUTLINE
10
212.5
20
165
30
0
11
212.5
21
257
31
0
0
LINE
8
COMPONENT_OUTLINE
10
212.5
20
257
30
0
11
195
21
257
31
0
0
LINE
8
COMPONENT_OUTLINE
10
195
20
257
30
0
11
195
21
165
31
0
0
LINE
8
COMPONENT_DETAIL
10
199.75
20
211
30
0
11
207.75
21
211
31
0
0
LINE
8
COMPONENT_DETAIL
10
203.75
20
207
30
0
11
203.75
21
215
31
0
0
TEXT
8
DEVICE_TAG
10
197
20
175
30
0
40
6
1
QF11
0
TEXT
8
PART_REF
10
197
20
168
30
0
40
3
1
2CDS271417R0164
0
LINE
8
DEVICE
10
195
20
345
30
0
11
212.5
21
345
31
0
0
LINE
8
DEVICE
10
212.5
20
345
30
0
11
212.5
21
437
31
0
0
LINE
8
DEVICE
10
212.5
20
437
30
0
11
195
21
437
31
0
0
LINE
8
DEVICE
10
195
20
437
30
0
11
195
21
345
31
0
0
LINE
8
COMPONENT_OUTLINE
10
195
20
345
30
0
11
212.5
21
345
31
0
0
LINE
8
COMPONENT_OUTLINE
10
212.5
20
345
30
0
11
212.5
21
437
31
0
0
LINE
8
COMPONENT_OUTLINE
10
212.5
20
437
30
0
11
195
21
437
31
0
0
LINE
8
COMPONENT_OUTLINE
10
195
20
437
30
0
11
195
21
345
31
0
0
LINE
8
COMPONENT_DETAIL
10
199.75
20
391
30
0
11
207.75
21
391
31
0
0
LINE
8
COMPONENT_DETAIL
10
203.75
20
387
30
0
11
203.75
21
395
31
0
0
TEXT
8
DEVICE_TAG
10
197
20
355
30
0
40
6
1
QF7
0
TEXT
8
PART_REF
10
197
20
348
30
0
40
3
1
2CDS271417R0104
0
LINE
8
DEVICE
10
360
20
165
30
0
11
377.5
21
165
31
0
0
LINE
8
DEVICE
10
377.5
20
165
30
0
11
377.5
21
257
31
0
0
LINE
8
DEVICE
10
377.5
20
257
30
0
11
360
21
257
31
0
0
LINE
8
DEVICE
10
360
20
257
30
0
11
360
21
165
31
0
0
LINE
8
COMPONENT_OUTLINE
10
360
20
165
30
0
11
377.5
21
165
31
0
0
LINE
8
COMPONENT_OUTLINE
10
377.5
20
165
30
0
11
377.5
21
257
31
0
0
LINE
8
COMPONENT_OUTLINE
10
377.5
20
257
30
0
11
360
21
257
31
0
0
LINE
8
COMPONENT_OUTLINE
10
360
20
257
30
0
11
360
21
165
31
0
0
LINE
8
COMPONENT_DETAIL
10
364.75
20
211
30
0
11
372.75
21
211
31
0
0
LINE
8
COMPONENT_DETAIL
10
368.75
20
207
30
0
11
368.75
21
215
31
0
0
TEXT
8
DEVICE_TAG
10
362
20
175
30
0
40
6
1
QF17
0
TEXT
8
PART_REF
10
362
20
168
30
0
40
3
1
2CDS271417R0254
0
LINE
8
DEVICE
10
305
20
165
30
0
11
322.5
21
165
31
0
0
LINE
8
DEVICE
10
322.5
20
165
30
0
11
322.5
21
257
31
0
0
LINE
8
DEVICE
10
322.5
20
257
30
0
11
305
21
257
31
0
0
LINE
8
DEVICE
10
305
20
257
30
0
11
305
21
165
31
0
0
LINE
8
COMPONENT_OUTLINE
10
305
20
165
30
0
11
322.5
21
165
31
0
0
LINE
8
COMPONENT_OUTLINE
10
322.5
20
165
30
0
11
322.5
21
257
31
0
0
LINE
8
COMPONENT_OUTLINE
10
322.5
20
257
30
0
11
305
21
257
31
0
0
LINE
8
COMPONENT_OUTLINE
10
305
20
257
30
0
11
305
21
165
31
0
0
LINE
8
COMPONENT_DETAIL
10
309.75
20
211
30
0
11
317.75
21
211
31
0
0
LINE
8
COMPONENT_DETAIL
10
313.75
20
207
30
0
11
313.75
21
215
31
0
0
TEXT
8
DEVICE_TAG
10
307
20
175
30
0
40
6
1
QF15
0
TEXT
8
PART_REF
10
307
20
168
30
0
40
3
1
2CDS271417R0254
0
LINE
8
DEVICE
10
440
20
165
30
0
11
457.5
21
165
31
0
0
LINE
8
DEVICE
10
457.5
20
165
30
0
11
457.5
21
257
31
0
0
LINE
8
DEVICE
10
457.5
20
257
30
0
11
440
21
257
31
0
0
LINE
8
DEVICE
10
440
20
257
30
0
11
440
21
165
31
0
0
LINE
8
COMPONENT_OUTLINE
10
440
20
165
30
0
11
457.5
21
165
31
0
0
LINE
8
COMPONENT_OUTLINE
10
457.5
20
165
30
0
11
457.5
21
257
31
0
0
LINE
8
COMPONENT_OUTLINE
10
457.5
20
257
30
0
11
440
21
257
31
0
0
LINE
8
COMPONENT_OUTLINE
10
440
20
257
30
0
11
440
21
165
31
0
0
LINE
8
COMPONENT_DETAIL
10
444.75
20
211
30
0
11
452.75
21
211
31
0
0
LINE
8
COMPONENT_DETAIL
10
448.75
20
207
30
0
11
448.75
21
215
31
0
0
TEXT
8
DEVICE_TAG
10
442
20
175
30
0
40
6
1
QF2
0
TEXT
8
PART_REF
10
442
20
168
30
0
40
3
1
2CDS271417R0064
0
LINE
8
DEVICE
10
635
20
165
30
0
11
652.5
21
165
31
0
0
LINE
8
DEVICE
10
652.5
20
165
30
0
11
652.5
21
257
31
0
0
LINE
8
DEVICE
10
652.5
20
257
30
0
11
635
21
257
31
0
0
LINE
8
DEVICE
10
635
20
257
30
0
11
635
21
165
31
0
0
LINE
8
COMPONENT_OUTLINE
10
635
20
165
30
0
11
652.5
21
165
31
0
0
LINE
8
COMPONENT_OUTLINE
10
652.5
20
165
30
0
11
652.5
21
257
31
0
0
LINE
8
COMPONENT_OUTLINE
10
652.5
20
257
30
0
11
635
21
257
31
0
0
LINE
8
COMPONENT_OUTLINE
10
635
20
257
30
0
11
635
21
165
31
0
0
LINE
8
COMPONENT_DETAIL
10
639.75
20
211
30
0
11
647.75
21
211
31
0
0
LINE
8
COMPONENT_DETAIL
10
643.75
20
207
30
0
11
643.75
21
215
31
0
0
TEXT
8
DEVICE_TAG
10
637
20
175
30
0
40
6
1
QF4
0
TEXT
8
PART_REF
10
637
20
168
30
0
40
3
1
2CDS271417R0064
0
LINE
8
DEVICE
10
170
20
165
30
0
11
187.5
21
165
31
0
0
LINE
8
DEVICE
10
187.5
20
165
30
0
11
187.5
21
257
31
0
0
LINE
8
DEVICE
10
187.5
20
257
30
0
11
170
21
257
31
0
0
LINE
8
DEVICE
10
170
20
257
30
0
11
170
21
165
31
0
0
LINE
8
COMPONENT_OUTLINE
10
170
20
165
30
0
11
187.5
21
165
31
0
0
LINE
8
COMPONENT_OUTLINE
10
187.5
20
165
30
0
11
187.5
21
257
31
0
0
LINE
8
COMPONENT_OUTLINE
10
187.5
20
257
30
0
11
170
21
257
31
0
0
LINE
8
COMPONENT_OUTLINE
10
170
20
257
30
0
11
170
21
165
31
0
0
LINE
8
COMPONENT_DETAIL
10
174.75
20
211
30
0
11
182.75
21
211
31
0
0
LINE
8
COMPONENT_DETAIL
10
178.75
20
207
30
0
11
178.75
21
215
31
0
0
TEXT
8
DEVICE_TAG
10
172
20
175
30
0
40
6
1
QF10
0
TEXT
8
PART_REF
10
172
20
168
30
0
40
3
1
2CDS271417R0164
0
LINE
8
DEVICE
10
140
20
345
30
0
11
157.5
21
345
31
0
0
LINE
8
DEVICE
10
157.5
20
345
30
0
11
157.5
21
437
31
0
0
LINE
8
DEVICE
10
157.5
20
437
30
0
11
140
21
437
31
0
0
LINE
8
DEVICE
10
140
20
437
30
0
11
140
21
345
31
0
0
LINE
8
COMPONENT_OUTLINE
10
140
20
345
30
0
11
157.5
21
345
31
0
0
LINE
8
COMPONENT_OUTLINE
10
157.5
20
345
30
0
11
157.5
21
437
31
0
0
LINE
8
COMPONENT_OUTLINE
10
157.5
20
437
30
0
11
140
21
437
31
0
0
LINE
8
COMPONENT_OUTLINE
10
140
20
437
30
0
11
140
21
345
31
0
0
LINE
8
COMPONENT_DETAIL
10
144.75
20
391
30
0
11
152.75
21
391
31
0
0
LINE
8
COMPONENT_DETAIL
10
148.75
20
387
30
0
11
148.75
21
395
31
0
0
TEXT
8
DEVICE_TAG
10
142
20
355
30
0
40
6
1
QF5
0
TEXT
8
PART_REF
10
142
20
348
30
0
40
3
1
2CDS271417R0104
0
ENDSEC
0
EOF
