0
SECTION
2
HEADER
9
$ACADVER
1
AC1009
9
$INSUNITS
70
4
0
ENDSEC
0
SECTION
2
ENTITIES
999
CNB Electrical Lab | MCC panel | A
0
LINE
8
ENCLOSURE
10
0
20
0
30
0
11
800
21
0
31
0
0
LINE
8
ENCLOSURE
10
800
20
0
30
0
11
800
21
2000
31
0
0
LINE
8
ENCLOSURE
10
800
20
2000
30
0
11
0
21
2000
31
0
0
LINE
8
ENCLOSURE
10
0
20
2000
30
0
11
0
21
0
31
0
0
LINE
8
MOUNTING_PLATE
10
50
20
50
30
0
11
750
21
50
31
0
0
LINE
8
MOUNTING_PLATE
10
750
20
50
30
0
11
750
21
1950
31
0
0
LINE
8
MOUNTING_PLATE
10
750
20
1950
30
0
11
50
21
1950
31
0
0
LINE
8
MOUNTING_PLATE
10
50
20
1950
30
0
11
50
21
50
31
0
0
TEXT
8
TEXT
10
20
20
1975
30
0
40
12
1
Control cabinet
0
LINE
8
DIN_RAIL
10
140
20
90
30
0
11
660
21
90
31
0
0
LINE
8
DIN_RAIL
10
660
20
90
30
0
11
660
21
125
31
0
0
LINE
8
DIN_RAIL
10
660
20
125
30
0
11
140
21
125
31
0
0
LINE
8
DIN_RAIL
10
140
20
125
30
0
11
140
21
90
31
0
0
TEXT
8
TEXT
10
142
20
129
30
0
40
6
1
rail_49733228f15e
0
LINE
8
DIN_RAIL
10
140
20
270
30
0
11
660
21
270
31
0
0
LINE
8
DIN_RAIL
10
660
20
270
30
0
11
660
21
305
31
0
0
LINE
8
DIN_RAIL
10
660
20
305
30
0
11
140
21
305
31
0
0
LINE
8
DIN_RAIL
10
140
20
305
30
0
11
140
21
270
31
0
0
TEXT
8
TEXT
10
142
20
309
30
0
40
6
1
rail_993d25ff4ec1
0
LINE
8
DIN_RAIL
10
140
20
450
30
0
11
660
21
450
31
0
0
LINE
8
DIN_RAIL
10
660
20
450
30
0
11
660
21
485
31
0
0
LINE
8
DIN_RAIL
10
660
20
485
30
0
11
140
21
485
31
0
0
LINE
8
DIN_RAIL
10
140
20
485
30
0
11
140
21
450
31
0
0
TEXT
8
TEXT
10
142
20
489
30
0
40
6
1
rail_44834ffbdd63
0
LINE
8
WIRE_DUCT
10
50
20
50
30
0
11
95
21
50
31
0
0
LINE
8
WIRE_DUCT
10
95
20
50
30
0
11
95
21
1950
31
0
0
LINE
8
WIRE_DUCT
10
95
20
1950
30
0
11
50
21
1950
31
0
0
LINE
8
WIRE_DUCT
10
50
20
1950
30
0
11
50
21
50
31
0
0
LINE
8
WIRE_DUCT
10
705
20
50
30
0
11
750
21
50
31
0
0
LINE
8
WIRE_DUCT
10
750
20
50
30
0
11
750
21
1950
31
0
0
LINE
8
WIRE_DUCT
10
750
20
1950
30
0
11
705
21
1950
31
0
0
LINE
8
WIRE_DUCT
10
705
20
1950
30
0
11
705
21
50
31
0
0
LINE
8
WIRE_DUCT
10
50
20
240
30
0
11
750
21
240
31
0
0
LINE
8
WIRE_DUCT
10
750
20
240
30
0
11
750
21
280
31
0
0
LINE
8
WIRE_DUCT
10
750
20
280
30
0
11
50
21
280
31
0
0
LINE
8
WIRE_DUCT
10
50
20
280
30
0
11
50
21
240
31
0
0
LINE
8
WIRE_DUCT
10
50
20
420
30
0
11
750
21
420
31
0
0
LINE
8
WIRE_DUCT
10
750
20
420
30
0
11
750
21
460
31
0
0
LINE
8
WIRE_DUCT
10
750
20
460
30
0
11
50
21
460
31
0
0
LINE
8
WIRE_DUCT
10
50
20
460
30
0
11
50
21
420
31
0
0
LINE
8
COMPONENT
10
135
20
1750
30
0
11
240
21
1750
31
0
0
LINE
8
COMPONENT
10
240
20
1750
30
0
11
240
21
1910
31
0
0
LINE
8
COMPONENT
10
240
20
1910
30
0
11
135
21
1910
31
0
0
LINE
8
COMPONENT
10
135
20
1910
30
0
11
135
21
1750
31
0
0
TEXT
8
TAG
10
138
20
1830
30
0
40
12
1
QF1
0
TEXT
8
TEXT
10
138
20
1760
30
0
40
4
1
Main molded-case circuit breaker 250 A
0
CIRCLE
8
TERMINAL
10
150
20
1750
30
0
40
1.5
0
CIRCLE
8
TERMINAL
10
165
20
1750
30
0
40
1.5
0
CIRCLE
8
TERMINAL
10
180
20
1750
30
0
40
1.5
0
CIRCLE
8
TERMINAL
10
195
20
1750
30
0
40
1.5
0
CIRCLE
8
TERMINAL
10
210
20
1750
30
0
40
1.5
0
CIRCLE
8
TERMINAL
10
225
20
1750
30
0
40
1.5
0
LINE
8
COMPONENT
10
140
20
125
30
0
11
194
21
125
31
0
0
LINE
8
COMPONENT
10
194
20
125
30
0
11
194
21
205
31
0
0
LINE
8
COMPONENT
10
194
20
205
30
0
11
140
21
205
31
0
0
LINE
8
COMPONENT
10
140
20
205
30
0
11
140
21
125
31
0
0
TEXT
8
TAG
10
143
20
165
30
0
40
12
1
QF-M1
0
TEXT
8
TEXT
10
143
20
135
30
0
40
4
1
Three-pole miniature circuit breaker 16 A
0
CIRCLE
8
TERMINAL
10
147.7143
20
125
30
0
40
1.5
0
CIRCLE
8
TERMINAL
10
155.4286
20
125
30
0
40
1.5
0
CIRCLE
8
TERMINAL
10
163.1429
20
125
30
0
40
1.5
0
CIRCLE
8
TERMINAL
10
170.8571
20
125
30
0
40
1.5
0
CIRCLE
8
TERMINAL
10
178.5714
20
125
30
0
40
1.5
0
CIRCLE
8
TERMINAL
10
186.2857
20
125
30
0
40
1.5
0
LINE
8
COMPONENT
10
200
20
125
30
0
11
254
21
125
31
0
0
LINE
8
COMPONENT
10
254
20
125
30
0
11
254
21
205
31
0
0
LINE
8
COMPONENT
10
254
20
205
30
0
11
200
21
205
31
0
0
LINE
8
COMPONENT
10
200
20
205
30
0
11
200
21
125
31
0
0
TEXT
8
TAG
10
203
20
165
30
0
40
12
1
QF-M2
0
TEXT
8
TEXT
10
203
20
135
30
0
40
4
1
Three-pole miniature circuit breaker 16 A
0
CIRCLE
8
TERMINAL
10
207.7143
20
125
30
0
40
1.5
0
CIRCLE
8
TERMINAL
10
215.4286
20
125
30
0
40
1.5
0
CIRCLE
8
TERMINAL
10
223.1429
20
125
30
0
40
1.5
0
CIRCLE
8
TERMINAL
10
230.8571
20
125
30
0
40
1.5
0
CIRCLE
8
TERMINAL
10
238.5714
20
125
30
0
40
1.5
0
CIRCLE
8
TERMINAL
10
246.2857
20
125
30
0
40
1.5
0
LINE
8
COMPONENT
10
260
20
125
30
0
11
314
21
125
31
0
0
LINE
8
COMPONENT
10
314
20
125
30
0
11
314
21
205
31
0
0
LINE
8
COMPONENT
10
314
20
205
30
0
11
260
21
205
31
0
0
LINE
8
COMPONENT
10
260
20
205
30
0
11
260
21
125
31
0
0
TEXT
8
TAG
10
263
20
165
30
0
40
12
1
QF-M3
0
TEXT
8
TEXT
10
263
20
135
30
0
40
4
1
Three-pole miniature circuit breaker 16 A
0
CIRCLE
8
TERMINAL
10
267.7143
20
125
30
0
40
1.5
0
CIRCLE
8
TERMINAL
10
275.4286
20
125
30
0
40
1.5
0
CIRCLE
8
TERMINAL
10
283.1429
20
125
30
0
40
1.5
0
CIRCLE
8
TERMINAL
10
290.8571
20
125
30
0
40
1.5
0
CIRCLE
8
TERMINAL
10
298.5714
20
125
30
0
40
1.5
0
CIRCLE
8
TERMINAL
10
306.2857
20
125
30
0
40
1.5
0
LINE
8
COMPONENT
10
315
20
125
30
0
11
369
21
125
31
0
0
LINE
8
COMPONENT
10
369
20
125
30
0
11
369
21
205
31
0
0
LINE
8
COMPONENT
10
369
20
205
30
0
11
315
21
205
31
0
0
LINE
8
COMPONENT
10
315
20
205
30
0
11
315
21
125
31
0
0
TEXT
8
TAG
10
318
20
165
30
0
40
12
1
QF-M4
0
TEXT
8
TEXT
10
318
20
135
30
0
40
4
1
Three-pole miniature circuit breaker 16 A
0
CIRCLE
8
TERMINAL
10
322.7143
20
125
30
0
40
1.5
0
CIRCLE
8
TERMINAL
10
330.4286
20
125
30
0
40
1.5
0
CIRCLE
8
TERMINAL
10
338.1429
20
125
30
0
40
1.5
0
CIRCLE
8
TERMINAL
10
345.8571
20
125
30
0
40
1.5
0
CIRCLE
8
TERMINAL
10
353.5714
20
125
30
0
40
1.5
0
CIRCLE
8
TERMINAL
10
361.2857
20
125
30
0
40
1.5
0
LINE
8
COMPONENT
10
375
20
125
30
0
11
429
21
125
31
0
0
LINE
8
COMPONENT
10
429
20
125
30
0
11
429
21
205
31
0
0
LINE
8
COMPONENT
10
429
20
205
30
0
11
375
21
205
31
0
0
LINE
8
COMPONENT
10
375
20
205
30
0
11
375
21
125
31
0
0
TEXT
8
TAG
10
378
20
165
30
0
40
12
1
QF-M5
0
TEXT
8
TEXT
10
378
20
135
30
0
40
4
1
Three-pole miniature circuit breaker 16 A
0
CIRCLE
8
TERMINAL
10
382.7143
20
125
30
0
40
1.5
0
CIRCLE
8
TERMINAL
10
390.4286
20
125
30
0
40
1.5
0
CIRCLE
8
TERMINAL
10
398.1429
20
125
30
0
40
1.5
0
CIRCLE
8
TERMINAL
10
405.8571
20
125
30
0
40
1.5
0
CIRCLE
8
TERMINAL
10
413.5714
20
125
30
0
40
1.5
0
CIRCLE
8
TERMINAL
10
421.2857
20
125
30
0
40
1.5
0
LINE
8
COMPONENT
10
435
20
125
30
0
11
489
21
125
31
0
0
LINE
8
COMPONENT
10
489
20
125
30
0
11
489
21
205
31
0
0
LINE
8
COMPONENT
10
489
20
205
30
0
11
435
21
205
31
0
0
LINE
8
COMPONENT
10
435
20
205
30
0
11
435
21
125
31
0
0
TEXT
8
TAG
10
438
20
165
30
0
40
12
1
QF-M6
0
TEXT
8
TEXT
10
438
20
135
30
0
40
4
1
Three-pole miniature circuit breaker 16 A
0
CIRCLE
8
TERMINAL
10
442.7143
20
125
30
0
40
1.5
0
CIRCLE
8
TERMINAL
10
450.4286
20
125
30
0
40
1.5
0
CIRCLE
8
TERMINAL
10
458.1429
20
125
30
0
40
1.5
0
CIRCLE
8
TERMINAL
10
465.8571
20
125
30
0
40
1.5
0
CIRCLE
8
TERMINAL
10
473.5714
20
125
30
0
40
1.5
0
CIRCLE
8
TERMINAL
10
481.2857
20
125
30
0
40
1.5
0
LINE
8
COMPONENT
10
495
20
125
30
0
11
540
21
125
31
0
0
LINE
8
COMPONENT
10
540
20
125
30
0
11
540
21
210
31
0
0
LINE
8
COMPONENT
10
540
20
210
30
0
11
495
21
210
31
0
0
LINE
8
COMPONENT
10
495
20
210
30
0
11
495
21
125
31
0
0
TEXT
8
TAG
10
498
20
167.5
30
0
40
12
1
KM1
0
TEXT
8
TEXT
10
498
20
135
30
0
40
4
1
Contactor for 15 kW motor starter
0
CIRCLE
8
TERMINAL
10
500
20
125
30
0
40
1.5
0
CIRCLE
8
TERMINAL
10
505
20
125
30
0
40
1.5
0
CIRCLE
8
TERMINAL
10
510
20
125
30
0
40
1.5
0
CIRCLE
8
TERMINAL
10
515
20
125
30
0
40
1.5
0
CIRCLE
8
TERMINAL
10
520
20
125
30
0
40
1.5
0
CIRCLE
8
TERMINAL
10
525
20
125
30
0
40
1.5
0
CIRCLE
8
TERMINAL
10
530
20
125
30
0
40
1.5
0
CIRCLE
8
TERMINAL
10
535
20
125
30
0
40
1.5
0
LINE
8
COMPONENT
10
545
20
125
30
0
11
590
21
125
31
0
0
LINE
8
COMPONENT
10
590
20
125
30
0
11
590
21
210
31
0
0
LINE
8
COMPONENT
10
590
20
210
30
0
11
545
21
210
31
0
0
LINE
8
COMPONENT
10
545
20
210
30
0
11
545
21
125
31
0
0
TEXT
8
TAG
10
548
20
167.5
30
0
40
12
1
KM2
0
TEXT
8
TEXT
10
548
20
135
30
0
40
4
1
Contactor for 15 kW motor starter
0
CIRCLE
8
TERMINAL
10
550
20
125
30
0
40
1.5
0
CIRCLE
8
TERMINAL
10
555
20
125
30
0
40
1.5
0
CIRCLE
8
TERMINAL
10
560
20
125
30
0
40
1.5
0
CIRCLE
8
TERMINAL
10
565
20
125
30
0
40
1.5
0
CIRCLE
8
TERMINAL
10
570
20
125
30
0
40
1.5
0
CIRCLE
8
TERMINAL
10
575
20
125
30
0
40
1.5
0
CIRCLE
8
TERMINAL
10
580
20
125
30
0
40
1.5
0
CIRCLE
8
TERMINAL
10
585
20
125
30
0
40
1.5
0
LINE
8
COMPONENT
10
595
20
125
30
0
11
640
21
125
31
0
0
LINE
8
COMPONENT
10
640
20
125
30
0
11
640
21
210
31
0
0
LINE
8
COMPONENT
10
640
20
210
30
0
11
595
21
210
31
0
0
LINE
8
COMPONENT
10
595
20
210
30
0
11
595
21
125
31
0
0
TEXT
8
TAG
10
598
20
167.5
30
0
40
12
1
KM3
0
TEXT
8
TEXT
10
598
20
135
30
0
40
4
1
Contactor for 15 kW motor starter
0
CIRCLE
8
TERMINAL
10
600
20
125
30
0
40
1.5
0
CIRCLE
8
TERMINAL
10
605
20
125
30
0
40
1.5
0
CIRCLE
8
TERMINAL
10
610
20
125
30
0
40
1.5
0
CIRCLE
8
TERMINAL
10
615
20
125
30
0
40
1.5
0
CIRCLE
8
TERMINAL
10
620
20
125
30
0
40
1.5
0
CIRCLE
8
TERMINAL
10
625
20
125
30
0
40
1.5
0
CIRCLE
8
TERMINAL
10
630
20
125
30
0
40
1.5
0
CIRCLE
8
TERMINAL
10
635
20
125
30
0
40
1.5
0
LINE
8
COMPONENT
10
140
20
305
30
0
11
185
21
305
31
0
0
LINE
8
COMPONENT
10
185
20
305
30
0
11
185
21
390
31
0
0
LINE
8
COMPONENT
10
185
20
390
30
0
11
140
21
390
31
0
0
LINE
8
COMPONENT
10
140
20
390
30
0
11
140
21
305
31
0
0
TEXT
8
TAG
10
143
20
347.5
30
0
40
12
1
KM4
0
TEXT
8
TEXT
10
143
20
315
30
0
40
4
1
Contactor for 15 kW motor starter
0
CIRCLE
8
TERMINAL
10
145
20
305
30
0
40
1.5
0
CIRCLE
8
TERMINAL
10
150
20
305
30
0
40
1.5
0
CIRCLE
8
TERMINAL
10
155
20
305
30
0
40
1.5
0
CIRCLE
8
TERMINAL
10
160
20
305
30
0
40
1.5
0
CIRCLE
8
TERMINAL
10
165
20
305
30
0
40
1.5
0
CIRCLE
8
TERMINAL
10
170
20
305
30
0
40
1.5
0
CIRCLE
8
TERMINAL
10
175
20
305
30
0
40
1.5
0
CIRCLE
8
TERMINAL
10
180
20
305
30
0
40
1.5
0
LINE
8
COMPONENT
10
190
20
305
30
0
11
235
21
305
31
0
0
LINE
8
COMPONENT
10
235
20
305
30
0
11
235
21
390
31
0
0
LINE
8
COMPONENT
10
235
20
390
30
0
11
190
21
390
31
0
0
LINE
8
COMPONENT
10
190
20
390
30
0
11
190
21
305
31
0
0
TEXT
8
TAG
10
193
20
347.5
30
0
40
12
1
KM5
0
TEXT
8
TEXT
10
193
20
315
30
0
40
4
1
Contactor for 15 kW motor starter
0
CIRCLE
8
TERMINAL
10
195
20
305
30
0
40
1.5
0
CIRCLE
8
TERMINAL
10
200
20
305
30
0
40
1.5
0
CIRCLE
8
TERMINAL
10
205
20
305
30
0
40
1.5
0
CIRCLE
8
TERMINAL
10
210
20
305
30
0
40
1.5
0
CIRCLE
8
TERMINAL
10
215
20
305
30
0
40
1.5
0
CIRCLE
8
TERMINAL
10
220
20
305
30
0
40
1.5
0
CIRCLE
8
TERMINAL
10
225
20
305
30
0
40
1.5
0
CIRCLE
8
TERMINAL
10
230
20
305
30
0
40
1.5
0
LINE
8
COMPONENT
10
245
20
305
30
0
11
290
21
305
31
0
0
LINE
8
COMPONENT
10
290
20
305
30
0
11
290
21
390
31
0
0
LINE
8
COMPONENT
10
290
20
390
30
0
11
245
21
390
31
0
0
LINE
8
COMPONENT
10
245
20
390
30
0
11
245
21
305
31
0
0
TEXT
8
TAG
10
248
20
347.5
30
0
40
12
1
KM6
0
TEXT
8
TEXT
10
248
20
315
30
0
40
4
1
Contactor for 15 kW motor starter
0
CIRCLE
8
TERMINAL
10
250
20
305
30
0
40
1.5
0
CIRCLE
8
TERMINAL
10
255
20
305
30
0
40
1.5
0
CIRCLE
8
TERMINAL
10
260
20
305
30
0
40
1.5
0
CIRCLE
8
TERMINAL
10
265
20
305
30
0
40
1.5
0
CIRCLE
8
TERMINAL
10
270
20
305
30
0
40
1.5
0
CIRCLE
8
TERMINAL
10
275
20
305
30
0
40
1.5
0
CIRCLE
8
TERMINAL
10
280
20
305
30
0
40
1.5
0
CIRCLE
8
TERMINAL
10
285
20
305
30
0
40
1.5
0
LINE
8
COMPONENT
10
290
20
305
30
0
11
335
21
305
31
0
0
LINE
8
COMPONENT
10
335
20
305
30
0
11
335
21
380
31
0
0
LINE
8
COMPONENT
10
335
20
380
30
0
11
290
21
380
31
0
0
LINE
8
COMPONENT
10
290
20
380
30
0
11
290
21
305
31
0
0
TEXT
8
TAG
10
293
20
342.5
30
0
40
12
1
FR1
0
TEXT
8
TEXT
10
293
20
315
30
0
40
4
1
Thermal overload relay for 15 kW motor
0
CIRCLE
8
TERMINAL
10
295
20
305
30
0
40
1.5
0
CIRCLE
8
TERMINAL
10
300
20
305
30
0
40
1.5
0
CIRCLE
8
TERMINAL
10
305
20
305
30
0
40
1.5
0
CIRCLE
8
TERMINAL
10
310
20
305
30
0
40
1.5
0
CIRCLE
8
TERMINAL
10
315
20
305
30
0
40
1.5
0
CIRCLE
8
TERMINAL
10
320
20
305
30
0
40
1.5
0
CIRCLE
8
TERMINAL
10
325
20
305
30
0
40
1.5
0
CIRCLE
8
TERMINAL
10
330
20
305
30
0
40
1.5
0
LINE
8
COMPONENT
10
340
20
305
30
0
11
385
21
305
31
0
0
LINE
8
COMPONENT
10
385
20
305
30
0
11
385
21
380
31
0
0
LINE
8
COMPONENT
10
385
20
380
30
0
11
340
21
380
31
0
0
LINE
8
COMPONENT
10
340
20
380
30
0
11
340
21
305
31
0
0
TEXT
8
TAG
10
343
20
342.5
30
0
40
12
1
FR2
0
TEXT
8
TEXT
10
343
20
315
30
0
40
4
1
Thermal overload relay for 15 kW motor
0
CIRCLE
8
TERMINAL
10
345
20
305
30
0
40
1.5
0
CIRCLE
8
TERMINAL
10
350
20
305
30
0
40
1.5
0
CIRCLE
8
TERMINAL
10
355
20
305
30
0
40
1.5
0
CIRCLE
8
TERMINAL
10
360
20
305
30
0
40
1.5
0
CIRCLE
8
TERMINAL
10
365
20
305
30
0
40
1.5
0
CIRCLE
8
TERMINAL
10
370
20
305
30
0
40
1.5
0
CIRCLE
8
TERMINAL
10
375
20
305
30
0
40
1.5
0
CIRCLE
8
TERMINAL
10
380
20
305
30
0
40
1.5
0
LINE
8
COMPONENT
10
390
20
305
30
0
11
435
21
305
31
0
0
LINE
8
COMPONENT
10
435
20
305
30
0
11
435
21
380
31
0
0
LINE
8
COMPONENT
10
435
20
380
30
0
11
390
21
380
31
0
0
LINE
8
COMPONENT
10
390
20
380
30
0
11
390
21
305
31
0
0
TEXT
8
TAG
10
393
20
342.5
30
0
40
12
1
FR3
0
TEXT
8
TEXT
10
393
20
315
30
0
40
4
1
Thermal overload relay for 15 kW motor
0
CIRCLE
8
TERMINAL
10
395
20
305
30
0
40
1.5
0
CIRCLE
8
TERMINAL
10
400
20
305
30
0
40
1.5
0
CIRCLE
8
TERMINAL
10
405
20
305
30
0
40
1.5
0
CIRCLE
8
TERMINAL
10
410
20
305
30
0
40
1.5
0
CIRCLE
8
TERMINAL
10
415
20
305
30
0
40
1.5
0
CIRCLE
8
TERMINAL
10
420
20
305
30
0
40
1.5
0
CIRCLE
8
TERMINAL
10
425
20
305
30
0
40
1.5
0
CIRCLE
8
TERMINAL
10
430
20
305
30
0
40
1.5
0
LINE
8
COMPONENT
10
440
20
305
30
0
11
485
21
305
31
0
0
LINE
8
COMPONENT
10
485
20
305
30
0
11
485
21
380
31
0
0
LINE
8
COMPONENT
10
485
20
380
30
0
11
440
21
380
31
0
0
LINE
8
COMPONENT
10
440
20
380
30
0
11
440
21
305
31
0
0
TEXT
8
TAG
10
443
20
342.5
30
0
40
12
1
FR4
0
TEXT
8
TEXT
10
443
20
315
30
0
40
4
1
Thermal overload relay for 15 kW motor
0
CIRCLE
8
TERMINAL
10
445
20
305
30
0
40
1.5
0
CIRCLE
8
TERMINAL
10
450
20
305
30
0
40
1.5
0
CIRCLE
8
TERMINAL
10
455
20
305
30
0
40
1.5
0
CIRCLE
8
TERMINAL
10
460
20
305
30
0
40
1.5
0
CIRCLE
8
TERMINAL
10
465
20
305
30
0
40
1.5
0
CIRCLE
8
TERMINAL
10
470
20
305
30
0
40
1.5
0
CIRCLE
8
TERMINAL
10
475
20
305
30
0
40
1.5
0
CIRCLE
8
TERMINAL
10
480
20
305
30
0
40
1.5
0
LINE
8
COMPONENT
10
490
20
305
30
0
11
535
21
305
31
0
0
LINE
8
COMPONENT
10
535
20
305
30
0
11
535
21
380
31
0
0
LINE
8
COMPONENT
10
535
20
380
30
0
11
490
21
380
31
0
0
LINE
8
COMPONENT
10
490
20
380
30
0
11
490
21
305
31
0
0
TEXT
8
TAG
10
493
20
342.5
30
0
40
12
1
FR5
0
TEXT
8
TEXT
10
493
20
315
30
0
40
4
1
Thermal overload relay for 15 kW motor
0
CIRCLE
8
TERMINAL
10
495
20
305
30
0
40
1.5
0
CIRCLE
8
TERMINAL
10
500
20
305
30
0
40
1.5
0
CIRCLE
8
TERMINAL
10
505
20
305
30
0
40
1.5
0
CIRCLE
8
TERMINAL
10
510
20
305
30
0
40
1.5
0
CIRCLE
8
TERMINAL
10
515
20
305
30
0
40
1.5
0
CIRCLE
8
TERMINAL
10
520
20
305
30
0
40
1.5
0
CIRCLE
8
TERMINAL
10
525
20
305
30
0
40
1.5
0
CIRCLE
8
TERMINAL
10
530
20
305
30
0
40
1.5
0
LINE
8
COMPONENT
10
540
20
305
30
0
11
585
21
305
31
0
0
LINE
8
COMPONENT
10
585
20
305
30
0
11
585
21
380
31
0
0
LINE
8
COMPONENT
10
585
20
380
30
0
11
540
21
380
31
0
0
LINE
8
COMPONENT
10
540
20
380
30
0
11
540
21
305
31
0
0
TEXT
8
TAG
10
543
20
342.5
30
0
40
12
1
FR6
0
TEXT
8
TEXT
10
543
20
315
30
0
40
4
1
Thermal overload relay for 15 kW motor
0
CIRCLE
8
TERMINAL
10
545
20
305
30
0
40
1.5
0
CIRCLE
8
TERMINAL
10
550
20
305
30
0
40
1.5
0
CIRCLE
8
TERMINAL
10
555
20
305
30
0
40
1.5
0
CIRCLE
8
TERMINAL
10
560
20
305
30
0
40
1.5
0
CIRCLE
8
TERMINAL
10
565
20
305
30
0
40
1.5
0
CIRCLE
8
TERMINAL
10
570
20
305
30
0
40
1.5
0
CIRCLE
8
TERMINAL
10
575
20
305
30
0
40
1.5
0
CIRCLE
8
TERMINAL
10
580
20
305
30
0
40
1.5
0
LINE
8
COMPONENT
10
140
20
485
30
0
11
146
21
485
31
0
0
LINE
8
COMPONENT
10
146
20
485
30
0
11
146
21
540
31
0
0
LINE
8
COMPONENT
10
146
20
540
30
0
11
140
21
540
31
0
0
LINE
8
COMPONENT
10
140
20
540
30
0
11
140
21
485
31
0
0
TEXT
8
TAG
10
143
20
512.5
30
0
40
12
1
X1
0
TEXT
8
TEXT
10
143
20
495
30
0
40
4
1
Feed-through terminal 4 mm2
0
CIRCLE
8
TERMINAL
10
143
20
485
30
0
40
1.5
0
LINE
8
COMPONENT
10
250
20
485
30
0
11
256
21
485
31
0
0
LINE
8
COMPONENT
10
256
20
485
30
0
11
256
21
540
31
0
0
LINE
8
COMPONENT
10
256
20
540
30
0
11
250
21
540
31
0
0
LINE
8
COMPONENT
10
250
20
540
30
0
11
250
21
485
31
0
0
TEXT
8
TAG
10
253
20
512.5
30
0
40
12
1
X2
0
TEXT
8
TEXT
10
253
20
495
30
0
40
4
1
Feed-through terminal 4 mm2
0
CIRCLE
8
TERMINAL
10
253
20
485
30
0
40
1.5
0
LINE
8
COMPONENT
10
260
20
485
30
0
11
266
21
485
31
0
0
LINE
8
COMPONENT
10
266
20
485
30
0
11
266
21
540
31
0
0
LINE
8
COMPONENT
10
266
20
540
30
0
11
260
21
540
31
0
0
LINE
8
COMPONENT
10
260
20
540
30
0
11
260
21
485
31
0
0
TEXT
8
TAG
10
263
20
512.5
30
0
40
12
1
X3
0
TEXT
8
TEXT
10
263
20
495
30
0
40
4
1
Feed-through terminal 4 mm2
0
CIRCLE
8
TERMINAL
10
263
20
485
30
0
40
1.5
0
LINE
8
COMPONENT
10
270
20
485
30
0
11
276
21
485
31
0
0
LINE
8
COMPONENT
10
276
20
485
30
0
11
276
21
540
31
0
0
LINE
8
COMPONENT
10
276
20
540
30
0
11
270
21
540
31
0
0
LINE
8
COMPONENT
10
270
20
540
30
0
11
270
21
485
31
0
0
TEXT
8
TAG
10
273
20
512.5
30
0
40
12
1
X4
0
TEXT
8
TEXT
10
273
20
495
30
0
40
4
1
Feed-through terminal 4 mm2
0
CIRCLE
8
TERMINAL
10
273
20
485
30
0
40
1.5
0
LINE
8
COMPONENT
10
285
20
485
30
0
11
291
21
485
31
0
0
LINE
8
COMPONENT
10
291
20
485
30
0
11
291
21
540
31
0
0
LINE
8
COMPONENT
10
291
20
540
30
0
11
285
21
540
31
0
0
LINE
8
COMPONENT
10
285
20
540
30
0
11
285
21
485
31
0
0
TEXT
8
TAG
10
288
20
512.5
30
0
40
12
1
X5
0
TEXT
8
TEXT
10
288
20
495
30
0
40
4
1
Feed-through terminal 4 mm2
0
CIRCLE
8
TERMINAL
10
288
20
485
30
0
40
1.5
0
LINE
8
COMPONENT
10
295
20
485
30
0
11
301
21
485
31
0
0
LINE
8
COMPONENT
10
301
20
485
30
0
11
301
21
540
31
0
0
LINE
8
COMPONENT
10
301
20
540
30
0
11
295
21
540
31
0
0
LINE
8
COMPONENT
10
295
20
540
30
0
11
295
21
485
31
0
0
TEXT
8
TAG
10
298
20
512.5
30
0
40
12
1
X6
0
TEXT
8
TEXT
10
298
20
495
30
0
40
4
1
Feed-through terminal 4 mm2
0
CIRCLE
8
TERMINAL
10
298
20
485
30
0
40
1.5
0
LINE
8
COMPONENT
10
305
20
485
30
0
11
311
21
485
31
0
0
LINE
8
COMPONENT
10
311
20
485
30
0
11
311
21
540
31
0
0
LINE
8
COMPONENT
10
311
20
540
30
0
11
305
21
540
31
0
0
LINE
8
COMPONENT
10
305
20
540
30
0
11
305
21
485
31
0
0
TEXT
8
TAG
10
308
20
512.5
30
0
40
12
1
X7
0
TEXT
8
TEXT
10
308
20
495
30
0
40
4
1
Feed-through terminal 4 mm2
0
CIRCLE
8
TERMINAL
10
308
20
485
30
0
40
1.5
0
LINE
8
COMPONENT
10
315
20
485
30
0
11
321
21
485
31
0
0
LINE
8
COMPONENT
10
321
20
485
30
0
11
321
21
540
31
0
0
LINE
8
COMPONENT
10
321
20
540
30
0
11
315
21
540
31
0
0
LINE
8
COMPONENT
10
315
20
540
30
0
11
315
21
485
31
0
0
TEXT
8
TAG
10
318
20
512.5
30
0
40
12
1
X8
0
TEXT
8
TEXT
10
318
20
495
30
0
40
4
1
Feed-through terminal 4 mm2
0
CIRCLE
8
TERMINAL
10
318
20
485
30
0
40
1.5
0
LINE
8
COMPONENT
10
325
20
485
30
0
11
331
21
485
31
0
0
LINE
8
COMPONENT
10
331
20
485
30
0
11
331
21
540
31
0
0
LINE
8
COMPONENT
10
331
20
540
30
0
11
325
21
540
31
0
0
LINE
8
COMPONENT
10
325
20
540
30
0
11
325
21
485
31
0
0
TEXT
8
TAG
10
328
20
512.5
30
0
40
12
1
X9
0
TEXT
8
TEXT
10
328
20
495
30
0
40
4
1
Feed-through terminal 4 mm2
0
CIRCLE
8
TERMINAL
10
328
20
485
30
0
40
1.5
0
LINE
8
COMPONENT
10
150
20
485
30
0
11
156
21
485
31
0
0
LINE
8
COMPONENT
10
156
20
485
30
0
11
156
21
540
31
0
0
LINE
8
COMPONENT
10
156
20
540
30
0
11
150
21
540
31
0
0
LINE
8
COMPONENT
10
150
20
540
30
0
11
150
21
485
31
0
0
TEXT
8
TAG
10
153
20
512.5
30
0
40
12
1
X10
0
TEXT
8
TEXT
10
153
20
495
30
0
40
4
1
Feed-through terminal 4 mm2
0
CIRCLE
8
TERMINAL
10
153
20
485
30
0
40
1.5
0
LINE
8
COMPONENT
10
160
20
485
30
0
11
166
21
485
31
0
0
LINE
8
COMPONENT
10
166
20
485
30
0
11
166
21
540
31
0
0
LINE
8
COMPONENT
10
166
20
540
30
0
11
160
21
540
31
0
0
LINE
8
COMPONENT
10
160
20
540
30
0
11
160
21
485
31
0
0
TEXT
8
TAG
10
163
20
512.5
30
0
40
12
1
X11
0
TEXT
8
TEXT
10
163
20
495
30
0
40
4
1
Feed-through terminal 4 mm2
0
CIRCLE
8
TERMINAL
10
163
20
485
30
0
40
1.5
0
LINE
8
COMPONENT
10
175
20
485
30
0
11
181
21
485
31
0
0
LINE
8
COMPONENT
10
181
20
485
30
0
11
181
21
540
31
0
0
LINE
8
COMPONENT
10
181
20
540
30
0
11
175
21
540
31
0
0
LINE
8
COMPONENT
10
175
20
540
30
0
11
175
21
485
31
0
0
TEXT
8
TAG
10
178
20
512.5
30
0
40
12
1
X12
0
TEXT
8
TEXT
10
178
20
495
30
0
40
4
1
Feed-through terminal 4 mm2
0
CIRCLE
8
TERMINAL
10
178
20
485
30
0
40
1.5
0
LINE
8
COMPONENT
10
185
20
485
30
0
11
191
21
485
31
0
0
LINE
8
COMPONENT
10
191
20
485
30
0
11
191
21
540
31
0
0
LINE
8
COMPONENT
10
191
20
540
30
0
11
185
21
540
31
0
0
LINE
8
COMPONENT
10
185
20
540
30
0
11
185
21
485
31
0
0
TEXT
8
TAG
10
188
20
512.5
30
0
40
12
1
X13
0
TEXT
8
TEXT
10
188
20
495
30
0
40
4
1
Feed-through terminal 4 mm2
0
CIRCLE
8
TERMINAL
10
188
20
485
30
0
40
1.5
0
LINE
8
COMPONENT
10
195
20
485
30
0
11
201
21
485
31
0
0
LINE
8
COMPONENT
10
201
20
485
30
0
11
201
21
540
31
0
0
LINE
8
COMPONENT
10
201
20
540
30
0
11
195
21
540
31
0
0
LINE
8
COMPONENT
10
195
20
540
30
0
11
195
21
485
31
0
0
TEXT
8
TAG
10
198
20
512.5
30
0
40
12
1
X14
0
TEXT
8
TEXT
10
198
20
495
30
0
40
4
1
Feed-through terminal 4 mm2
0
CIRCLE
8
TERMINAL
10
198
20
485
30
0
40
1.5
0
LINE
8
COMPONENT
10
205
20
485
30
0
11
211
21
485
31
0
0
LINE
8
COMPONENT
10
211
20
485
30
0
11
211
21
540
31
0
0
LINE
8
COMPONENT
10
211
20
540
30
0
11
205
21
540
31
0
0
LINE
8
COMPONENT
10
205
20
540
30
0
11
205
21
485
31
0
0
TEXT
8
TAG
10
208
20
512.5
30
0
40
12
1
X15
0
TEXT
8
TEXT
10
208
20
495
30
0
40
4
1
Feed-through terminal 4 mm2
0
CIRCLE
8
TERMINAL
10
208
20
485
30
0
40
1.5
0
LINE
8
COMPONENT
10
215
20
485
30
0
11
221
21
485
31
0
0
LINE
8
COMPONENT
10
221
20
485
30
0
11
221
21
540
31
0
0
LINE
8
COMPONENT
10
221
20
540
30
0
11
215
21
540
31
0
0
LINE
8
COMPONENT
10
215
20
540
30
0
11
215
21
485
31
0
0
TEXT
8
TAG
10
218
20
512.5
30
0
40
12
1
X16
0
TEXT
8
TEXT
10
218
20
495
30
0
40
4
1
Feed-through terminal 4 mm2
0
CIRCLE
8
TERMINAL
10
218
20
485
30
0
40
1.5
0
LINE
8
COMPONENT
10
230
20
485
30
0
11
236
21
485
31
0
0
LINE
8
COMPONENT
10
236
20
485
30
0
11
236
21
540
31
0
0
LINE
8
COMPONENT
10
236
20
540
30
0
11
230
21
540
31
0
0
LINE
8
COMPONENT
10
230
20
540
30
0
11
230
21
485
31
0
0
TEXT
8
TAG
10
233
20
512.5
30
0
40
12
1
X17
0
TEXT
8
TEXT
10
233
20
495
30
0
40
4
1
Feed-through terminal 4 mm2
0
CIRCLE
8
TERMINAL
10
233
20
485
30
0
40
1.5
0
LINE
8
COMPONENT
10
240
20
485
30
0
11
246
21
485
31
0
0
LINE
8
COMPONENT
10
246
20
485
30
0
11
246
21
540
31
0
0
LINE
8
COMPONENT
10
246
20
540
30
0
11
240
21
540
31
0
0
LINE
8
COMPONENT
10
240
20
540
30
0
11
240
21
485
31
0
0
TEXT
8
TAG
10
243
20
512.5
30
0
40
12
1
X18
0
TEXT
8
TEXT
10
243
20
495
30
0
40
4
1
Feed-through terminal 4 mm2
0
CIRCLE
8
TERMINAL
10
243
20
485
30
0
40
1.5
0
LINE
8
WIRE
10
187.5
20
1830
30
0
11
167
21
165
31
0
0
TEXT
8
WIRE_LABEL
10
177.25
20
997.5
30
0
40
4
1
FEEDER-1
0
LINE
8
WIRE
10
167
20
165
30
0
11
517.5
21
167.5
31
0
0
LINE
8
WIRE
10
517.5
20
167.5
30
0
11
312.5
21
342.5
31
0
0
LINE
8
WIRE
10
312.5
20
342.5
30
0
11
143
21
512.5
31
0
0
LINE
8
WIRE
10
187.5
20
1830
30
0
11
227
21
165
31
0
0
TEXT
8
WIRE_LABEL
10
207.25
20
997.5
30
0
40
4
1
FEEDER-2
0
LINE
8
WIRE
10
227
20
165
30
0
11
567.5
21
167.5
31
0
0
LINE
8
WIRE
10
567.5
20
167.5
30
0
11
362.5
21
342.5
31
0
0
LINE
8
WIRE
10
362.5
20
342.5
30
0
11
253
21
512.5
31
0
0
LINE
8
WIRE
10
187.5
20
1830
30
0
11
287
21
165
31
0
0
TEXT
8
WIRE_LABEL
10
237.25
20
997.5
30
0
40
4
1
FEEDER-3
0
LINE
8
WIRE
10
287
20
165
30
0
11
617.5
21
167.5
31
0
0
LINE
8
WIRE
10
617.5
20
167.5
30
0
11
412.5
21
342.5
31
0
0
LINE
8
WIRE
10
412.5
20
342.5
30
0
11
263
21
512.5
31
0
0
LINE
8
WIRE
10
187.5
20
1830
30
0
11
342
21
165
31
0
0
TEXT
8
WIRE_LABEL
10
264.75
20
997.5
30
0
40
4
1
FEEDER-4
0
LINE
8
WIRE
10
342
20
165
30
0
11
162.5
21
347.5
31
0
0
LINE
8
WIRE
10
162.5
20
347.5
30
0
11
462.5
21
342.5
31
0
0
LINE
8
WIRE
10
462.5
20
342.5
30
0
11
273
21
512.5
31
0
0
LINE
8
WIRE
10
187.5
20
1830
30
0
11
402
21
165
31
0
0
TEXT
8
WIRE_LABEL
10
294.75
20
997.5
30
0
40
4
1
FEEDER-5
0
LINE
8
WIRE
10
402
20
165
30
0
11
212.5
21
347.5
31
0
0
LINE
8
WIRE
10
212.5
20
347.5
30
0
11
512.5
21
342.5
31
0
0
LINE
8
WIRE
10
512.5
20
342.5
30
0
11
288
21
512.5
31
0
0
LINE
8
WIRE
10
187.5
20
1830
30
0
11
462
21
165
31
0
0
TEXT
8
WIRE_LABEL
10
324.75
20
997.5
30
0
40
4
1
FEEDER-6
0
LINE
8
WIRE
10
462
20
165
30
0
11
267.5
21
347.5
31
0
0
LINE
8
WIRE
10
267.5
20
347.5
30
0
11
562.5
21
342.5
31
0
0
LINE
8
WIRE
10
562.5
20
342.5
30
0
11
298
21
512.5
31
0
0
ENDSEC
0
EOF
