0
SECTION
2
HEADER
9
$ACADVER
1
AC1009
9
$INSUNITS
70
4
0
ENDSEC
0
SECTION
2
ENTITIES
999
CNB Electrical Lab | MCC 6 motor evidence | A
0
LINE
8
ENCLOSURE
10
0
20
0
30
0
11
800
21
0
31
0
0
LINE
8
ENCLOSURE
10
800
20
0
30
0
11
800
21
2000
31
0
0
LINE
8
ENCLOSURE
10
800
20
2000
30
0
11
0
21
2000
31
0
0
LINE
8
ENCLOSURE
10
0
20
2000
30
0
11
0
21
0
31
0
0
LINE
8
MOUNTING_PLATE
10
50
20
50
30
0
11
750
21
50
31
0
0
LINE
8
MOUNTING_PLATE
10
750
20
50
30
0
11
750
21
1950
31
0
0
LINE
8
MOUNTING_PLATE
10
750
20
1950
30
0
11
50
21
1950
31
0
0
LINE
8
MOUNTING_PLATE
10
50
20
1950
30
0
11
50
21
50
31
0
0
TEXT
8
TEXT
10
20
20
1975
30
0
40
12
1
Control cabinet
0
LINE
8
DIN_RAIL
10
90
20
1780
30
0
11
710
21
1780
31
0
0
LINE
8
DIN_RAIL
10
710
20
1780
30
0
11
710
21
1787.5
31
0
0
LINE
8
DIN_RAIL
10
710
20
1787.5
30
0
11
90
21
1787.5
31
0
0
LINE
8
DIN_RAIL
10
90
20
1787.5
30
0
11
90
21
1780
31
0
0
TEXT
8
TEXT
10
92
20
1791.5
30
0
40
6
1
rail-top
0
LINE
8
DIN_RAIL
10
90
20
1360
30
0
11
710
21
1360
31
0
0
LINE
8
DIN_RAIL
10
710
20
1360
30
0
11
710
21
1367.5
31
0
0
LINE
8
DIN_RAIL
10
710
20
1367.5
30
0
11
90
21
1367.5
31
0
0
LINE
8
DIN_RAIL
10
90
20
1367.5
30
0
11
90
21
1360
31
0
0
TEXT
8
TEXT
10
92
20
1371.5
30
0
40
6
1
rail-mid
0
LINE
8
DIN_RAIL
10
90
20
950
30
0
11
710
21
950
31
0
0
LINE
8
DIN_RAIL
10
710
20
950
30
0
11
710
21
957.5
31
0
0
LINE
8
DIN_RAIL
10
710
20
957.5
30
0
11
90
21
957.5
31
0
0
LINE
8
DIN_RAIL
10
90
20
957.5
30
0
11
90
21
950
31
0
0
TEXT
8
TEXT
10
92
20
961.5
30
0
40
6
1
rail-low
0
LINE
8
DIN_RAIL
10
90
20
230
30
0
11
710
21
230
31
0
0
LINE
8
DIN_RAIL
10
710
20
230
30
0
11
710
21
237.5
31
0
0
LINE
8
DIN_RAIL
10
710
20
237.5
30
0
11
90
21
237.5
31
0
0
LINE
8
DIN_RAIL
10
90
20
237.5
30
0
11
90
21
230
31
0
0
TEXT
8
TEXT
10
92
20
241.5
30
0
40
6
1
rail-terminal
0
LINE
8
WIRE_DUCT
10
60
20
120
30
0
11
95
21
120
31
0
0
LINE
8
WIRE_DUCT
10
95
20
120
30
0
11
95
21
1900
31
0
0
LINE
8
WIRE_DUCT
10
95
20
1900
30
0
11
60
21
1900
31
0
0
LINE
8
WIRE_DUCT
10
60
20
1900
30
0
11
60
21
120
31
0
0
LINE
8
WIRE_DUCT
10
705
20
120
30
0
11
740
21
120
31
0
0
LINE
8
WIRE_DUCT
10
740
20
120
30
0
11
740
21
1900
31
0
0
LINE
8
WIRE_DUCT
10
740
20
1900
30
0
11
705
21
1900
31
0
0
LINE
8
WIRE_DUCT
10
705
20
1900
30
0
11
705
21
120
31
0
0
LINE
8
WIRE_DUCT
10
90
20
1660
30
0
11
710
21
1660
31
0
0
LINE
8
WIRE_DUCT
10
710
20
1660
30
0
11
710
21
1695
31
0
0
LINE
8
WIRE_DUCT
10
710
20
1695
30
0
11
90
21
1695
31
0
0
LINE
8
WIRE_DUCT
10
90
20
1695
30
0
11
90
21
1660
31
0
0
LINE
8
COMPONENT
10
110
20
1760
30
0
11
200
21
1760
31
0
0
LINE
8
COMPONENT
10
200
20
1760
30
0
11
200
21
1880
31
0
0
LINE
8
COMPONENT
10
200
20
1880
30
0
11
110
21
1880
31
0
0
LINE
8
COMPONENT
10
110
20
1880
30
0
11
110
21
1760
31
0
0
TEXT
8
TAG
10
113
20
1820
30
0
40
12
1
-QF1
0
TEXT
8
TEXT
10
113
20
1770
30
0
40
4
1
MCCB 250A
0
CIRCLE
8
TERMINAL
10
140
20
1760
30
0
40
1.5
0
CIRCLE
8
TERMINAL
10
170
20
1760
30
0
40
1.5
0
LINE
8
COMPONENT
10
120
20
1340
30
0
11
170
21
1340
31
0
0
LINE
8
COMPONENT
10
170
20
1340
30
0
11
170
21
1420
31
0
0
LINE
8
COMPONENT
10
170
20
1420
30
0
11
120
21
1420
31
0
0
LINE
8
COMPONENT
10
120
20
1420
30
0
11
120
21
1340
31
0
0
TEXT
8
TAG
10
123
20
1380
30
0
40
12
1
-Q2
0
TEXT
8
TEXT
10
123
20
1350
30
0
40
4
1
MCB 1
0
CIRCLE
8
TERMINAL
10
136.6667
20
1340
30
0
40
1.5
0
CIRCLE
8
TERMINAL
10
153.3333
20
1340
30
0
40
1.5
0
LINE
8
COMPONENT
10
185
20
1340
30
0
11
255
21
1340
31
0
0
LINE
8
COMPONENT
10
255
20
1340
30
0
11
255
21
1430
31
0
0
LINE
8
COMPONENT
10
255
20
1430
30
0
11
185
21
1430
31
0
0
LINE
8
COMPONENT
10
185
20
1430
30
0
11
185
21
1340
31
0
0
TEXT
8
TAG
10
188
20
1385
30
0
40
12
1
-K1
0
TEXT
8
TEXT
10
188
20
1350
30
0
40
4
1
Contactor 1
0
CIRCLE
8
TERMINAL
10
208.3333
20
1340
30
0
40
1.5
0
CIRCLE
8
TERMINAL
10
231.6667
20
1340
30
0
40
1.5
0
LINE
8
COMPONENT
10
270
20
1340
30
0
11
330
21
1340
31
0
0
LINE
8
COMPONENT
10
330
20
1340
30
0
11
330
21
1420
31
0
0
LINE
8
COMPONENT
10
330
20
1420
30
0
11
270
21
1420
31
0
0
LINE
8
COMPONENT
10
270
20
1420
30
0
11
270
21
1340
31
0
0
TEXT
8
TAG
10
273
20
1380
30
0
40
12
1
-F1
0
TEXT
8
TEXT
10
273
20
1350
30
0
40
4
1
Overload 1
0
CIRCLE
8
TERMINAL
10
290
20
1340
30
0
40
1.5
0
CIRCLE
8
TERMINAL
10
310
20
1340
30
0
40
1.5
0
LINE
8
COMPONENT
10
330
20
1340
30
0
11
380
21
1340
31
0
0
LINE
8
COMPONENT
10
380
20
1340
30
0
11
380
21
1420
31
0
0
LINE
8
COMPONENT
10
380
20
1420
30
0
11
330
21
1420
31
0
0
LINE
8
COMPONENT
10
330
20
1420
30
0
11
330
21
1340
31
0
0
TEXT
8
TAG
10
333
20
1380
30
0
40
12
1
-Q3
0
TEXT
8
TEXT
10
333
20
1350
30
0
40
4
1
MCB 2
0
CIRCLE
8
TERMINAL
10
346.6667
20
1340
30
0
40
1.5
0
CIRCLE
8
TERMINAL
10
363.3333
20
1340
30
0
40
1.5
0
LINE
8
COMPONENT
10
395
20
1340
30
0
11
465
21
1340
31
0
0
LINE
8
COMPONENT
10
465
20
1340
30
0
11
465
21
1430
31
0
0
LINE
8
COMPONENT
10
465
20
1430
30
0
11
395
21
1430
31
0
0
LINE
8
COMPONENT
10
395
20
1430
30
0
11
395
21
1340
31
0
0
TEXT
8
TAG
10
398
20
1385
30
0
40
12
1
-K2
0
TEXT
8
TEXT
10
398
20
1350
30
0
40
4
1
Contactor 2
0
CIRCLE
8
TERMINAL
10
418.3333
20
1340
30
0
40
1.5
0
CIRCLE
8
TERMINAL
10
441.6667
20
1340
30
0
40
1.5
0
LINE
8
COMPONENT
10
480
20
1340
30
0
11
540
21
1340
31
0
0
LINE
8
COMPONENT
10
540
20
1340
30
0
11
540
21
1420
31
0
0
LINE
8
COMPONENT
10
540
20
1420
30
0
11
480
21
1420
31
0
0
LINE
8
COMPONENT
10
480
20
1420
30
0
11
480
21
1340
31
0
0
TEXT
8
TAG
10
483
20
1380
30
0
40
12
1
-F2
0
TEXT
8
TEXT
10
483
20
1350
30
0
40
4
1
Overload 2
0
CIRCLE
8
TERMINAL
10
500
20
1340
30
0
40
1.5
0
CIRCLE
8
TERMINAL
10
520
20
1340
30
0
40
1.5
0
LINE
8
COMPONENT
10
540
20
1340
30
0
11
590
21
1340
31
0
0
LINE
8
COMPONENT
10
590
20
1340
30
0
11
590
21
1420
31
0
0
LINE
8
COMPONENT
10
590
20
1420
30
0
11
540
21
1420
31
0
0
LINE
8
COMPONENT
10
540
20
1420
30
0
11
540
21
1340
31
0
0
TEXT
8
TAG
10
543
20
1380
30
0
40
12
1
-Q4
0
TEXT
8
TEXT
10
543
20
1350
30
0
40
4
1
MCB 3
0
CIRCLE
8
TERMINAL
10
556.6667
20
1340
30
0
40
1.5
0
CIRCLE
8
TERMINAL
10
573.3333
20
1340
30
0
40
1.5
0
LINE
8
COMPONENT
10
605
20
1340
30
0
11
675
21
1340
31
0
0
LINE
8
COMPONENT
10
675
20
1340
30
0
11
675
21
1430
31
0
0
LINE
8
COMPONENT
10
675
20
1430
30
0
11
605
21
1430
31
0
0
LINE
8
COMPONENT
10
605
20
1430
30
0
11
605
21
1340
31
0
0
TEXT
8
TAG
10
608
20
1385
30
0
40
12
1
-K3
0
TEXT
8
TEXT
10
608
20
1350
30
0
40
4
1
Contactor 3
0
CIRCLE
8
TERMINAL
10
628.3333
20
1340
30
0
40
1.5
0
CIRCLE
8
TERMINAL
10
651.6667
20
1340
30
0
40
1.5
0
LINE
8
COMPONENT
10
690
20
1340
30
0
11
750
21
1340
31
0
0
LINE
8
COMPONENT
10
750
20
1340
30
0
11
750
21
1420
31
0
0
LINE
8
COMPONENT
10
750
20
1420
30
0
11
690
21
1420
31
0
0
LINE
8
COMPONENT
10
690
20
1420
30
0
11
690
21
1340
31
0
0
TEXT
8
TAG
10
693
20
1380
30
0
40
12
1
-F3
0
TEXT
8
TEXT
10
693
20
1350
30
0
40
4
1
Overload 3
0
CIRCLE
8
TERMINAL
10
710
20
1340
30
0
40
1.5
0
CIRCLE
8
TERMINAL
10
730
20
1340
30
0
40
1.5
0
LINE
8
COMPONENT
10
120
20
1060
30
0
11
170
21
1060
31
0
0
LINE
8
COMPONENT
10
170
20
1060
30
0
11
170
21
1140
31
0
0
LINE
8
COMPONENT
10
170
20
1140
30
0
11
120
21
1140
31
0
0
LINE
8
COMPONENT
10
120
20
1140
30
0
11
120
21
1060
31
0
0
TEXT
8
TAG
10
123
20
1100
30
0
40
12
1
-Q5
0
TEXT
8
TEXT
10
123
20
1070
30
0
40
4
1
MCB 4
0
CIRCLE
8
TERMINAL
10
136.6667
20
1060
30
0
40
1.5
0
CIRCLE
8
TERMINAL
10
153.3333
20
1060
30
0
40
1.5
0
LINE
8
COMPONENT
10
185
20
1060
30
0
11
255
21
1060
31
0
0
LINE
8
COMPONENT
10
255
20
1060
30
0
11
255
21
1150
31
0
0
LINE
8
COMPONENT
10
255
20
1150
30
0
11
185
21
1150
31
0
0
LINE
8
COMPONENT
10
185
20
1150
30
0
11
185
21
1060
31
0
0
TEXT
8
TAG
10
188
20
1105
30
0
40
12
1
-K4
0
TEXT
8
TEXT
10
188
20
1070
30
0
40
4
1
Contactor 4
0
CIRCLE
8
TERMINAL
10
208.3333
20
1060
30
0
40
1.5
0
CIRCLE
8
TERMINAL
10
231.6667
20
1060
30
0
40
1.5
0
LINE
8
COMPONENT
10
270
20
1060
30
0
11
330
21
1060
31
0
0
LINE
8
COMPONENT
10
330
20
1060
30
0
11
330
21
1140
31
0
0
LINE
8
COMPONENT
10
330
20
1140
30
0
11
270
21
1140
31
0
0
LINE
8
COMPONENT
10
270
20
1140
30
0
11
270
21
1060
31
0
0
TEXT
8
TAG
10
273
20
1100
30
0
40
12
1
-F4
0
TEXT
8
TEXT
10
273
20
1070
30
0
40
4
1
Overload 4
0
CIRCLE
8
TERMINAL
10
290
20
1060
30
0
40
1.5
0
CIRCLE
8
TERMINAL
10
310
20
1060
30
0
40
1.5
0
LINE
8
COMPONENT
10
330
20
1060
30
0
11
380
21
1060
31
0
0
LINE
8
COMPONENT
10
380
20
1060
30
0
11
380
21
1140
31
0
0
LINE
8
COMPONENT
10
380
20
1140
30
0
11
330
21
1140
31
0
0
LINE
8
COMPONENT
10
330
20
1140
30
0
11
330
21
1060
31
0
0
TEXT
8
TAG
10
333
20
1100
30
0
40
12
1
-Q6
0
TEXT
8
TEXT
10
333
20
1070
30
0
40
4
1
MCB 5
0
CIRCLE
8
TERMINAL
10
346.6667
20
1060
30
0
40
1.5
0
CIRCLE
8
TERMINAL
10
363.3333
20
1060
30
0
40
1.5
0
LINE
8
COMPONENT
10
395
20
1060
30
0
11
465
21
1060
31
0
0
LINE
8
COMPONENT
10
465
20
1060
30
0
11
465
21
1150
31
0
0
LINE
8
COMPONENT
10
465
20
1150
30
0
11
395
21
1150
31
0
0
LINE
8
COMPONENT
10
395
20
1150
30
0
11
395
21
1060
31
0
0
TEXT
8
TAG
10
398
20
1105
30
0
40
12
1
-K5
0
TEXT
8
TEXT
10
398
20
1070
30
0
40
4
1
Contactor 5
0
CIRCLE
8
TERMINAL
10
418.3333
20
1060
30
0
40
1.5
0
CIRCLE
8
TERMINAL
10
441.6667
20
1060
30
0
40
1.5
0
LINE
8
COMPONENT
10
480
20
1060
30
0
11
540
21
1060
31
0
0
LINE
8
COMPONENT
10
540
20
1060
30
0
11
540
21
1140
31
0
0
LINE
8
COMPONENT
10
540
20
1140
30
0
11
480
21
1140
31
0
0
LINE
8
COMPONENT
10
480
20
1140
30
0
11
480
21
1060
31
0
0
TEXT
8
TAG
10
483
20
1100
30
0
40
12
1
-F5
0
TEXT
8
TEXT
10
483
20
1070
30
0
40
4
1
Overload 5
0
CIRCLE
8
TERMINAL
10
500
20
1060
30
0
40
1.5
0
CIRCLE
8
TERMINAL
10
520
20
1060
30
0
40
1.5
0
LINE
8
COMPONENT
10
540
20
1060
30
0
11
590
21
1060
31
0
0
LINE
8
COMPONENT
10
590
20
1060
30
0
11
590
21
1140
31
0
0
LINE
8
COMPONENT
10
590
20
1140
30
0
11
540
21
1140
31
0
0
LINE
8
COMPONENT
10
540
20
1140
30
0
11
540
21
1060
31
0
0
TEXT
8
TAG
10
543
20
1100
30
0
40
12
1
-Q7
0
TEXT
8
TEXT
10
543
20
1070
30
0
40
4
1
MCB 6
0
CIRCLE
8
TERMINAL
10
556.6667
20
1060
30
0
40
1.5
0
CIRCLE
8
TERMINAL
10
573.3333
20
1060
30
0
40
1.5
0
LINE
8
COMPONENT
10
605
20
1060
30
0
11
675
21
1060
31
0
0
LINE
8
COMPONENT
10
675
20
1060
30
0
11
675
21
1150
31
0
0
LINE
8
COMPONENT
10
675
20
1150
30
0
11
605
21
1150
31
0
0
LINE
8
COMPONENT
10
605
20
1150
30
0
11
605
21
1060
31
0
0
TEXT
8
TAG
10
608
20
1105
30
0
40
12
1
-K6
0
TEXT
8
TEXT
10
608
20
1070
30
0
40
4
1
Contactor 6
0
CIRCLE
8
TERMINAL
10
628.3333
20
1060
30
0
40
1.5
0
CIRCLE
8
TERMINAL
10
651.6667
20
1060
30
0
40
1.5
0
LINE
8
COMPONENT
10
690
20
1060
30
0
11
750
21
1060
31
0
0
LINE
8
COMPONENT
10
750
20
1060
30
0
11
750
21
1140
31
0
0
LINE
8
COMPONENT
10
750
20
1140
30
0
11
690
21
1140
31
0
0
LINE
8
COMPONENT
10
690
20
1140
30
0
11
690
21
1060
31
0
0
TEXT
8
TAG
10
693
20
1100
30
0
40
12
1
-F6
0
TEXT
8
TEXT
10
693
20
1070
30
0
40
4
1
Overload 6
0
CIRCLE
8
TERMINAL
10
710
20
1060
30
0
40
1.5
0
CIRCLE
8
TERMINAL
10
730
20
1060
30
0
40
1.5
0
LINE
8
COMPONENT
10
120
20
180
30
0
11
155
21
180
31
0
0
LINE
8
COMPONENT
10
155
20
180
30
0
11
155
21
225
31
0
0
LINE
8
COMPONENT
10
155
20
225
30
0
11
120
21
225
31
0
0
LINE
8
COMPONENT
10
120
20
225
30
0
11
120
21
180
31
0
0
TEXT
8
TAG
10
123
20
202.5
30
0
40
11.25
1
-X1:1
0
TEXT
8
TEXT
10
123
20
190
30
0
40
4
1
Feed terminal
0
CIRCLE
8
TERMINAL
10
131.6667
20
180
30
0
40
1.5
0
CIRCLE
8
TERMINAL
10
143.3333
20
180
30
0
40
1.5
0
LINE
8
COMPONENT
10
168
20
180
30
0
11
203
21
180
31
0
0
LINE
8
COMPONENT
10
203
20
180
30
0
11
203
21
225
31
0
0
LINE
8
COMPONENT
10
203
20
225
30
0
11
168
21
225
31
0
0
LINE
8
COMPONENT
10
168
20
225
30
0
11
168
21
180
31
0
0
TEXT
8
TAG
10
171
20
202.5
30
0
40
11.25
1
-X1:2
0
TEXT
8
TEXT
10
171
20
190
30
0
40
4
1
Feed terminal
0
CIRCLE
8
TERMINAL
10
179.6667
20
180
30
0
40
1.5
0
CIRCLE
8
TERMINAL
10
191.3333
20
180
30
0
40
1.5
0
LINE
8
COMPONENT
10
216
20
180
30
0
11
251
21
180
31
0
0
LINE
8
COMPONENT
10
251
20
180
30
0
11
251
21
225
31
0
0
LINE
8
COMPONENT
10
251
20
225
30
0
11
216
21
225
31
0
0
LINE
8
COMPONENT
10
216
20
225
30
0
11
216
21
180
31
0
0
TEXT
8
TAG
10
219
20
202.5
30
0
40
11.25
1
-X1:3
0
TEXT
8
TEXT
10
219
20
190
30
0
40
4
1
Feed terminal
0
CIRCLE
8
TERMINAL
10
227.6667
20
180
30
0
40
1.5
0
CIRCLE
8
TERMINAL
10
239.3333
20
180
30
0
40
1.5
0
LINE
8
COMPONENT
10
264
20
180
30
0
11
299
21
180
31
0
0
LINE
8
COMPONENT
10
299
20
180
30
0
11
299
21
225
31
0
0
LINE
8
COMPONENT
10
299
20
225
30
0
11
264
21
225
31
0
0
LINE
8
COMPONENT
10
264
20
225
30
0
11
264
21
180
31
0
0
TEXT
8
TAG
10
267
20
202.5
30
0
40
11.25
1
-X1:4
0
TEXT
8
TEXT
10
267
20
190
30
0
40
4
1
Feed terminal
0
CIRCLE
8
TERMINAL
10
275.6667
20
180
30
0
40
1.5
0
CIRCLE
8
TERMINAL
10
287.3333
20
180
30
0
40
1.5
0
LINE
8
COMPONENT
10
312
20
180
30
0
11
347
21
180
31
0
0
LINE
8
COMPONENT
10
347
20
180
30
0
11
347
21
225
31
0
0
LINE
8
COMPONENT
10
347
20
225
30
0
11
312
21
225
31
0
0
LINE
8
COMPONENT
10
312
20
225
30
0
11
312
21
180
31
0
0
TEXT
8
TAG
10
315
20
202.5
30
0
40
11.25
1
-X2:1
0
TEXT
8
TEXT
10
315
20
190
30
0
40
4
1
Feed terminal
0
CIRCLE
8
TERMINAL
10
323.6667
20
180
30
0
40
1.5
0
CIRCLE
8
TERMINAL
10
335.3333
20
180
30
0
40
1.5
0
LINE
8
COMPONENT
10
360
20
180
30
0
11
395
21
180
31
0
0
LINE
8
COMPONENT
10
395
20
180
30
0
11
395
21
225
31
0
0
LINE
8
COMPONENT
10
395
20
225
30
0
11
360
21
225
31
0
0
LINE
8
COMPONENT
10
360
20
225
30
0
11
360
21
180
31
0
0
TEXT
8
TAG
10
363
20
202.5
30
0
40
11.25
1
-X2:2
0
TEXT
8
TEXT
10
363
20
190
30
0
40
4
1
Feed terminal
0
CIRCLE
8
TERMINAL
10
371.6667
20
180
30
0
40
1.5
0
CIRCLE
8
TERMINAL
10
383.3333
20
180
30
0
40
1.5
0
LINE
8
COMPONENT
10
408
20
180
30
0
11
443
21
180
31
0
0
LINE
8
COMPONENT
10
443
20
180
30
0
11
443
21
225
31
0
0
LINE
8
COMPONENT
10
443
20
225
30
0
11
408
21
225
31
0
0
LINE
8
COMPONENT
10
408
20
225
30
0
11
408
21
180
31
0
0
TEXT
8
TAG
10
411
20
202.5
30
0
40
11.25
1
-X2:3
0
TEXT
8
TEXT
10
411
20
190
30
0
40
4
1
Feed terminal
0
CIRCLE
8
TERMINAL
10
419.6667
20
180
30
0
40
1.5
0
CIRCLE
8
TERMINAL
10
431.3333
20
180
30
0
40
1.5
0
LINE
8
COMPONENT
10
456
20
180
30
0
11
491
21
180
31
0
0
LINE
8
COMPONENT
10
491
20
180
30
0
11
491
21
225
31
0
0
LINE
8
COMPONENT
10
491
20
225
30
0
11
456
21
225
31
0
0
LINE
8
COMPONENT
10
456
20
225
30
0
11
456
21
180
31
0
0
TEXT
8
TAG
10
459
20
202.5
30
0
40
11.25
1
-X2:4
0
TEXT
8
TEXT
10
459
20
190
30
0
40
4
1
Feed terminal
0
CIRCLE
8
TERMINAL
10
467.6667
20
180
30
0
40
1.5
0
CIRCLE
8
TERMINAL
10
479.3333
20
180
30
0
40
1.5
0
LINE
8
COMPONENT
10
504
20
180
30
0
11
539
21
180
31
0
0
LINE
8
COMPONENT
10
539
20
180
30
0
11
539
21
225
31
0
0
LINE
8
COMPONENT
10
539
20
225
30
0
11
504
21
225
31
0
0
LINE
8
COMPONENT
10
504
20
225
30
0
11
504
21
180
31
0
0
TEXT
8
TAG
10
507
20
202.5
30
0
40
11.25
1
-X3:1
0
TEXT
8
TEXT
10
507
20
190
30
0
40
4
1
Feed terminal
0
CIRCLE
8
TERMINAL
10
515.6667
20
180
30
0
40
1.5
0
CIRCLE
8
TERMINAL
10
527.3333
20
180
30
0
40
1.5
0
LINE
8
COMPONENT
10
552
20
180
30
0
11
587
21
180
31
0
0
LINE
8
COMPONENT
10
587
20
180
30
0
11
587
21
225
31
0
0
LINE
8
COMPONENT
10
587
20
225
30
0
11
552
21
225
31
0
0
LINE
8
COMPONENT
10
552
20
225
30
0
11
552
21
180
31
0
0
TEXT
8
TAG
10
555
20
202.5
30
0
40
11.25
1
-X3:2
0
TEXT
8
TEXT
10
555
20
190
30
0
40
4
1
Feed terminal
0
CIRCLE
8
TERMINAL
10
563.6667
20
180
30
0
40
1.5
0
CIRCLE
8
TERMINAL
10
575.3333
20
180
30
0
40
1.5
0
LINE
8
COMPONENT
10
600
20
180
30
0
11
635
21
180
31
0
0
LINE
8
COMPONENT
10
635
20
180
30
0
11
635
21
225
31
0
0
LINE
8
COMPONENT
10
635
20
225
30
0
11
600
21
225
31
0
0
LINE
8
COMPONENT
10
600
20
225
30
0
11
600
21
180
31
0
0
TEXT
8
TAG
10
603
20
202.5
30
0
40
11.25
1
-X3:3
0
TEXT
8
TEXT
10
603
20
190
30
0
40
4
1
Feed terminal
0
CIRCLE
8
TERMINAL
10
611.6667
20
180
30
0
40
1.5
0
CIRCLE
8
TERMINAL
10
623.3333
20
180
30
0
40
1.5
0
LINE
8
COMPONENT
10
648
20
180
30
0
11
683
21
180
31
0
0
LINE
8
COMPONENT
10
683
20
180
30
0
11
683
21
225
31
0
0
LINE
8
COMPONENT
10
683
20
225
30
0
11
648
21
225
31
0
0
LINE
8
COMPONENT
10
648
20
225
30
0
11
648
21
180
31
0
0
TEXT
8
TAG
10
651
20
202.5
30
0
40
11.25
1
-X3:4
0
TEXT
8
TEXT
10
651
20
190
30
0
40
4
1
Feed terminal
0
CIRCLE
8
TERMINAL
10
659.6667
20
180
30
0
40
1.5
0
CIRCLE
8
TERMINAL
10
671.3333
20
180
30
0
40
1.5
0
LINE
8
WIRE
10
155
20
1820
30
0
11
145
21
1380
31
0
0
TEXT
8
WIRE_LABEL
10
150
20
1600
30
0
40
4
1
L1
0
LINE
8
WIRE
10
145
20
1380
30
0
11
220
21
1385
31
0
0
TEXT
8
WIRE_LABEL
10
182.5
20
1382.5
30
0
40
4
1
A1
0
LINE
8
WIRE
10
220
20
1385
30
0
11
300
21
1380
31
0
0
TEXT
8
WIRE_LABEL
10
260
20
1382.5
30
0
40
4
1
T1
0
LINE
8
WIRE
10
155
20
1820
30
0
11
355
21
1380
31
0
0
TEXT
8
WIRE_LABEL
10
255
20
1600
30
0
40
4
1
L2
0
LINE
8
WIRE
10
355
20
1380
30
0
11
430
21
1385
31
0
0
TEXT
8
WIRE_LABEL
10
392.5
20
1382.5
30
0
40
4
1
A1
0
LINE
8
WIRE
10
430
20
1385
30
0
11
510
21
1380
31
0
0
TEXT
8
WIRE_LABEL
10
470
20
1382.5
30
0
40
4
1
T1
0
LINE
8
WIRE
10
155
20
1820
30
0
11
565
21
1380
31
0
0
TEXT
8
WIRE_LABEL
10
360
20
1600
30
0
40
4
1
L3
0
LINE
8
WIRE
10
565
20
1380
30
0
11
640
21
1385
31
0
0
TEXT
8
WIRE_LABEL
10
602.5
20
1382.5
30
0
40
4
1
A1
0
LINE
8
WIRE
10
640
20
1385
30
0
11
720
21
1380
31
0
0
TEXT
8
WIRE_LABEL
10
680
20
1382.5
30
0
40
4
1
T1
0
LINE
8
WIRE
10
155
20
1820
30
0
11
145
21
1100
31
0
0
TEXT
8
WIRE_LABEL
10
150
20
1460
30
0
40
4
1
L4
0
LINE
8
WIRE
10
145
20
1100
30
0
11
220
21
1105
31
0
0
TEXT
8
WIRE_LABEL
10
182.5
20
1102.5
30
0
40
4
1
A1
0
LINE
8
WIRE
10
220
20
1105
30
0
11
300
21
1100
31
0
0
TEXT
8
WIRE_LABEL
10
260
20
1102.5
30
0
40
4
1
T1
0
LINE
8
WIRE
10
155
20
1820
30
0
11
355
21
1100
31
0
0
TEXT
8
WIRE_LABEL
10
255
20
1460
30
0
40
4
1
L5
0
LINE
8
WIRE
10
355
20
1100
30
0
11
430
21
1105
31
0
0
TEXT
8
WIRE_LABEL
10
392.5
20
1102.5
30
0
40
4
1
A1
0
LINE
8
WIRE
10
430
20
1105
30
0
11
510
21
1100
31
0
0
TEXT
8
WIRE_LABEL
10
470
20
1102.5
30
0
40
4
1
T1
0
LINE
8
WIRE
10
155
20
1820
30
0
11
565
21
1100
31
0
0
TEXT
8
WIRE_LABEL
10
360
20
1460
30
0
40
4
1
L6
0
LINE
8
WIRE
10
565
20
1100
30
0
11
640
21
1105
31
0
0
TEXT
8
WIRE_LABEL
10
602.5
20
1102.5
30
0
40
4
1
A1
0
LINE
8
WIRE
10
640
20
1105
30
0
11
720
21
1100
31
0
0
TEXT
8
WIRE_LABEL
10
680
20
1102.5
30
0
40
4
1
T1
0
ENDSEC
0
EOF
