0
SECTION
2
HEADER
9
$INSUNITS
70
4
0
ENDSEC
0
SECTION
2
ENTITIES
0
LINE
8
ENCLOSURE
10
0
20
0
30
0
11
1200
21
0
31
0
0
LINE
8
ENCLOSURE
10
1200
20
0
30
0
11
1200
21
1600
31
0
0
LINE
8
ENCLOSURE
10
1200
20
1600
30
0
11
0
21
1600
31
0
0
LINE
8
ENCLOSURE
10
0
20
1600
30
0
11
0
21
0
31
0
0
LINE
8
MOUNTING_PLATE
10
50
20
50
30
0
11
1150
21
50
31
0
0
LINE
8
MOUNTING_PLATE
10
1150
20
50
30
0
11
1150
21
1550
31
0
0
LINE
8
MOUNTING_PLATE
10
1150
20
1550
30
0
11
50
21
1550
31
0
0
LINE
8
MOUNTING_PLATE
10
50
20
1550
30
0
11
50
21
50
31
0
0
TEXT
8
ANNOTATION
10
50
20
1565
30
0
40
10
1
R2 Reference Cabinet Benchmark [mm]
0
LINE
8
DIN_RAIL
10
140
20
130
30
0
11
1060
21
130
31
0
0
LINE
8
DIN_RAIL
10
140
20
390
30
0
11
1060
21
390
31
0
0
LINE
8
WIRE_DUCT
10
50
20
365
30
0
11
1150
21
365
31
0
0
LINE
8
WIRE_DUCT
10
1150
20
365
30
0
11
1150
21
405
31
0
0
LINE
8
WIRE_DUCT
10
1150
20
405
30
0
11
50
21
405
31
0
0
LINE
8
WIRE_DUCT
10
50
20
405
30
0
11
50
21
365
31
0
0
LINE
8
WIRE_DUCT
10
50
20
50
30
0
11
95
21
50
31
0
0
LINE
8
WIRE_DUCT
10
95
20
50
30
0
11
95
21
1550
31
0
0
LINE
8
WIRE_DUCT
10
95
20
1550
30
0
11
50
21
1550
31
0
0
LINE
8
WIRE_DUCT
10
50
20
1550
30
0
11
50
21
50
31
0
0
LINE
8
WIRE_DUCT
10
1105
20
50
30
0
11
1150
21
50
31
0
0
LINE
8
WIRE_DUCT
10
1150
20
50
30
0
11
1150
21
1550
31
0
0
LINE
8
WIRE_DUCT
10
1150
20
1550
30
0
11
1105
21
1550
31
0
0
LINE
8
WIRE_DUCT
10
1105
20
1550
30
0
11
1105
21
50
31
0
0
LINE
8
DEVICE
10
335
20
165
30
0
11
515
21
165
31
0
0
LINE
8
DEVICE
10
515
20
165
30
0
11
515
21
292.286
31
0
0
LINE
8
DEVICE
10
515
20
292.286
30
0
11
335
21
292.286
31
0
0
LINE
8
DEVICE
10
335
20
292.286
30
0
11
335
21
165
31
0
0
LINE
8
COMPONENT_OUTLINE
10
335
20
165
30
0
11
515
21
165
31
0
0
LINE
8
COMPONENT_OUTLINE
10
515
20
165
30
0
11
515
21
292.286
31
0
0
LINE
8
COMPONENT_OUTLINE
10
515
20
292.286
30
0
11
335
21
292.286
31
0
0
LINE
8
COMPONENT_OUTLINE
10
335
20
292.286
30
0
11
335
21
165
31
0
0
LINE
8
COMPONENT_DETAIL
10
421
20
228.643
30
0
11
429
21
228.643
31
0
0
LINE
8
COMPONENT_DETAIL
10
425
20
224.643
30
0
11
425
21
232.643
31
0
0
TEXT
8
DEVICE_TAG
10
337
20
175
30
0
40
6
1
-A10
0
TEXT
8
PART_REF
10
337
20
168
30
0
40
3
1
UNRESOLVED
0
LINE
8
DEVICE
10
544
20
165
30
0
11
567.813
21
165
31
0
0
LINE
8
DEVICE
10
567.813
20
165
30
0
11
567.813
21
196.75
31
0
0
LINE
8
DEVICE
10
567.813
20
196.75
30
0
11
544
21
196.75
31
0
0
LINE
8
DEVICE
10
544
20
196.75
30
0
11
544
21
165
31
0
0
LINE
8
COMPONENT_OUTLINE
10
544
20
165
30
0
11
567.813
21
165
31
0
0
LINE
8
COMPONENT_OUTLINE
10
567.813
20
165
30
0
11
567.813
21
196.75
31
0
0
LINE
8
COMPONENT_OUTLINE
10
567.813
20
196.75
30
0
11
544
21
196.75
31
0
0
LINE
8
COMPONENT_OUTLINE
10
544
20
196.75
30
0
11
544
21
165
31
0
0
LINE
8
COMPONENT_DETAIL
10
551.9065
20
180.875
30
0
11
559.9065
21
180.875
31
0
0
LINE
8
COMPONENT_DETAIL
10
555.9065
20
176.875
30
0
11
555.9065
21
184.875
31
0
0
TEXT
8
DEVICE_TAG
10
546
20
175
30
0
40
6
1
-A12
0
TEXT
8
PART_REF
10
546
20
168
30
0
40
3
1
UNRESOLVED
0
LINE
8
DEVICE
10
140
20
425
30
0
11
320
21
425
31
0
0
LINE
8
DEVICE
10
320
20
425
30
0
11
320
21
552.273
31
0
0
LINE
8
DEVICE
10
320
20
552.273
30
0
11
140
21
552.273
31
0
0
LINE
8
DEVICE
10
140
20
552.273
30
0
11
140
21
425
31
0
0
LINE
8
COMPONENT_OUTLINE
10
140
20
425
30
0
11
320
21
425
31
0
0
LINE
8
COMPONENT_OUTLINE
10
320
20
425
30
0
11
320
21
552.273
31
0
0
LINE
8
COMPONENT_OUTLINE
10
320
20
552.273
30
0
11
140
21
552.273
31
0
0
LINE
8
COMPONENT_OUTLINE
10
140
20
552.273
30
0
11
140
21
425
31
0
0
LINE
8
COMPONENT_DETAIL
10
226
20
488.6365
30
0
11
234
21
488.6365
31
0
0
LINE
8
COMPONENT_DETAIL
10
230
20
484.6365
30
0
11
230
21
492.6365
31
0
0
TEXT
8
DEVICE_TAG
10
142
20
435
30
0
40
6
1
-A07
0
TEXT
8
PART_REF
10
142
20
428
30
0
40
3
1
UNRESOLVED
0
LINE
8
DEVICE
10
690
20
165
30
0
11
713.813
21
165
31
0
0
LINE
8
DEVICE
10
713.813
20
165
30
0
11
713.813
21
204.688
31
0
0
LINE
8
DEVICE
10
713.813
20
204.688
30
0
11
690
21
204.688
31
0
0
LINE
8
DEVICE
10
690
20
204.688
30
0
11
690
21
165
31
0
0
LINE
8
COMPONENT_OUTLINE
10
690
20
165
30
0
11
713.813
21
165
31
0
0
LINE
8
COMPONENT_OUTLINE
10
713.813
20
165
30
0
11
713.813
21
204.688
31
0
0
LINE
8
COMPONENT_OUTLINE
10
713.813
20
204.688
30
0
11
690
21
204.688
31
0
0
LINE
8
COMPONENT_OUTLINE
10
690
20
204.688
30
0
11
690
21
165
31
0
0
LINE
8
COMPONENT_DETAIL
10
697.9065
20
184.844
30
0
11
705.9065
21
184.844
31
0
0
LINE
8
COMPONENT_DETAIL
10
701.9065
20
180.844
30
0
11
701.9065
21
188.844
31
0
0
TEXT
8
DEVICE_TAG
10
692
20
175
30
0
40
6
1
-A04
0
TEXT
8
PART_REF
10
692
20
168
30
0
40
3
1
UNRESOLVED
0
LINE
8
DEVICE
10
520
20
165
30
0
11
543.813
21
165
31
0
0
LINE
8
DEVICE
10
543.813
20
165
30
0
11
543.813
21
188.813
31
0
0
LINE
8
DEVICE
10
543.813
20
188.813
30
0
11
520
21
188.813
31
0
0
LINE
8
DEVICE
10
520
20
188.813
30
0
11
520
21
165
31
0
0
LINE
8
COMPONENT_OUTLINE
10
520
20
165
30
0
11
543.813
21
165
31
0
0
LINE
8
COMPONENT_OUTLINE
10
543.813
20
165
30
0
11
543.813
21
188.813
31
0
0
LINE
8
COMPONENT_OUTLINE
10
543.813
20
188.813
30
0
11
520
21
188.813
31
0
0
LINE
8
COMPONENT_OUTLINE
10
520
20
188.813
30
0
11
520
21
165
31
0
0
LINE
8
COMPONENT_DETAIL
10
527.9065
20
176.9065
30
0
11
535.9065
21
176.9065
31
0
0
LINE
8
COMPONENT_DETAIL
10
531.9065
20
172.9065
30
0
11
531.9065
21
180.9065
31
0
0
TEXT
8
DEVICE_TAG
10
522
20
175
30
0
40
6
1
-A11
0
TEXT
8
PART_REF
10
522
20
168
30
0
40
3
1
UNRESOLVED
0
LINE
8
DEVICE
10
325
20
425
30
0
11
441.471
21
425
31
0
0
LINE
8
DEVICE
10
441.471
20
425
30
0
11
441.471
21
605
31
0
0
LINE
8
DEVICE
10
441.471
20
605
30
0
11
325
21
605
31
0
0
LINE
8
DEVICE
10
325
20
605
30
0
11
325
21
425
31
0
0
LINE
8
COMPONENT_OUTLINE
10
325
20
425
30
0
11
441.471
21
425
31
0
0
LINE
8
COMPONENT_OUTLINE
10
441.471
20
425
30
0
11
441.471
21
605
31
0
0
LINE
8
COMPONENT_OUTLINE
10
441.471
20
605
30
0
11
325
21
605
31
0
0
LINE
8
COMPONENT_OUTLINE
10
325
20
605
30
0
11
325
21
425
31
0
0
LINE
8
COMPONENT_DETAIL
10
379.2355
20
515
30
0
11
387.2355
21
515
31
0
0
LINE
8
COMPONENT_DETAIL
10
383.2355
20
511
30
0
11
383.2355
21
519
31
0
0
TEXT
8
DEVICE_TAG
10
327
20
435
30
0
40
6
1
-A08
0
TEXT
8
PART_REF
10
327
20
428
30
0
40
3
1
UNRESOLVED
0
LINE
8
DEVICE
10
665
20
165
30
0
11
688.813
21
165
31
0
0
LINE
8
DEVICE
10
688.813
20
165
30
0
11
688.813
21
188.813
31
0
0
LINE
8
DEVICE
10
688.813
20
188.813
30
0
11
665
21
188.813
31
0
0
LINE
8
DEVICE
10
665
20
188.813
30
0
11
665
21
165
31
0
0
LINE
8
COMPONENT_OUTLINE
10
665
20
165
30
0
11
688.813
21
165
31
0
0
LINE
8
COMPONENT_OUTLINE
10
688.813
20
165
30
0
11
688.813
21
188.813
31
0
0
LINE
8
COMPONENT_OUTLINE
10
688.813
20
188.813
30
0
11
665
21
188.813
31
0
0
LINE
8
COMPONENT_OUTLINE
10
665
20
188.813
30
0
11
665
21
165
31
0
0
LINE
8
COMPONENT_DETAIL
10
672.9065
20
176.9065
30
0
11
680.9065
21
176.9065
31
0
0
LINE
8
COMPONENT_DETAIL
10
676.9065
20
172.9065
30
0
11
676.9065
21
180.9065
31
0
0
TEXT
8
DEVICE_TAG
10
667
20
175
30
0
40
6
1
-A14
0
TEXT
8
PART_REF
10
667
20
168
30
0
40
3
1
UNRESOLVED
0
LINE
8
DEVICE
10
146
20
165
30
0
11
169.813
21
165
31
0
0
LINE
8
DEVICE
10
169.813
20
165
30
0
11
169.813
21
236.438
31
0
0
LINE
8
DEVICE
10
169.813
20
236.438
30
0
11
146
21
236.438
31
0
0
LINE
8
DEVICE
10
146
20
236.438
30
0
11
146
21
165
31
0
0
LINE
8
COMPONENT_OUTLINE
10
146
20
165
30
0
11
169.813
21
165
31
0
0
LINE
8
COMPONENT_OUTLINE
10
169.813
20
165
30
0
11
169.813
21
236.438
31
0
0
LINE
8
COMPONENT_OUTLINE
10
169.813
20
236.438
30
0
11
146
21
236.438
31
0
0
LINE
8
COMPONENT_OUTLINE
10
146
20
236.438
30
0
11
146
21
165
31
0
0
LINE
8
COMPONENT_DETAIL
10
153.9065
20
200.719
30
0
11
161.9065
21
200.719
31
0
0
LINE
8
COMPONENT_DETAIL
10
157.9065
20
196.719
30
0
11
157.9065
21
204.719
31
0
0
TEXT
8
DEVICE_TAG
10
148
20
175
30
0
40
6
1
-A13
0
TEXT
8
PART_REF
10
148
20
168
30
0
40
3
1
UNRESOLVED
0
LINE
8
DEVICE
10
445
20
425
30
0
11
561.471
21
425
31
0
0
LINE
8
DEVICE
10
561.471
20
425
30
0
11
561.471
21
605
31
0
0
LINE
8
DEVICE
10
561.471
20
605
30
0
11
445
21
605
31
0
0
LINE
8
DEVICE
10
445
20
605
30
0
11
445
21
425
31
0
0
LINE
8
COMPONENT_OUTLINE
10
445
20
425
30
0
11
561.471
21
425
31
0
0
LINE
8
COMPONENT_OUTLINE
10
561.471
20
425
30
0
11
561.471
21
605
31
0
0
LINE
8
COMPONENT_OUTLINE
10
561.471
20
605
30
0
11
445
21
605
31
0
0
LINE
8
COMPONENT_OUTLINE
10
445
20
605
30
0
11
445
21
425
31
0
0
LINE
8
COMPONENT_DETAIL
10
499.2355
20
515
30
0
11
507.2355
21
515
31
0
0
LINE
8
COMPONENT_DETAIL
10
503.2355
20
511
30
0
11
503.2355
21
519
31
0
0
TEXT
8
DEVICE_TAG
10
447
20
435
30
0
40
6
1
-A15
0
TEXT
8
PART_REF
10
447
20
428
30
0
40
3
1
UNRESOLVED
0
LINE
8
DEVICE
10
575
20
165
30
0
11
598.813
21
165
31
0
0
LINE
8
DEVICE
10
598.813
20
165
30
0
11
598.813
21
260.25
31
0
0
LINE
8
DEVICE
10
598.813
20
260.25
30
0
11
575
21
260.25
31
0
0
LINE
8
DEVICE
10
575
20
260.25
30
0
11
575
21
165
31
0
0
LINE
8
COMPONENT_OUTLINE
10
575
20
165
30
0
11
598.813
21
165
31
0
0
LINE
8
COMPONENT_OUTLINE
10
598.813
20
165
30
0
11
598.813
21
260.25
31
0
0
LINE
8
COMPONENT_OUTLINE
10
598.813
20
260.25
30
0
11
575
21
260.25
31
0
0
LINE
8
COMPONENT_OUTLINE
10
575
20
260.25
30
0
11
575
21
165
31
0
0
LINE
8
COMPONENT_DETAIL
10
582.9065
20
212.625
30
0
11
590.9065
21
212.625
31
0
0
LINE
8
COMPONENT_DETAIL
10
586.9065
20
208.625
30
0
11
586.9065
21
216.625
31
0
0
TEXT
8
DEVICE_TAG
10
577
20
175
30
0
40
6
1
-A01
0
TEXT
8
PART_REF
10
577
20
168
30
0
40
3
1
UNRESOLVED
0
LINE
8
DEVICE
10
605
20
165
30
0
11
628.813
21
165
31
0
0
LINE
8
DEVICE
10
628.813
20
165
30
0
11
628.813
21
212.625
31
0
0
LINE
8
DEVICE
10
628.813
20
212.625
30
0
11
605
21
212.625
31
0
0
LINE
8
DEVICE
10
605
20
212.625
30
0
11
605
21
165
31
0
0
LINE
8
COMPONENT_OUTLINE
10
605
20
165
30
0
11
628.813
21
165
31
0
0
LINE
8
COMPONENT_OUTLINE
10
628.813
20
165
30
0
11
628.813
21
212.625
31
0
0
LINE
8
COMPONENT_OUTLINE
10
628.813
20
212.625
30
0
11
605
21
212.625
31
0
0
LINE
8
COMPONENT_OUTLINE
10
605
20
212.625
30
0
11
605
21
165
31
0
0
LINE
8
COMPONENT_DETAIL
10
612.9065
20
188.8125
30
0
11
620.9065
21
188.8125
31
0
0
LINE
8
COMPONENT_DETAIL
10
616.9065
20
184.8125
30
0
11
616.9065
21
192.8125
31
0
0
TEXT
8
DEVICE_TAG
10
607
20
175
30
0
40
6
1
-A02
0
TEXT
8
PART_REF
10
607
20
168
30
0
40
3
1
UNRESOLVED
0
LINE
8
DEVICE
10
635
20
165
30
0
11
658.813
21
165
31
0
0
LINE
8
DEVICE
10
658.813
20
165
30
0
11
658.813
21
260.25
31
0
0
LINE
8
DEVICE
10
658.813
20
260.25
30
0
11
635
21
260.25
31
0
0
LINE
8
DEVICE
10
635
20
260.25
30
0
11
635
21
165
31
0
0
LINE
8
COMPONENT_OUTLINE
10
635
20
165
30
0
11
658.813
21
165
31
0
0
LINE
8
COMPONENT_OUTLINE
10
658.813
20
165
30
0
11
658.813
21
260.25
31
0
0
LINE
8
COMPONENT_OUTLINE
10
658.813
20
260.25
30
0
11
635
21
260.25
31
0
0
LINE
8
COMPONENT_OUTLINE
10
635
20
260.25
30
0
11
635
21
165
31
0
0
LINE
8
COMPONENT_DETAIL
10
642.9065
20
212.625
30
0
11
650.9065
21
212.625
31
0
0
LINE
8
COMPONENT_DETAIL
10
646.9065
20
208.625
30
0
11
646.9065
21
216.625
31
0
0
TEXT
8
DEVICE_TAG
10
637
20
175
30
0
40
6
1
-A03
0
TEXT
8
PART_REF
10
637
20
168
30
0
40
3
1
UNRESOLVED
0
LINE
8
DEVICE
10
170
20
165
30
0
11
329.8
21
165
31
0
0
LINE
8
DEVICE
10
329.8
20
165
30
0
11
329.8
21
283.601
31
0
0
LINE
8
DEVICE
10
329.8
20
283.601
30
0
11
170
21
283.601
31
0
0
LINE
8
DEVICE
10
170
20
283.601
30
0
11
170
21
165
31
0
0
LINE
8
COMPONENT_OUTLINE
10
170
20
165
30
0
11
329.8
21
165
31
0
0
LINE
8
COMPONENT_OUTLINE
10
329.8
20
165
30
0
11
329.8
21
283.601
31
0
0
LINE
8
COMPONENT_OUTLINE
10
329.8
20
283.601
30
0
11
170
21
283.601
31
0
0
LINE
8
COMPONENT_OUTLINE
10
170
20
283.601
30
0
11
170
21
165
31
0
0
LINE
8
COMPONENT_DETAIL
10
245.9
20
224.3005
30
0
11
253.9
21
224.3005
31
0
0
LINE
8
COMPONENT_DETAIL
10
249.9
20
220.3005
30
0
11
249.9
21
228.3005
31
0
0
TEXT
8
DEVICE_TAG
10
172
20
175
30
0
40
6
1
-A06
0
TEXT
8
PART_REF
10
172
20
168
30
0
40
3
1
UNRESOLVED
0
LINE
8
DEVICE
10
720
20
165
30
0
11
743.813
21
165
31
0
0
LINE
8
DEVICE
10
743.813
20
165
30
0
11
743.813
21
307.875
31
0
0
LINE
8
DEVICE
10
743.813
20
307.875
30
0
11
720
21
307.875
31
0
0
LINE
8
DEVICE
10
720
20
307.875
30
0
11
720
21
165
31
0
0
LINE
8
COMPONENT_OUTLINE
10
720
20
165
30
0
11
743.813
21
165
31
0
0
LINE
8
COMPONENT_OUTLINE
10
743.813
20
165
30
0
11
743.813
21
307.875
31
0
0
LINE
8
COMPONENT_OUTLINE
10
743.813
20
307.875
30
0
11
720
21
307.875
31
0
0
LINE
8
COMPONENT_OUTLINE
10
720
20
307.875
30
0
11
720
21
165
31
0
0
LINE
8
COMPONENT_DETAIL
10
727.9065
20
236.4375
30
0
11
735.9065
21
236.4375
31
0
0
LINE
8
COMPONENT_DETAIL
10
731.9065
20
232.4375
30
0
11
731.9065
21
240.4375
31
0
0
TEXT
8
DEVICE_TAG
10
722
20
175
30
0
40
6
1
-A05
0
TEXT
8
PART_REF
10
722
20
168
30
0
40
3
1
UNRESOLVED
0
LINE
8
DEVICE
10
744
20
165
30
0
11
924
21
165
31
0
0
LINE
8
DEVICE
10
924
20
165
30
0
11
924
21
257.776
31
0
0
LINE
8
DEVICE
10
924
20
257.776
30
0
11
744
21
257.776
31
0
0
LINE
8
DEVICE
10
744
20
257.776
30
0
11
744
21
165
31
0
0
LINE
8
COMPONENT_OUTLINE
10
744
20
165
30
0
11
924
21
165
31
0
0
LINE
8
COMPONENT_OUTLINE
10
924
20
165
30
0
11
924
21
257.776
31
0
0
LINE
8
COMPONENT_OUTLINE
10
924
20
257.776
30
0
11
744
21
257.776
31
0
0
LINE
8
COMPONENT_OUTLINE
10
744
20
257.776
30
0
11
744
21
165
31
0
0
LINE
8
COMPONENT_DETAIL
10
830
20
211.388
30
0
11
838
21
211.388
31
0
0
LINE
8
COMPONENT_DETAIL
10
834
20
207.388
30
0
11
834
21
215.388
31
0
0
TEXT
8
DEVICE_TAG
10
746
20
175
30
0
40
6
1
-A09
0
TEXT
8
PART_REF
10
746
20
168
30
0
40
3
1
UNRESOLVED
0
LINE
8
WIRE
10
834
20
211.388
30
0
11
425
21
228.643
31
0
0
LINE
8
WIRE
10
383.2355
20
515
30
0
11
834
21
211.388
31
0
0
LINE
8
WIRE
10
646.9065
20
212.625
30
0
11
701.9065
21
184.844
31
0
0
LINE
8
WIRE
10
555.9065
20
180.875
30
0
11
157.9065
21
200.719
31
0
0
LINE
8
WIRE
10
676.9065
20
176.9065
30
0
11
503.2355
21
515
31
0
0
LINE
8
WIRE
10
249.9
20
224.3005
30
0
11
230
21
488.6365
31
0
0
LINE
8
WIRE
10
230
20
488.6365
30
0
11
383.2355
21
515
31
0
0
LINE
8
WIRE
10
616.9065
20
188.8125
30
0
11
646.9065
21
212.625
31
0
0
LINE
8
WIRE
10
157.9065
20
200.719
30
0
11
676.9065
21
176.9065
31
0
0
LINE
8
WIRE
10
425
20
228.643
30
0
11
531.9065
21
176.9065
31
0
0
LINE
8
WIRE
10
586.9065
20
212.625
30
0
11
616.9065
21
188.8125
31
0
0
LINE
8
WIRE
10
731.9065
20
236.4375
30
0
11
249.9
21
224.3005
31
0
0
LINE
8
WIRE
10
701.9065
20
184.844
30
0
11
731.9065
21
236.4375
31
0
0
LINE
8
WIRE
10
531.9065
20
176.9065
30
0
11
555.9065
21
180.875
31
0
0
ENDSEC
0
EOF
