<svg xmlns="http://www.w3.org/2000/svg" viewBox="-16.8000 -313.8000 453.6000 330.6000" preserveAspectRatio="xMidYMid meet">
<rect width="100%" height="100%" fill="#0b1422"/>
<line x1="420.0000" y1="-12.0000" x2="368.0000" y2="-12.0000" stroke="#8fc7ff" stroke-width="0.4853" vector-effect="non-scaling-stroke"/>
<line x1="304.0000" y1="-0.0000" x2="304.0000" y2="-16.0000" stroke="#8fc7ff" stroke-width="0.4853" vector-effect="non-scaling-stroke"/>
<line x1="304.0000" y1="-8.0000" x2="420.0000" y2="-8.0000" stroke="#8fc7ff" stroke-width="0.4853" vector-effect="non-scaling-stroke"/>
<line x1="228.0000" y1="-16.0000" x2="228.0000" y2="-0.0000" stroke="#8fc7ff" stroke-width="0.4853" vector-effect="non-scaling-stroke"/>
<line x1="140.0000" y1="-0.0000" x2="140.0000" y2="-16.0000" stroke="#8fc7ff" stroke-width="0.4853" vector-effect="non-scaling-stroke"/>
<line x1="0.0000" y1="-0.0000" x2="420.0000" y2="-0.0000" stroke="#8fc7ff" stroke-width="0.4853" vector-effect="non-scaling-stroke"/>
<line x1="420.0000" y1="-0.0000" x2="420.0000" y2="-297.0000" stroke="#8fc7ff" stroke-width="0.4853" vector-effect="non-scaling-stroke"/>
<line x1="420.0000" y1="-297.0000" x2="0.0000" y2="-297.0000" stroke="#8fc7ff" stroke-width="0.4853" vector-effect="non-scaling-stroke"/>
<line x1="0.0000" y1="-297.0000" x2="0.0000" y2="-0.0000" stroke="#8fc7ff" stroke-width="0.4853" vector-effect="non-scaling-stroke"/>
<line x1="140.0000" y1="-16.0000" x2="420.0000" y2="-16.0000" stroke="#8fc7ff" stroke-width="0.4853" vector-effect="non-scaling-stroke"/>
<line x1="368.0000" y1="-16.0000" x2="368.0000" y2="-8.0000" stroke="#8fc7ff" stroke-width="0.4853" vector-effect="non-scaling-stroke"/>
<line x1="344.0000" y1="-8.0000" x2="344.0000" y2="-0.0000" stroke="#8fc7ff" stroke-width="0.4853" vector-effect="non-scaling-stroke"/>
<line x1="384.0000" y1="-0.0000" x2="384.0000" y2="-8.0000" stroke="#8fc7ff" stroke-width="0.4853" vector-effect="non-scaling-stroke"/>
<line x1="0.0000" y1="-289.0000" x2="420.0000" y2="-289.0000" stroke="#8fc7ff" stroke-width="0.4853" vector-effect="non-scaling-stroke"/>
<line x1="42.0000" y1="-297.0000" x2="42.0000" y2="-289.0000" stroke="#8fc7ff" stroke-width="0.4853" vector-effect="non-scaling-stroke"/>
<line x1="84.0000" y1="-297.0000" x2="84.0000" y2="-289.0000" stroke="#8fc7ff" stroke-width="0.4853" vector-effect="non-scaling-stroke"/>
<line x1="126.0000" y1="-297.0000" x2="126.0000" y2="-289.0000" stroke="#8fc7ff" stroke-width="0.4853" vector-effect="non-scaling-stroke"/>
<line x1="168.0000" y1="-297.0000" x2="168.0000" y2="-289.0000" stroke="#8fc7ff" stroke-width="0.4853" vector-effect="non-scaling-stroke"/>
<line x1="210.0000" y1="-297.0000" x2="210.0000" y2="-289.0000" stroke="#8fc7ff" stroke-width="0.4853" vector-effect="non-scaling-stroke"/>
<line x1="252.0000" y1="-297.0000" x2="252.0000" y2="-289.0000" stroke="#8fc7ff" stroke-width="0.4853" vector-effect="non-scaling-stroke"/>
<line x1="294.0000" y1="-297.0000" x2="294.0000" y2="-289.0000" stroke="#8fc7ff" stroke-width="0.4853" vector-effect="non-scaling-stroke"/>
<line x1="336.0000" y1="-297.0000" x2="336.0000" y2="-289.0000" stroke="#8fc7ff" stroke-width="0.4853" vector-effect="non-scaling-stroke"/>
<line x1="378.0000" y1="-297.0000" x2="378.0000" y2="-289.0000" stroke="#8fc7ff" stroke-width="0.4853" vector-effect="non-scaling-stroke"/>
<line x1="32.0000" y1="-40.0000" x2="108.0000" y2="-40.0000" stroke="#8fc7ff" stroke-width="0.4853" vector-effect="non-scaling-stroke"/>
<line x1="108.0000" y1="-40.0000" x2="108.0000" y2="-260.0000" stroke="#8fc7ff" stroke-width="0.4853" vector-effect="non-scaling-stroke"/>
<line x1="108.0000" y1="-260.0000" x2="32.0000" y2="-260.0000" stroke="#8fc7ff" stroke-width="0.4853" vector-effect="non-scaling-stroke"/>
<line x1="32.0000" y1="-260.0000" x2="32.0000" y2="-40.0000" stroke="#8fc7ff" stroke-width="0.4853" vector-effect="non-scaling-stroke"/>
<line x1="36.0000" y1="-44.0000" x2="104.0000" y2="-44.0000" stroke="#8fc7ff" stroke-width="0.4853" vector-effect="non-scaling-stroke"/>
<line x1="104.0000" y1="-44.0000" x2="104.0000" y2="-256.0000" stroke="#8fc7ff" stroke-width="0.4853" vector-effect="non-scaling-stroke"/>
<line x1="104.0000" y1="-256.0000" x2="36.0000" y2="-256.0000" stroke="#8fc7ff" stroke-width="0.4853" vector-effect="non-scaling-stroke"/>
<line x1="36.0000" y1="-256.0000" x2="36.0000" y2="-44.0000" stroke="#8fc7ff" stroke-width="0.4853" vector-effect="non-scaling-stroke"/>
<line x1="93.0000" y1="-236.0000" x2="92.8660" y2="-236.5000" stroke="#8fc7ff" stroke-width="0.4853" vector-effect="non-scaling-stroke"/>
<line x1="92.8660" y1="-236.5000" x2="92.5000" y2="-236.8660" stroke="#8fc7ff" stroke-width="0.4853" vector-effect="non-scaling-stroke"/>
<line x1="92.5000" y1="-236.8660" x2="92.0000" y2="-237.0000" stroke="#8fc7ff" stroke-width="0.4853" vector-effect="non-scaling-stroke"/>
<line x1="92.0000" y1="-237.0000" x2="91.5000" y2="-236.8660" stroke="#8fc7ff" stroke-width="0.4853" vector-effect="non-scaling-stroke"/>
<line x1="91.5000" y1="-236.8660" x2="91.1340" y2="-236.5000" stroke="#8fc7ff" stroke-width="0.4853" vector-effect="non-scaling-stroke"/>
<line x1="91.1340" y1="-236.5000" x2="91.0000" y2="-236.0000" stroke="#8fc7ff" stroke-width="0.4853" vector-effect="non-scaling-stroke"/>
<line x1="91.0000" y1="-236.0000" x2="91.1340" y2="-235.5000" stroke="#8fc7ff" stroke-width="0.4853" vector-effect="non-scaling-stroke"/>
<line x1="91.1340" y1="-235.5000" x2="91.5000" y2="-235.1340" stroke="#8fc7ff" stroke-width="0.4853" vector-effect="non-scaling-stroke"/>
<line x1="91.5000" y1="-235.1340" x2="92.0000" y2="-235.0000" stroke="#8fc7ff" stroke-width="0.4853" vector-effect="non-scaling-stroke"/>
<line x1="92.0000" y1="-235.0000" x2="92.5000" y2="-235.1340" stroke="#8fc7ff" stroke-width="0.4853" vector-effect="non-scaling-stroke"/>
<line x1="92.5000" y1="-235.1340" x2="92.8660" y2="-235.5000" stroke="#8fc7ff" stroke-width="0.4853" vector-effect="non-scaling-stroke"/>
<line x1="92.8660" y1="-235.5000" x2="93.0000" y2="-236.0000" stroke="#8fc7ff" stroke-width="0.4853" vector-effect="non-scaling-stroke"/>
<line x1="93.5000" y1="-236.0000" x2="93.0000" y2="-236.0000" stroke="#8fc7ff" stroke-width="0.4853" vector-effect="non-scaling-stroke"/>
<line x1="93.5000" y1="-235.5000" x2="95.0000" y2="-235.5000" stroke="#8fc7ff" stroke-width="0.4853" vector-effect="non-scaling-stroke"/>
<line x1="95.0000" y1="-235.5000" x2="95.0000" y2="-236.5000" stroke="#8fc7ff" stroke-width="0.4853" vector-effect="non-scaling-stroke"/>
<line x1="95.0000" y1="-236.5000" x2="93.5000" y2="-236.5000" stroke="#8fc7ff" stroke-width="0.4853" vector-effect="non-scaling-stroke"/>
<line x1="93.5000" y1="-236.5000" x2="93.5000" y2="-235.5000" stroke="#8fc7ff" stroke-width="0.4853" vector-effect="non-scaling-stroke"/>
<line x1="95.0000" y1="-235.0000" x2="95.2588" y2="-235.0341" stroke="#8fc7ff" stroke-width="0.4853" vector-effect="non-scaling-stroke"/>
<line x1="95.2588" y1="-235.0341" x2="95.5000" y2="-235.1340" stroke="#8fc7ff" stroke-width="0.4853" vector-effect="non-scaling-stroke"/>
<line x1="95.5000" y1="-235.1340" x2="95.7071" y2="-235.2929" stroke="#8fc7ff" stroke-width="0.4853" vector-effect="non-scaling-stroke"/>
<line x1="95.7071" y1="-235.2929" x2="95.8660" y2="-235.5000" stroke="#8fc7ff" stroke-width="0.4853" vector-effect="non-scaling-stroke"/>
<line x1="95.8660" y1="-235.5000" x2="95.9659" y2="-235.7412" stroke="#8fc7ff" stroke-width="0.4853" vector-effect="non-scaling-stroke"/>
<line x1="95.9659" y1="-235.7412" x2="96.0000" y2="-236.0000" stroke="#8fc7ff" stroke-width="0.4853" vector-effect="non-scaling-stroke"/>
<line x1="96.0000" y1="-236.0000" x2="95.9659" y2="-236.2588" stroke="#8fc7ff" stroke-width="0.4853" vector-effect="non-scaling-stroke"/>
<line x1="95.9659" y1="-236.2588" x2="95.8660" y2="-236.5000" stroke="#8fc7ff" stroke-width="0.4853" vector-effect="non-scaling-stroke"/>
<line x1="95.8660" y1="-236.5000" x2="95.7071" y2="-236.7071" stroke="#8fc7ff" stroke-width="0.4853" vector-effect="non-scaling-stroke"/>
<line x1="95.7071" y1="-236.7071" x2="95.5000" y2="-236.8660" stroke="#8fc7ff" stroke-width="0.4853" vector-effect="non-scaling-stroke"/>
<line x1="95.5000" y1="-236.8660" x2="95.2588" y2="-236.9659" stroke="#8fc7ff" stroke-width="0.4853" vector-effect="non-scaling-stroke"/>
<line x1="95.2588" y1="-236.9659" x2="95.0000" y2="-237.0000" stroke="#8fc7ff" stroke-width="0.4853" vector-effect="non-scaling-stroke"/>
<line x1="93.0000" y1="-228.0000" x2="92.8660" y2="-228.5000" stroke="#8fc7ff" stroke-width="0.4853" vector-effect="non-scaling-stroke"/>
<line x1="92.8660" y1="-228.5000" x2="92.5000" y2="-228.8660" stroke="#8fc7ff" stroke-width="0.4853" vector-effect="non-scaling-stroke"/>
<line x1="92.5000" y1="-228.8660" x2="92.0000" y2="-229.0000" stroke="#8fc7ff" stroke-width="0.4853" vector-effect="non-scaling-stroke"/>
<line x1="92.0000" y1="-229.0000" x2="91.5000" y2="-228.8660" stroke="#8fc7ff" stroke-width="0.4853" vector-effect="non-scaling-stroke"/>
<line x1="91.5000" y1="-228.8660" x2="91.1340" y2="-228.5000" stroke="#8fc7ff" stroke-width="0.4853" vector-effect="non-scaling-stroke"/>
<line x1="91.1340" y1="-228.5000" x2="91.0000" y2="-228.0000" stroke="#8fc7ff" stroke-width="0.4853" vector-effect="non-scaling-stroke"/>
<line x1="91.0000" y1="-228.0000" x2="91.1340" y2="-227.5000" stroke="#8fc7ff" stroke-width="0.4853" vector-effect="non-scaling-stroke"/>
<line x1="91.1340" y1="-227.5000" x2="91.5000" y2="-227.1340" stroke="#8fc7ff" stroke-width="0.4853" vector-effect="non-scaling-stroke"/>
<line x1="91.5000" y1="-227.1340" x2="92.0000" y2="-227.0000" stroke="#8fc7ff" stroke-width="0.4853" vector-effect="non-scaling-stroke"/>
<line x1="92.0000" y1="-227.0000" x2="92.5000" y2="-227.1340" stroke="#8fc7ff" stroke-width="0.4853" vector-effect="non-scaling-stroke"/>
<line x1="92.5000" y1="-227.1340" x2="92.8660" y2="-227.5000" stroke="#8fc7ff" stroke-width="0.4853" vector-effect="non-scaling-stroke"/>
<line x1="92.8660" y1="-227.5000" x2="93.0000" y2="-228.0000" stroke="#8fc7ff" stroke-width="0.4853" vector-effect="non-scaling-stroke"/>
<line x1="93.5000" y1="-228.0000" x2="93.0000" y2="-228.0000" stroke="#8fc7ff" stroke-width="0.4853" vector-effect="non-scaling-stroke"/>
<line x1="93.5000" y1="-227.5000" x2="95.0000" y2="-227.5000" stroke="#8fc7ff" stroke-width="0.4853" vector-effect="non-scaling-stroke"/>
<line x1="95.0000" y1="-227.5000" x2="95.0000" y2="-228.5000" stroke="#8fc7ff" stroke-width="0.4853" vector-effect="non-scaling-stroke"/>
<line x1="95.0000" y1="-228.5000" x2="93.5000" y2="-228.5000" stroke="#8fc7ff" stroke-width="0.4853" vector-effect="non-scaling-stroke"/>
<line x1="93.5000" y1="-228.5000" x2="93.5000" y2="-227.5000" stroke="#8fc7ff" stroke-width="0.4853" vector-effect="non-scaling-stroke"/>
<line x1="95.0000" y1="-227.0000" x2="95.2588" y2="-227.0341" stroke="#8fc7ff" stroke-width="0.4853" vector-effect="non-scaling-stroke"/>
<line x1="95.2588" y1="-227.0341" x2="95.5000" y2="-227.1340" stroke="#8fc7ff" stroke-width="0.4853" vector-effect="non-scaling-stroke"/>
<line x1="95.5000" y1="-227.1340" x2="95.7071" y2="-227.2929" stroke="#8fc7ff" stroke-width="0.4853" vector-effect="non-scaling-stroke"/>
<line x1="95.7071" y1="-227.2929" x2="95.8660" y2="-227.5000" stroke="#8fc7ff" stroke-width="0.4853" vector-effect="non-scaling-stroke"/>
<line x1="95.8660" y1="-227.5000" x2="95.9659" y2="-227.7412" stroke="#8fc7ff" stroke-width="0.4853" vector-effect="non-scaling-stroke"/>
<line x1="95.9659" y1="-227.7412" x2="96.0000" y2="-228.0000" stroke="#8fc7ff" stroke-width="0.4853" vector-effect="non-scaling-stroke"/>
<line x1="96.0000" y1="-228.0000" x2="95.9659" y2="-228.2588" stroke="#8fc7ff" stroke-width="0.4853" vector-effect="non-scaling-stroke"/>
<line x1="95.9659" y1="-228.2588" x2="95.8660" y2="-228.5000" stroke="#8fc7ff" stroke-width="0.4853" vector-effect="non-scaling-stroke"/>
<line x1="95.8660" y1="-228.5000" x2="95.7071" y2="-228.7071" stroke="#8fc7ff" stroke-width="0.4853" vector-effect="non-scaling-stroke"/>
<line x1="95.7071" y1="-228.7071" x2="95.5000" y2="-228.8660" stroke="#8fc7ff" stroke-width="0.4853" vector-effect="non-scaling-stroke"/>
<line x1="95.5000" y1="-228.8660" x2="95.2588" y2="-228.9659" stroke="#8fc7ff" stroke-width="0.4853" vector-effect="non-scaling-stroke"/>
<line x1="95.2588" y1="-228.9659" x2="95.0000" y2="-229.0000" stroke="#8fc7ff" stroke-width="0.4853" vector-effect="non-scaling-stroke"/>
<line x1="93.0000" y1="-203.0000" x2="92.8660" y2="-203.5000" stroke="#8fc7ff" stroke-width="0.4853" vector-effect="non-scaling-stroke"/>
<line x1="92.8660" y1="-203.5000" x2="92.5000" y2="-203.8660" stroke="#8fc7ff" stroke-width="0.4853" vector-effect="non-scaling-stroke"/>
<line x1="92.5000" y1="-203.8660" x2="92.0000" y2="-204.0000" stroke="#8fc7ff" stroke-width="0.4853" vector-effect="non-scaling-stroke"/>
<line x1="92.0000" y1="-204.0000" x2="91.5000" y2="-203.8660" stroke="#8fc7ff" stroke-width="0.4853" vector-effect="non-scaling-stroke"/>
<line x1="91.5000" y1="-203.8660" x2="91.1340" y2="-203.5000" stroke="#8fc7ff" stroke-width="0.4853" vector-effect="non-scaling-stroke"/>
<line x1="91.1340" y1="-203.5000" x2="91.0000" y2="-203.0000" stroke="#8fc7ff" stroke-width="0.4853" vector-effect="non-scaling-stroke"/>
<line x1="91.0000" y1="-203.0000" x2="91.1340" y2="-202.5000" stroke="#8fc7ff" stroke-width="0.4853" vector-effect="non-scaling-stroke"/>
<line x1="91.1340" y1="-202.5000" x2="91.5000" y2="-202.1340" stroke="#8fc7ff" stroke-width="0.4853" vector-effect="non-scaling-stroke"/>
<line x1="91.5000" y1="-202.1340" x2="92.0000" y2="-202.0000" stroke="#8fc7ff" stroke-width="0.4853" vector-effect="non-scaling-stroke"/>
<line x1="92.0000" y1="-202.0000" x2="92.5000" y2="-202.1340" stroke="#8fc7ff" stroke-width="0.4853" vector-effect="non-scaling-stroke"/>
<line x1="92.5000" y1="-202.1340" x2="92.8660" y2="-202.5000" stroke="#8fc7ff" stroke-width="0.4853" vector-effect="non-scaling-stroke"/>
<line x1="92.8660" y1="-202.5000" x2="93.0000" y2="-203.0000" stroke="#8fc7ff" stroke-width="0.4853" vector-effect="non-scaling-stroke"/>
<line x1="93.5000" y1="-203.0000" x2="93.0000" y2="-203.0000" stroke="#8fc7ff" stroke-width="0.4853" vector-effect="non-scaling-stroke"/>
<line x1="93.5000" y1="-202.5000" x2="95.0000" y2="-202.5000" stroke="#8fc7ff" stroke-width="0.4853" vector-effect="non-scaling-stroke"/>
<line x1="95.0000" y1="-202.5000" x2="95.0000" y2="-203.5000" stroke="#8fc7ff" stroke-width="0.4853" vector-effect="non-scaling-stroke"/>
<line x1="95.0000" y1="-203.5000" x2="93.5000" y2="-203.5000" stroke="#8fc7ff" stroke-width="0.4853" vector-effect="non-scaling-stroke"/>
<line x1="93.5000" y1="-203.5000" x2="93.5000" y2="-202.5000" stroke="#8fc7ff" stroke-width="0.4853" vector-effect="non-scaling-stroke"/>
<line x1="95.0000" y1="-202.0000" x2="95.2588" y2="-202.0341" stroke="#8fc7ff" stroke-width="0.4853" vector-effect="non-scaling-stroke"/>
<line x1="95.2588" y1="-202.0341" x2="95.5000" y2="-202.1340" stroke="#8fc7ff" stroke-width="0.4853" vector-effect="non-scaling-stroke"/>
<line x1="95.5000" y1="-202.1340" x2="95.7071" y2="-202.2929" stroke="#8fc7ff" stroke-width="0.4853" vector-effect="non-scaling-stroke"/>
<line x1="95.7071" y1="-202.2929" x2="95.8660" y2="-202.5000" stroke="#8fc7ff" stroke-width="0.4853" vector-effect="non-scaling-stroke"/>
<line x1="95.8660" y1="-202.5000" x2="95.9659" y2="-202.7412" stroke="#8fc7ff" stroke-width="0.4853" vector-effect="non-scaling-stroke"/>
<line x1="95.9659" y1="-202.7412" x2="96.0000" y2="-203.0000" stroke="#8fc7ff" stroke-width="0.4853" vector-effect="non-scaling-stroke"/>
<line x1="96.0000" y1="-203.0000" x2="95.9659" y2="-203.2588" stroke="#8fc7ff" stroke-width="0.4853" vector-effect="non-scaling-stroke"/>
<line x1="95.9659" y1="-203.2588" x2="95.8660" y2="-203.5000" stroke="#8fc7ff" stroke-width="0.4853" vector-effect="non-scaling-stroke"/>
<line x1="95.8660" y1="-203.5000" x2="95.7071" y2="-203.7071" stroke="#8fc7ff" stroke-width="0.4853" vector-effect="non-scaling-stroke"/>
<line x1="95.7071" y1="-203.7071" x2="95.5000" y2="-203.8660" stroke="#8fc7ff" stroke-width="0.4853" vector-effect="non-scaling-stroke"/>
<line x1="95.5000" y1="-203.8660" x2="95.2588" y2="-203.9659" stroke="#8fc7ff" stroke-width="0.4853" vector-effect="non-scaling-stroke"/>
<line x1="95.2588" y1="-203.9659" x2="95.0000" y2="-204.0000" stroke="#8fc7ff" stroke-width="0.4853" vector-effect="non-scaling-stroke"/>
<line x1="93.0000" y1="-216.0000" x2="92.8660" y2="-216.5000" stroke="#8fc7ff" stroke-width="0.4853" vector-effect="non-scaling-stroke"/>
<line x1="92.8660" y1="-216.5000" x2="92.5000" y2="-216.8660" stroke="#8fc7ff" stroke-width="0.4853" vector-effect="non-scaling-stroke"/>
<line x1="92.5000" y1="-216.8660" x2="92.0000" y2="-217.0000" stroke="#8fc7ff" stroke-width="0.4853" vector-effect="non-scaling-stroke"/>
<line x1="92.0000" y1="-217.0000" x2="91.5000" y2="-216.8660" stroke="#8fc7ff" stroke-width="0.4853" vector-effect="non-scaling-stroke"/>
<line x1="91.5000" y1="-216.8660" x2="91.1340" y2="-216.5000" stroke="#8fc7ff" stroke-width="0.4853" vector-effect="non-scaling-stroke"/>
<line x1="91.1340" y1="-216.5000" x2="91.0000" y2="-216.0000" stroke="#8fc7ff" stroke-width="0.4853" vector-effect="non-scaling-stroke"/>
<line x1="91.0000" y1="-216.0000" x2="91.1340" y2="-215.5000" stroke="#8fc7ff" stroke-width="0.4853" vector-effect="non-scaling-stroke"/>
<line x1="91.1340" y1="-215.5000" x2="91.5000" y2="-215.1340" stroke="#8fc7ff" stroke-width="0.4853" vector-effect="non-scaling-stroke"/>
<line x1="91.5000" y1="-215.1340" x2="92.0000" y2="-215.0000" stroke="#8fc7ff" stroke-width="0.4853" vector-effect="non-scaling-stroke"/>
<line x1="92.0000" y1="-215.0000" x2="92.5000" y2="-215.1340" stroke="#8fc7ff" stroke-width="0.4853" vector-effect="non-scaling-stroke"/>
<line x1="92.5000" y1="-215.1340" x2="92.8660" y2="-215.5000" stroke="#8fc7ff" stroke-width="0.4853" vector-effect="non-scaling-stroke"/>
<line x1="92.8660" y1="-215.5000" x2="93.0000" y2="-216.0000" stroke="#8fc7ff" stroke-width="0.4853" vector-effect="non-scaling-stroke"/>
<line x1="93.5000" y1="-216.0000" x2="93.0000" y2="-216.0000" stroke="#8fc7ff" stroke-width="0.4853" vector-effect="non-scaling-stroke"/>
<line x1="93.5000" y1="-215.5000" x2="95.0000" y2="-215.5000" stroke="#8fc7ff" stroke-width="0.4853" vector-effect="non-scaling-stroke"/>
<line x1="95.0000" y1="-215.5000" x2="95.0000" y2="-216.5000" stroke="#8fc7ff" stroke-width="0.4853" vector-effect="non-scaling-stroke"/>
<line x1="95.0000" y1="-216.5000" x2="93.5000" y2="-216.5000" stroke="#8fc7ff" stroke-width="0.4853" vector-effect="non-scaling-stroke"/>
<line x1="93.5000" y1="-216.5000" x2="93.5000" y2="-215.5000" stroke="#8fc7ff" stroke-width="0.4853" vector-effect="non-scaling-stroke"/>
<line x1="95.0000" y1="-215.0000" x2="95.2588" y2="-215.0341" stroke="#8fc7ff" stroke-width="0.4853" vector-effect="non-scaling-stroke"/>
<line x1="95.2588" y1="-215.0341" x2="95.5000" y2="-215.1340" stroke="#8fc7ff" stroke-width="0.4853" vector-effect="non-scaling-stroke"/>
<line x1="95.5000" y1="-215.1340" x2="95.7071" y2="-215.2929" stroke="#8fc7ff" stroke-width="0.4853" vector-effect="non-scaling-stroke"/>
<line x1="95.7071" y1="-215.2929" x2="95.8660" y2="-215.5000" stroke="#8fc7ff" stroke-width="0.4853" vector-effect="non-scaling-stroke"/>
<line x1="95.8660" y1="-215.5000" x2="95.9659" y2="-215.7412" stroke="#8fc7ff" stroke-width="0.4853" vector-effect="non-scaling-stroke"/>
<line x1="95.9659" y1="-215.7412" x2="96.0000" y2="-216.0000" stroke="#8fc7ff" stroke-width="0.4853" vector-effect="non-scaling-stroke"/>
<line x1="96.0000" y1="-216.0000" x2="95.9659" y2="-216.2588" stroke="#8fc7ff" stroke-width="0.4853" vector-effect="non-scaling-stroke"/>
<line x1="95.9659" y1="-216.2588" x2="95.8660" y2="-216.5000" stroke="#8fc7ff" stroke-width="0.4853" vector-effect="non-scaling-stroke"/>
<line x1="95.8660" y1="-216.5000" x2="95.7071" y2="-216.7071" stroke="#8fc7ff" stroke-width="0.4853" vector-effect="non-scaling-stroke"/>
<line x1="95.7071" y1="-216.7071" x2="95.5000" y2="-216.8660" stroke="#8fc7ff" stroke-width="0.4853" vector-effect="non-scaling-stroke"/>
<line x1="95.5000" y1="-216.8660" x2="95.2588" y2="-216.9659" stroke="#8fc7ff" stroke-width="0.4853" vector-effect="non-scaling-stroke"/>
<line x1="95.2588" y1="-216.9659" x2="95.0000" y2="-217.0000" stroke="#8fc7ff" stroke-width="0.4853" vector-effect="non-scaling-stroke"/>
<line x1="96.0000" y1="-188.0000" x2="93.0000" y2="-188.0000" stroke="#8fc7ff" stroke-width="0.4853" vector-effect="non-scaling-stroke"/>
<line x1="93.0000" y1="-188.0000" x2="92.8660" y2="-188.5000" stroke="#8fc7ff" stroke-width="0.4853" vector-effect="non-scaling-stroke"/>
<line x1="92.8660" y1="-188.5000" x2="92.5000" y2="-188.8660" stroke="#8fc7ff" stroke-width="0.4853" vector-effect="non-scaling-stroke"/>
<line x1="92.5000" y1="-188.8660" x2="92.0000" y2="-189.0000" stroke="#8fc7ff" stroke-width="0.4853" vector-effect="non-scaling-stroke"/>
<line x1="92.0000" y1="-189.0000" x2="91.5000" y2="-188.8660" stroke="#8fc7ff" stroke-width="0.4853" vector-effect="non-scaling-stroke"/>
<line x1="91.5000" y1="-188.8660" x2="91.1340" y2="-188.5000" stroke="#8fc7ff" stroke-width="0.4853" vector-effect="non-scaling-stroke"/>
<line x1="91.1340" y1="-188.5000" x2="91.0000" y2="-188.0000" stroke="#8fc7ff" stroke-width="0.4853" vector-effect="non-scaling-stroke"/>
<line x1="91.0000" y1="-188.0000" x2="91.1340" y2="-187.5000" stroke="#8fc7ff" stroke-width="0.4853" vector-effect="non-scaling-stroke"/>
<line x1="91.1340" y1="-187.5000" x2="91.5000" y2="-187.1340" stroke="#8fc7ff" stroke-width="0.4853" vector-effect="non-scaling-stroke"/>
<line x1="91.5000" y1="-187.1340" x2="92.0000" y2="-187.0000" stroke="#8fc7ff" stroke-width="0.4853" vector-effect="non-scaling-stroke"/>
<line x1="92.0000" y1="-187.0000" x2="92.5000" y2="-187.1340" stroke="#8fc7ff" stroke-width="0.4853" vector-effect="non-scaling-stroke"/>
<line x1="92.5000" y1="-187.1340" x2="92.8660" y2="-187.5000" stroke="#8fc7ff" stroke-width="0.4853" vector-effect="non-scaling-stroke"/>
<line x1="92.8660" y1="-187.5000" x2="93.0000" y2="-188.0000" stroke="#8fc7ff" stroke-width="0.4853" vector-effect="non-scaling-stroke"/>
</svg>