0
SECTION
2
HEADER
9
$ACADVER
1
AC1009
9
$INSUNITS
70
4
0
ENDSEC
0
SECTION
2
ENTITIES
999
CNB Electrical Lab | R4 initial real CAD preview | REGENERATED
0
LINE
8
ENCLOSURE
10
0
20
0
30
0
11
1600
21
0
31
0
0
LINE
8
ENCLOSURE
10
1600
20
0
30
0
11
1600
21
1100
31
0
0
LINE
8
ENCLOSURE
10
1600
20
1100
30
0
11
0
21
1100
31
0
0
LINE
8
ENCLOSURE
10
0
20
1100
30
0
11
0
21
0
31
0
0
LINE
8
MOUNTING_PLATE
10
50
20
50
30
0
11
1550
21
50
31
0
0
LINE
8
MOUNTING_PLATE
10
1550
20
50
30
0
11
1550
21
1050
31
0
0
LINE
8
MOUNTING_PLATE
10
1550
20
1050
30
0
11
50
21
1050
31
0
0
LINE
8
MOUNTING_PLATE
10
50
20
1050
30
0
11
50
21
50
31
0
0
TEXT
8
TEXT
10
20
20
1075
30
0
40
12
1
Generic engineering enclosure · preview only
0
LINE
8
DIN_RAIL
10
90
20
850
30
0
11
1510
21
850
31
0
0
LINE
8
DIN_RAIL
10
1510
20
850
30
0
11
1510
21
857.5
31
0
0
LINE
8
DIN_RAIL
10
1510
20
857.5
30
0
11
90
21
857.5
31
0
0
LINE
8
DIN_RAIL
10
90
20
857.5
30
0
11
90
21
850
31
0
0
TEXT
8
TEXT
10
92
20
861.5
30
0
40
6
1
rail-top
0
LINE
8
DIN_RAIL
10
90
20
600
30
0
11
1510
21
600
31
0
0
LINE
8
DIN_RAIL
10
1510
20
600
30
0
11
1510
21
607.5
31
0
0
LINE
8
DIN_RAIL
10
1510
20
607.5
30
0
11
90
21
607.5
31
0
0
LINE
8
DIN_RAIL
10
90
20
607.5
30
0
11
90
21
600
31
0
0
TEXT
8
TEXT
10
92
20
611.5
30
0
40
6
1
rail-mid
0
LINE
8
DIN_RAIL
10
90
20
350
30
0
11
1510
21
350
31
0
0
LINE
8
DIN_RAIL
10
1510
20
350
30
0
11
1510
21
357.5
31
0
0
LINE
8
DIN_RAIL
10
1510
20
357.5
30
0
11
90
21
357.5
31
0
0
LINE
8
DIN_RAIL
10
90
20
357.5
30
0
11
90
21
350
31
0
0
TEXT
8
TEXT
10
92
20
361.5
30
0
40
6
1
rail-low
0
LINE
8
WIRE_DUCT
10
55
20
100
30
0
11
83
21
100
31
0
0
LINE
8
WIRE_DUCT
10
83
20
100
30
0
11
83
21
900
31
0
0
LINE
8
WIRE_DUCT
10
83
20
900
30
0
11
55
21
900
31
0
0
LINE
8
WIRE_DUCT
10
55
20
900
30
0
11
55
21
100
31
0
0
LINE
8
WIRE_DUCT
10
1517
20
100
30
0
11
1545
21
100
31
0
0
LINE
8
WIRE_DUCT
10
1545
20
100
30
0
11
1545
21
900
31
0
0
LINE
8
WIRE_DUCT
10
1545
20
900
30
0
11
1517
21
900
31
0
0
LINE
8
WIRE_DUCT
10
1517
20
900
30
0
11
1517
21
100
31
0
0
LINE
8
CAD_GEOMETRY
10
920
20
812
30
0
11
868
21
812
31
0
0
LINE
8
CAD_GEOMETRY
10
804
20
800
30
0
11
804
21
816
31
0
0
LINE
8
CAD_GEOMETRY
10
804
20
808
30
0
11
920
21
808
31
0
0
LINE
8
CAD_GEOMETRY
10
728
20
816
30
0
11
728
21
800
31
0
0
LINE
8
CAD_GEOMETRY
10
640
20
800
30
0
11
640
21
816
31
0
0
LINE
8
CAD_GEOMETRY
10
500
20
800
30
0
11
920
21
800
31
0
0
LINE
8
CAD_GEOMETRY
10
920
20
800
30
0
11
920
21
1097
31
0
0
LINE
8
CAD_GEOMETRY
10
920
20
1097
30
0
11
500
21
1097
31
0
0
LINE
8
CAD_GEOMETRY
10
500
20
1097
30
0
11
500
21
800
31
0
0
LINE
8
CAD_GEOMETRY
10
640
20
816
30
0
11
920
21
816
31
0
0
LINE
8
CAD_GEOMETRY
10
868
20
816
30
0
11
868
21
808
31
0
0
LINE
8
CAD_GEOMETRY
10
844
20
808
30
0
11
844
21
800
31
0
0
LINE
8
CAD_GEOMETRY
10
884
20
800
30
0
11
884
21
808
31
0
0
LINE
8
CAD_GEOMETRY
10
500
20
1089
30
0
11
920
21
1089
31
0
0
LINE
8
CAD_GEOMETRY
10
542
20
1097
30
0
11
542
21
1089
31
0
0
LINE
8
CAD_GEOMETRY
10
584
20
1097
30
0
11
584
21
1089
31
0
0
LINE
8
CAD_GEOMETRY
10
626
20
1097
30
0
11
626
21
1089
31
0
0
LINE
8
CAD_GEOMETRY
10
668
20
1097
30
0
11
668
21
1089
31
0
0
LINE
8
CAD_GEOMETRY
10
710
20
1097
30
0
11
710
21
1089
31
0
0
LINE
8
CAD_GEOMETRY
10
752
20
1097
30
0
11
752
21
1089
31
0
0
LINE
8
CAD_GEOMETRY
10
794
20
1097
30
0
11
794
21
1089
31
0
0
LINE
8
CAD_GEOMETRY
10
836
20
1097
30
0
11
836
21
1089
31
0
0
LINE
8
CAD_GEOMETRY
10
878
20
1097
30
0
11
878
21
1089
31
0
0
LINE
8
CAD_GEOMETRY
10
532
20
840
30
0
11
608
21
840
31
0
0
LINE
8
CAD_GEOMETRY
10
608
20
840
30
0
11
608
21
1060
31
0
0
LINE
8
CAD_GEOMETRY
10
608
20
1060
30
0
11
532
21
1060
31
0
0
LINE
8
CAD_GEOMETRY
10
532
20
1060
30
0
11
532
21
840
31
0
0
LINE
8
CAD_GEOMETRY
10
536
20
844
30
0
11
604
21
844
31
0
0
LINE
8
CAD_GEOMETRY
10
604
20
844
30
0
11
604
21
1056
31
0
0
LINE
8
CAD_GEOMETRY
10
604
20
1056
30
0
11
536
21
1056
31
0
0
LINE
8
CAD_GEOMETRY
10
536
20
1056
30
0
11
536
21
844
31
0
0
CIRCLE
8
CAD_GEOMETRY
10
592
20
1036
30
0
40
1
0
LINE
8
CAD_GEOMETRY
10
593.5
20
1036
30
0
11
593
21
1036
31
0
0
LINE
8
CAD_GEOMETRY
10
593.5
20
1035.5
30
0
11
595
21
1035.5
31
0
0
LINE
8
CAD_GEOMETRY
10
595
20
1035.5
30
0
11
595
21
1036.5
31
0
0
LINE
8
CAD_GEOMETRY
10
595
20
1036.5
30
0
11
593.5
21
1036.5
31
0
0
LINE
8
CAD_GEOMETRY
10
593.5
20
1036.5
30
0
11
593.5
21
1035.5
31
0
0
ARC
8
CAD_GEOMETRY
10
595
20
1036
30
0
40
1
50
-90
51
90
0
CIRCLE
8
CAD_GEOMETRY
10
592
20
1028
30
0
40
1
0
LINE
8
CAD_GEOMETRY
10
593.5
20
1028
30
0
11
593
21
1028
31
0
0
LINE
8
CAD_GEOMETRY
10
593.5
20
1027.5
30
0
11
595
21
1027.5
31
0
0
LINE
8
CAD_GEOMETRY
10
595
20
1027.5
30
0
11
595
21
1028.5
31
0
0
LINE
8
CAD_GEOMETRY
10
595
20
1028.5
30
0
11
593.5
21
1028.5
31
0
0
LINE
8
CAD_GEOMETRY
10
593.5
20
1028.5
30
0
11
593.5
21
1027.5
31
0
0
ARC
8
CAD_GEOMETRY
10
595
20
1028
30
0
40
1
50
-90
51
90
0
CIRCLE
8
CAD_GEOMETRY
10
592
20
1003
30
0
40
1
0
LINE
8
CAD_GEOMETRY
10
593.5
20
1003
30
0
11
593
21
1003
31
0
0
LINE
8
CAD_GEOMETRY
10
593.5
20
1002.5
30
0
11
595
21
1002.5
31
0
0
LINE
8
CAD_GEOMETRY
10
595
20
1002.5
30
0
11
595
21
1003.5
31
0
0
LINE
8
CAD_GEOMETRY
10
595
20
1003.5
30
0
11
593.5
21
1003.5
31
0
0
LINE
8
CAD_GEOMETRY
10
593.5
20
1003.5
30
0
11
593.5
21
1002.5
31
0
0
ARC
8
CAD_GEOMETRY
10
595
20
1003
30
0
40
1
50
-90
51
90
0
CIRCLE
8
CAD_GEOMETRY
10
592
20
1016
30
0
40
1
0
LINE
8
CAD_GEOMETRY
10
593.5
20
1016
30
0
11
593
21
1016
31
0
0
LINE
8
CAD_GEOMETRY
10
593.5
20
1015.5
30
0
11
595
21
1015.5
31
0
0
LINE
8
CAD_GEOMETRY
10
595
20
1015.5
30
0
11
595
21
1016.5
31
0
0
LINE
8
CAD_GEOMETRY
10
595
20
1016.5
30
0
11
593.5
21
1016.5
31
0
0
LINE
8
CAD_GEOMETRY
10
593.5
20
1016.5
30
0
11
593.5
21
1015.5
31
0
0
ARC
8
CAD_GEOMETRY
10
595
20
1016
30
0
40
1
50
-90
51
90
0
LINE
8
CAD_GEOMETRY
10
596
20
988
30
0
11
593
21
988
31
0
0
CIRCLE
8
CAD_GEOMETRY
10
592
20
988
30
0
40
1
0
LINE
8
COMPONENT
10
500
20
800
30
0
11
920
21
800
31
0
0
LINE
8
COMPONENT
10
920
20
800
30
0
11
920
21
1097
31
0
0
LINE
8
COMPONENT
10
920
20
1097
30
0
11
500
21
1097
31
0
0
LINE
8
COMPONENT
10
500
20
1097
30
0
11
500
21
800
31
0
0
LINE
8
COMPONENT_OUTLINE
10
500
20
800
30
0
11
920
21
800
31
0
0
LINE
8
COMPONENT_OUTLINE
10
920
20
800
30
0
11
920
21
1097
31
0
0
LINE
8
COMPONENT_OUTLINE
10
920
20
1097
30
0
11
500
21
1097
31
0
0
LINE
8
COMPONENT_OUTLINE
10
500
20
1097
30
0
11
500
21
800
31
0
0
LINE
8
COMPONENT_DETAIL
10
706
20
948.5
30
0
11
714
21
948.5
31
0
0
TEXT
8
TAG
10
503
20
948.5
30
0
40
12
1
-CAD1
0
TEXT
8
TEXT
10
503
20
810
30
0
40
4
1
simatic hmi hmi panel cad asset siemens bilddb
0
CIRCLE
8
TERMINAL
10
640
20
800
30
0
40
1.5
0
CIRCLE
8
TERMINAL
10
780
20
800
30
0
40
1.5
0
LINE
8
CAD_GEOMETRY
10
110
20
800
30
0
11
389.4
21
800
31
0
0
LINE
8
CAD_GEOMETRY
10
389.4
20
800
30
0
11
389.4
21
1231.8
31
0
0
LINE
8
CAD_GEOMETRY
10
389.4
20
1231.8
30
0
11
110
21
1231.8
31
0
0
LINE
8
CAD_GEOMETRY
10
110
20
1231.8
30
0
11
110
21
800
31
0
0
LINE
8
CAD_GEOMETRY
10
217
20
820
30
0
11
217
21
804
31
0
0
LINE
8
CAD_GEOMETRY
10
385
20
820
30
0
11
217.2
21
820
31
0
0
LINE
8
CAD_GEOMETRY
10
286
20
812
30
0
11
385.4
21
812
31
0
0
LINE
8
CAD_GEOMETRY
10
286
20
820
30
0
11
286
21
804
31
0
0
LINE
8
CAD_GEOMETRY
10
114
20
804
30
0
11
385.4
21
804
31
0
0
LINE
8
CAD_GEOMETRY
10
385.4
20
804
30
0
11
385.4
21
1227.8
31
0
0
LINE
8
CAD_GEOMETRY
10
385.4
20
1227.8
30
0
11
114
21
1227.8
31
0
0
LINE
8
CAD_GEOMETRY
10
114
20
1227.8
30
0
11
114
21
804
31
0
0
LINE
8
CAD_GEOMETRY
10
190
20
1144
30
0
11
198
21
1144
31
0
0
LINE
8
CAD_GEOMETRY
10
198
20
1144
30
0
11
198
21
1192.6251
31
0
0
LINE
8
CAD_GEOMETRY
10
198
20
1192.6251
30
0
11
190
21
1192.6251
31
0
0
LINE
8
CAD_GEOMETRY
10
190
20
1192.6251
30
0
11
190
21
1144
31
0
0
LINE
8
CAD_GEOMETRY
10
146
20
1144
30
0
11
154
21
1144
31
0
0
LINE
8
CAD_GEOMETRY
10
154
20
1144
30
0
11
154
21
1192
31
0
0
LINE
8
CAD_GEOMETRY
10
154
20
1192
30
0
11
146
21
1192
31
0
0
LINE
8
CAD_GEOMETRY
10
146
20
1192
30
0
11
146
21
1144
31
0
0
LINE
8
CAD_GEOMETRY
10
190
20
1113.4217
30
0
11
198
21
1113.4217
31
0
0
LINE
8
CAD_GEOMETRY
10
198
20
1113.4217
30
0
11
198
21
1140
31
0
0
LINE
8
CAD_GEOMETRY
10
198
20
1140
30
0
11
190
21
1140
31
0
0
LINE
8
CAD_GEOMETRY
10
190
20
1140
30
0
11
190
21
1113.4217
31
0
0
LINE
8
CAD_GEOMETRY
10
146
20
1112
30
0
11
198
21
1112
31
0
0
LINE
8
CAD_GEOMETRY
10
198
20
1112
30
0
11
198
21
1196
31
0
0
LINE
8
CAD_GEOMETRY
10
198
20
1196
30
0
11
146
21
1196
31
0
0
LINE
8
CAD_GEOMETRY
10
146
20
1196
30
0
11
146
21
1112
31
0
0
LINE
8
CAD_GEOMETRY
10
198
20
1136
30
0
11
195
21
1136
31
0
0
CIRCLE
8
CAD_GEOMETRY
10
194
20
1136
30
0
40
1
0
LINE
8
CAD_GEOMETRY
10
146
20
1188
30
0
11
149
21
1188
31
0
0
CIRCLE
8
CAD_GEOMETRY
10
150
20
1188
30
0
40
1
0
LINE
8
CAD_GEOMETRY
10
146
20
1180
30
0
11
149
21
1180
31
0
0
CIRCLE
8
CAD_GEOMETRY
10
150
20
1180
30
0
40
1
0
LINE
8
CAD_GEOMETRY
10
146
20
1172
30
0
11
149
21
1172
31
0
0
CIRCLE
8
CAD_GEOMETRY
10
150
20
1172
30
0
40
1
0
LINE
8
CAD_GEOMETRY
10
146
20
1156
30
0
11
149
21
1156
31
0
0
CIRCLE
8
CAD_GEOMETRY
10
150
20
1156
30
0
40
1
0
LINE
8
CAD_GEOMETRY
10
146
20
1148
30
0
11
149
21
1148
31
0
0
CIRCLE
8
CAD_GEOMETRY
10
150
20
1148
30
0
40
1
0
LINE
8
CAD_GEOMETRY
10
198
20
1188
30
0
11
195
21
1188
31
0
0
CIRCLE
8
CAD_GEOMETRY
10
194
20
1188
30
0
40
1
0
LINE
8
CAD_GEOMETRY
10
198
20
1180
30
0
11
195
21
1180
31
0
0
CIRCLE
8
CAD_GEOMETRY
10
194
20
1180
30
0
40
1
0
LINE
8
CAD_GEOMETRY
10
198
20
1172
30
0
11
195
21
1172
31
0
0
CIRCLE
8
CAD_GEOMETRY
10
194
20
1172
30
0
40
1
0
LINE
8
CAD_GEOMETRY
10
198
20
1164
30
0
11
195
21
1164
31
0
0
CIRCLE
8
CAD_GEOMETRY
10
194
20
1164
30
0
40
1
0
LINE
8
CAD_GEOMETRY
10
198
20
1156
30
0
11
195
21
1156
31
0
0
CIRCLE
8
CAD_GEOMETRY
10
194
20
1156
30
0
40
1
0
LINE
8
CAD_GEOMETRY
10
198
20
1148
30
0
11
195
21
1148
31
0
0
CIRCLE
8
CAD_GEOMETRY
10
194
20
1148
30
0
40
1
0
LINE
8
CAD_GEOMETRY
10
146
20
1164
30
0
11
149
21
1164
31
0
0
CIRCLE
8
CAD_GEOMETRY
10
150
20
1164
30
0
40
1
0
LINE
8
COMPONENT
10
110
20
800
30
0
11
389.4
21
800
31
0
0
LINE
8
COMPONENT
10
389.4
20
800
30
0
11
389.4
21
1231.8
31
0
0
LINE
8
COMPONENT
10
389.4
20
1231.8
30
0
11
110
21
1231.8
31
0
0
LINE
8
COMPONENT
10
110
20
1231.8
30
0
11
110
21
800
31
0
0
LINE
8
COMPONENT_OUTLINE
10
110
20
800
30
0
11
389.4
21
800
31
0
0
LINE
8
COMPONENT_OUTLINE
10
389.4
20
800
30
0
11
389.4
21
1231.8
31
0
0
LINE
8
COMPONENT_OUTLINE
10
389.4
20
1231.8
30
0
11
110
21
1231.8
31
0
0
LINE
8
COMPONENT_OUTLINE
10
110
20
1231.8
30
0
11
110
21
800
31
0
0
LINE
8
COMPONENT_DETAIL
10
245.7
20
1015.9
30
0
11
253.7
21
1015.9
31
0
0
TEXT
8
TAG
10
113
20
1015.9
30
0
40
12
1
-CAD2
0
TEXT
8
TEXT
10
113
20
810
30
0
40
4
1
simatic top connect terminal accessory cad asset siemens bilddb
0
CIRCLE
8
TERMINAL
10
203.1333
20
800
30
0
40
1.5
0
CIRCLE
8
TERMINAL
10
296.2667
20
800
30
0
40
1.5
0
LINE
8
CAD_GEOMETRY
10
612.5997
20
800
30
0
11
1137.5997
21
800
31
0
0
LINE
8
CAD_GEOMETRY
10
1137.5997
20
800
30
0
11
1137.5997
21
1149.25
31
0
0
LINE
8
CAD_GEOMETRY
10
1137.5997
20
1149.25
30
0
11
612.5997
21
1149.25
31
0
0
LINE
8
CAD_GEOMETRY
10
612.5997
20
1149.25
30
0
11
612.5997
21
800
31
0
0
LINE
8
CAD_GEOMETRY
10
617.5997
20
805
30
0
11
1132.5997
21
805
31
0
0
LINE
8
CAD_GEOMETRY
10
1132.5997
20
805
30
0
11
1132.5997
21
1145
31
0
0
LINE
8
CAD_GEOMETRY
10
1132.5997
20
1145
30
0
11
617.5997
21
1145
31
0
0
LINE
8
CAD_GEOMETRY
10
617.5997
20
1145
30
0
11
617.5997
21
805
31
0
0
LINE
8
CAD_GEOMETRY
10
922.5997
20
825
30
0
11
922.5997
21
805
31
0
0
LINE
8
CAD_GEOMETRY
10
922.5997
20
825
30
0
11
1132.5997
21
825
31
0
0
LINE
8
CAD_GEOMETRY
10
982.5997
20
825
30
0
11
982.5997
21
805
31
0
0
LINE
8
CAD_GEOMETRY
10
982.5997
20
815
30
0
11
1132.5997
21
815
31
0
0
LINE
8
CAD_GEOMETRY
10
722.5997
20
970
30
0
11
742.5997
21
970
31
0
0
LINE
8
CAD_GEOMETRY
10
722.5997
20
970
30
0
11
722.5997
21
905
31
0
0
LINE
8
CAD_GEOMETRY
10
742.5997
20
970
30
0
11
742.5997
21
1000
31
0
0
LINE
8
CAD_GEOMETRY
10
745.0997
20
970
30
0
11
777.5997
21
970
31
0
0
LINE
8
CAD_GEOMETRY
10
842.5997
20
970
30
0
11
780.0997
21
970
31
0
0
LINE
8
CAD_GEOMETRY
10
842.5997
20
970
30
0
11
842.5997
21
1000
31
0
0
LINE
8
CAD_GEOMETRY
10
777.5997
20
970
30
0
11
777.5997
21
1000
31
0
0
LINE
8
CAD_GEOMETRY
10
767.5997
20
905
30
0
11
847.5997
21
905
31
0
0
LINE
8
CAD_GEOMETRY
10
847.5997
20
905
30
0
11
847.5997
21
915
31
0
0
LINE
8
CAD_GEOMETRY
10
847.5997
20
915
30
0
11
767.5997
21
915
31
0
0
LINE
8
CAD_GEOMETRY
10
767.5997
20
915
30
0
11
767.5997
21
905
31
0
0
LINE
8
CAD_GEOMETRY
10
672.5997
20
990
30
0
11
752.5997
21
990
31
0
0
LINE
8
CAD_GEOMETRY
10
752.5997
20
990
30
0
11
752.5997
21
1000
31
0
0
LINE
8
CAD_GEOMETRY
10
752.5997
20
1000
30
0
11
672.5997
21
1000
31
0
0
LINE
8
CAD_GEOMETRY
10
672.5997
20
1000
30
0
11
672.5997
21
990
31
0
0
LINE
8
CAD_GEOMETRY
10
672.5997
20
905
30
0
11
762.5997
21
905
31
0
0
LINE
8
CAD_GEOMETRY
10
762.5997
20
905
30
0
11
762.5997
21
915
31
0
0
LINE
8
CAD_GEOMETRY
10
762.5997
20
915
30
0
11
672.5997
21
915
31
0
0
LINE
8
CAD_GEOMETRY
10
672.5997
20
915
30
0
11
672.5997
21
905
31
0
0
LINE
8
CAD_GEOMETRY
10
757.5997
20
990
30
0
11
817.5997
21
990
31
0
0
LINE
8
CAD_GEOMETRY
10
817.5997
20
990
30
0
11
817.5997
21
1000
31
0
0
LINE
8
CAD_GEOMETRY
10
817.5997
20
1000
30
0
11
757.5997
21
1000
31
0
0
LINE
8
CAD_GEOMETRY
10
757.5997
20
1000
30
0
11
757.5997
21
990
31
0
0
LINE
8
CAD_GEOMETRY
10
822.5997
20
990
30
0
11
982.5997
21
990
31
0
0
LINE
8
CAD_GEOMETRY
10
982.5997
20
990
30
0
11
982.5997
21
1000
31
0
0
LINE
8
CAD_GEOMETRY
10
982.5997
20
1000
30
0
11
822.5997
21
1000
31
0
0
LINE
8
CAD_GEOMETRY
10
822.5997
20
1000
30
0
11
822.5997
21
990
31
0
0
LINE
8
CAD_GEOMETRY
10
725.0997
20
970
30
0
11
722.5997
21
970
31
0
0
LINE
8
CAD_GEOMETRY
10
722.5997
20
970
30
0
11
722.5997
21
967.5
31
0
0
LINE
8
CAD_GEOMETRY
10
742.5997
20
972.5
30
0
11
742.5997
21
970
31
0
0
LINE
8
CAD_GEOMETRY
10
740.0997
20
970
30
0
11
745.0997
21
970
31
0
0
CIRCLE
8
CAD_GEOMETRY
10
742.5997
20
970
30
0
40
0.9375
0
LINE
8
CAD_GEOMETRY
10
842.5997
20
972.5
30
0
11
842.5997
21
970
31
0
0
LINE
8
CAD_GEOMETRY
10
840.0997
20
970
30
0
11
842.5997
21
970
31
0
0
LINE
8
CAD_GEOMETRY
10
777.5997
20
972.5
30
0
11
777.5997
21
970
31
0
0
LINE
8
CAD_GEOMETRY
10
775.0997
20
970
30
0
11
780.0997
21
970
31
0
0
CIRCLE
8
CAD_GEOMETRY
10
777.5997
20
970
30
0
40
0.9375
0
LINE
8
CAD_GEOMETRY
10
672.5997
20
955
30
0
11
692.5997
21
955
31
0
0
LINE
8
CAD_GEOMETRY
10
692.5997
20
955
30
0
11
692.5997
21
960
31
0
0
LINE
8
CAD_GEOMETRY
10
692.5997
20
960
30
0
11
672.5997
21
960
31
0
0
LINE
8
CAD_GEOMETRY
10
672.5997
20
960
30
0
11
672.5997
21
955
31
0
0
LINE
8
CAD_GEOMETRY
10
682.5997
20
960
30
0
11
682.5997
21
955
31
0
0
LINE
8
CAD_GEOMETRY
10
687.5997
20
955
30
0
11
687.5997
21
960
31
0
0
LINE
8
CAD_GEOMETRY
10
672.5997
20
960
30
0
11
692.5997
21
960
31
0
0
LINE
8
CAD_GEOMETRY
10
692.5997
20
960
30
0
11
692.5997
21
965
31
0
0
LINE
8
CAD_GEOMETRY
10
692.5997
20
965
30
0
11
672.5997
21
965
31
0
0
LINE
8
CAD_GEOMETRY
10
672.5997
20
965
30
0
11
672.5997
21
960
31
0
0
LINE
8
CAD_GEOMETRY
10
682.5997
20
965
30
0
11
682.5997
21
960
31
0
0
LINE
8
CAD_GEOMETRY
10
687.5997
20
960
30
0
11
687.5997
21
965
31
0
0
LINE
8
CAD_GEOMETRY
10
667.5997
20
905
30
0
11
987.5997
21
905
31
0
0
LINE
8
CAD_GEOMETRY
10
987.5997
20
905
30
0
11
987.5997
21
1000
31
0
0
LINE
8
CAD_GEOMETRY
10
987.5997
20
1000
30
0
11
667.5997
21
1000
31
0
0
LINE
8
CAD_GEOMETRY
10
667.5997
20
1000
30
0
11
667.5997
21
905
31
0
0
LINE
8
CAD_GEOMETRY
10
722.5997
20
900
30
0
11
722.5997
21
905
31
0
0
LINE
8
CAD_GEOMETRY
10
777.5997
20
905
30
0
11
777.5997
21
900
31
0
0
LINE
8
CAD_GEOMETRY
10
787.5997
20
905
30
0
11
787.5997
21
900
31
0
0
LINE
8
CAD_GEOMETRY
10
797.5997
20
905
30
0
11
797.5997
21
900
31
0
0
LINE
8
CAD_GEOMETRY
10
817.5997
20
905
30
0
11
817.5997
21
900
31
0
0
LINE
8
CAD_GEOMETRY
10
827.5997
20
905
30
0
11
827.5997
21
900
31
0
0
LINE
8
CAD_GEOMETRY
10
837.5997
20
905
30
0
11
837.5997
21
900
31
0
0
LINE
8
CAD_GEOMETRY
10
702.5997
20
1000
30
0
11
702.5997
21
1005
31
0
0
LINE
8
CAD_GEOMETRY
10
732.5997
20
1000
30
0
11
732.5997
21
1005
31
0
0
LINE
8
CAD_GEOMETRY
10
712.5997
20
1000
30
0
11
712.5997
21
1005
31
0
0
LINE
8
CAD_GEOMETRY
10
722.5997
20
1000
30
0
11
722.5997
21
1005
31
0
0
LINE
8
CAD_GEOMETRY
10
692.5997
20
1000
30
0
11
692.5997
21
1005
31
0
0
LINE
8
CAD_GEOMETRY
10
682.5997
20
1000
30
0
11
682.5997
21
1005
31
0
0
LINE
8
CAD_GEOMETRY
10
742.5997
20
1005
30
0
11
742.5997
21
1000
31
0
0
LINE
8
CAD_GEOMETRY
10
767.5997
20
1000
30
0
11
767.5997
21
1005
31
0
0
LINE
8
CAD_GEOMETRY
10
777.5997
20
1005
30
0
11
777.5997
21
1000
31
0
0
LINE
8
CAD_GEOMETRY
10
797.5997
20
1000
30
0
11
797.5997
21
1005
31
0
0
LINE
8
CAD_GEOMETRY
10
807.5997
20
1000
30
0
11
807.5997
21
1005
31
0
0
LINE
8
CAD_GEOMETRY
10
712.5997
20
905
30
0
11
712.5997
21
900
31
0
0
LINE
8
CAD_GEOMETRY
10
742.5997
20
905
30
0
11
742.5997
21
900
31
0
0
LINE
8
CAD_GEOMETRY
10
752.5997
20
905
30
0
11
752.5997
21
900
31
0
0
LINE
8
CAD_GEOMETRY
10
682.5997
20
905
30
0
11
682.5997
21
900
31
0
0
LINE
8
CAD_GEOMETRY
10
692.5997
20
905
30
0
11
692.5997
21
900
31
0
0
LINE
8
CAD_GEOMETRY
10
852.5997
20
1000
30
0
11
852.5997
21
1005
31
0
0
LINE
8
CAD_GEOMETRY
10
832.5997
20
1000
30
0
11
832.5997
21
1005
31
0
0
LINE
8
CAD_GEOMETRY
10
842.5997
20
1005
30
0
11
842.5997
21
1000
31
0
0
LINE
8
CAD_GEOMETRY
10
872.5997
20
1000
30
0
11
872.5997
21
1005
31
0
0
LINE
8
CAD_GEOMETRY
10
892.5997
20
1000
30
0
11
892.5997
21
1005
31
0
0
LINE
8
CAD_GEOMETRY
10
912.5997
20
1000
30
0
11
912.5997
21
1005
31
0
0
LINE
8
CAD_GEOMETRY
10
932.5997
20
1000
30
0
11
932.5997
21
1005
31
0
0
LINE
8
CAD_GEOMETRY
10
952.5997
20
1000
30
0
11
952.5997
21
1005
31
0
0
LINE
8
CAD_GEOMETRY
10
972.5997
20
1000
30
0
11
972.5997
21
1005
31
0
0
LINE
8
CAD_GEOMETRY
10
977.5997
20
900
30
0
11
977.5997
21
905
31
0
0
LINE
8
CAD_GEOMETRY
10
742.5997
20
1105
30
0
11
787.5997
21
1105
31
0
0
LINE
8
CAD_GEOMETRY
10
787.5997
20
1105
30
0
11
787.5997
21
1115
31
0
0
LINE
8
CAD_GEOMETRY
10
787.5997
20
1115
30
0
11
742.5997
21
1115
31
0
0
LINE
8
CAD_GEOMETRY
10
742.5997
20
1115
30
0
11
742.5997
21
1105
31
0
0
LINE
8
CAD_GEOMETRY
10
742.5997
20
1035
30
0
11
787.5997
21
1035
31
0
0
LINE
8
CAD_GEOMETRY
10
787.5997
20
1035
30
0
11
787.5997
21
1045
31
0
0
LINE
8
CAD_GEOMETRY
10
787.5997
20
1045
30
0
11
742.5997
21
1045
31
0
0
LINE
8
CAD_GEOMETRY
10
742.5997
20
1045
30
0
11
742.5997
21
1035
31
0
0
LINE
8
CAD_GEOMETRY
10
832.5997
20
1105
30
0
11
867.5997
21
1105
31
0
0
LINE
8
CAD_GEOMETRY
10
867.5997
20
1105
30
0
11
867.5997
21
1115
31
0
0
LINE
8
CAD_GEOMETRY
10
867.5997
20
1115
30
0
11
832.5997
21
1115
31
0
0
LINE
8
CAD_GEOMETRY
10
832.5997
20
1115
30
0
11
832.5997
21
1105
31
0
0
LINE
8
CAD_GEOMETRY
10
672.5997
20
1035
30
0
11
702.5997
21
1035
31
0
0
LINE
8
CAD_GEOMETRY
10
702.5997
20
1035
30
0
11
702.5997
21
1045
31
0
0
LINE
8
CAD_GEOMETRY
10
702.5997
20
1045
30
0
11
672.5997
21
1045
31
0
0
LINE
8
CAD_GEOMETRY
10
672.5997
20
1045
30
0
11
672.5997
21
1035
31
0
0
LINE
8
CAD_GEOMETRY
10
707.5997
20
1035
30
0
11
737.5997
21
1035
31
0
0
LINE
8
CAD_GEOMETRY
10
737.5997
20
1035
30
0
11
737.5997
21
1045
31
0
0
LINE
8
CAD_GEOMETRY
10
737.5997
20
1045
30
0
11
707.5997
21
1045
31
0
0
LINE
8
CAD_GEOMETRY
10
707.5997
20
1045
30
0
11
707.5997
21
1035
31
0
0
LINE
8
CAD_GEOMETRY
10
802.5997
20
1105
30
0
11
827.5997
21
1105
31
0
0
LINE
8
CAD_GEOMETRY
10
827.5997
20
1105
30
0
11
827.5997
21
1115
31
0
0
LINE
8
CAD_GEOMETRY
10
827.5997
20
1115
30
0
11
802.5997
21
1115
31
0
0
LINE
8
CAD_GEOMETRY
10
802.5997
20
1115
30
0
11
802.5997
21
1105
31
0
0
LINE
8
CAD_GEOMETRY
10
757.5997
20
1050.25
30
0
11
757.5997
21
1055.25
31
0
0
LINE
8
CAD_GEOMETRY
10
757.5997
20
1058.75
30
0
11
758.3497
21
1059.5
31
0
0
LINE
8
CAD_GEOMETRY
10
758.3497
20
1059.5
30
0
11
759.3497
21
1060
31
0
0
LINE
8
CAD_GEOMETRY
10
759.3497
20
1060
30
0
11
760.5997
21
1060
31
0
0
LINE
8
CAD_GEOMETRY
10
760.5997
20
1060
30
0
11
761.5997
21
1059.5
31
0
0
LINE
8
CAD_GEOMETRY
10
761.5997
20
1059.5
30
0
11
761.8497
21
1058.75
31
0
0
LINE
8
CAD_GEOMETRY
10
761.8497
20
1058.75
30
0
11
762.5997
21
1057.75
31
0
0
LINE
8
CAD_GEOMETRY
10
762.5997
20
1057.75
30
0
11
763.5997
21
1057.5
31
0
0
LINE
8
CAD_GEOMETRY
10
763.5997
20
1057.5
30
0
11
765.0997
21
1057.5
31
0
0
LINE
8
CAD_GEOMETRY
10
765.0997
20
1057.5
30
0
11
766.0997
21
1058
31
0
0
LINE
8
CAD_GEOMETRY
10
766.0997
20
1058
30
0
11
767.0997
21
1058.75
31
0
0
LINE
8
CAD_GEOMETRY
10
767.5997
20
1050.25
30
0
11
767.5997
21
1055.25
31
0
0
LINE
8
CAD_GEOMETRY
10
747.5997
20
1050.25
30
0
11
747.5997
21
1055.25
31
0
0
LINE
8
CAD_GEOMETRY
10
767.5997
20
1070.25
30
0
11
767.5997
21
1075.25
31
0
0
LINE
8
CAD_GEOMETRY
10
747.5997
20
1070.25
30
0
11
747.5997
21
1075.25
31
0
0
LINE
8
CAD_GEOMETRY
10
745.0997
20
1055.25
30
0
11
770.0997
21
1070.25
31
0
0
LINE
8
CAD_GEOMETRY
10
745.0997
20
1070.25
30
0
11
745.0997
21
1055.25
31
0
0
LINE
8
CAD_GEOMETRY
10
745.0997
20
1055.25
30
0
11
770.0997
21
1055.25
31
0
0
LINE
8
CAD_GEOMETRY
10
770.0997
20
1055.25
30
0
11
770.0997
21
1070.25
31
0
0
LINE
8
CAD_GEOMETRY
10
770.0997
20
1070.25
30
0
11
745.0997
21
1070.25
31
0
0
LINE
8
CAD_GEOMETRY
10
757.5997
20
1070.25
30
0
11
757.5997
21
1075.25
31
0
0
LINE
8
CAD_GEOMETRY
10
747.5997
20
1066.25
30
0
11
748.3497
21
1067
31
0
0
LINE
8
CAD_GEOMETRY
10
748.3497
20
1067
30
0
11
749.3497
21
1067.5
31
0
0
LINE
8
CAD_GEOMETRY
10
749.3497
20
1067.5
30
0
11
750.5997
21
1067.5
31
0
0
LINE
8
CAD_GEOMETRY
10
750.5997
20
1067.5
30
0
11
751.5997
21
1067
31
0
0
LINE
8
CAD_GEOMETRY
10
751.5997
20
1067
30
0
11
751.8497
21
1066.25
31
0
0
LINE
8
CAD_GEOMETRY
10
751.8497
20
1066.25
30
0
11
752.5997
21
1065.25
31
0
0
LINE
8
CAD_GEOMETRY
10
752.5997
20
1065.25
30
0
11
753.5997
21
1065
31
0
0
LINE
8
CAD_GEOMETRY
10
753.5997
20
1065
30
0
11
755.0997
21
1065
31
0
0
LINE
8
CAD_GEOMETRY
10
755.0997
20
1065
30
0
11
756.0997
21
1065.5
31
0
0
LINE
8
CAD_GEOMETRY
10
756.0997
20
1065.5
30
0
11
757.0997
21
1066.25
31
0
0
LINE
8
CAD_GEOMETRY
10
802.5997
20
1035
30
0
11
837.5997
21
1035
31
0
0
LINE
8
CAD_GEOMETRY
10
837.5997
20
1035
30
0
11
837.5997
21
1045
31
0
0
LINE
8
CAD_GEOMETRY
10
837.5997
20
1045
30
0
11
802.5997
21
1045
31
0
0
LINE
8
CAD_GEOMETRY
10
802.5997
20
1045
30
0
11
802.5997
21
1035
31
0
0
LINE
8
CAD_GEOMETRY
10
822.756
20
1042.125
30
0
11
820.8185
21
1036.875
31
0
0
LINE
8
CAD_GEOMETRY
10
819.7247
20
1036.125
30
0
11
807.2872
21
1036.125
31
0
0
LINE
8
CAD_GEOMETRY
10
805.4435
20
1043.7188
30
0
11
821.6622
21
1043.7188
31
0
0
LINE
8
CAD_GEOMETRY
10
806.1935
20
1036.9063
30
0
11
804.3497
21
1042.1563
31
0
0
CIRCLE
8
CAD_GEOMETRY
10
818.756
20
1038.4063
30
0
40
0.875
0
CIRCLE
8
CAD_GEOMETRY
10
820.5372
20
1041.5625
30
0
40
0.875
0
CIRCLE
8
CAD_GEOMETRY
10
806.4747
20
1041.5625
30
0
40
0.875
0
CIRCLE
8
CAD_GEOMETRY
10
808.1935
20
1038.4063
30
0
40
0.875
0
CIRCLE
8
CAD_GEOMETRY
10
810.006
20
1041.5625
30
0
40
0.875
0
CIRCLE
8
CAD_GEOMETRY
10
817.0372
20
1041.5625
30
0
40
0.875
0
CIRCLE
8
CAD_GEOMETRY
10
815.2247
20
1038.4063
30
0
40
0.375
0
CIRCLE
8
CAD_GEOMETRY
10
811.7247
20
1038.4063
30
0
40
0.375
0
CIRCLE
8
CAD_GEOMETRY
10
813.506
20
1041.5625
30
0
40
0.375
0
LINE
8
CAD_GEOMETRY
10
821.6622
20
1043.7188
30
0
11
821.6622
21
1043.7188
31
0
0
LINE
8
CAD_GEOMETRY
10
821.6622
20
1043.7188
30
0
11
822.0997
21
1043.625
31
0
0
LINE
8
CAD_GEOMETRY
10
822.0997
20
1043.625
30
0
11
822.4747
21
1043.375
31
0
0
LINE
8
CAD_GEOMETRY
10
822.4747
20
1043.375
30
0
11
822.7247
21
1043.0313
31
0
0
LINE
8
CAD_GEOMETRY
10
822.7247
20
1043.0313
30
0
11
822.8497
21
1042.5938
31
0
0
LINE
8
CAD_GEOMETRY
10
822.8497
20
1042.5938
30
0
11
822.756
21
1042.125
31
0
0
LINE
8
CAD_GEOMETRY
10
804.3497
20
1042.1563
30
0
11
804.3497
21
1042.1563
31
0
0
LINE
8
CAD_GEOMETRY
10
804.3497
20
1042.1563
30
0
11
804.2872
21
1042.5938
31
0
0
LINE
8
CAD_GEOMETRY
10
804.2872
20
1042.5938
30
0
11
804.381
21
1043.0313
31
0
0
LINE
8
CAD_GEOMETRY
10
804.381
20
1043.0313
30
0
11
804.631
21
1043.4063
31
0
0
LINE
8
CAD_GEOMETRY
10
804.631
20
1043.4063
30
0
11
805.006
21
1043.625
31
0
0
LINE
8
CAD_GEOMETRY
10
805.006
20
1043.625
30
0
11
805.4435
21
1043.7188
31
0
0
LINE
8
CAD_GEOMETRY
10
820.8497
20
1036.875
30
0
11
820.8497
21
1036.875
31
0
0
LINE
8
CAD_GEOMETRY
10
820.8497
20
1036.875
30
0
11
820.6622
21
1036.5625
31
0
0
LINE
8
CAD_GEOMETRY
10
820.6622
20
1036.5625
30
0
11
820.4122
21
1036.3125
31
0
0
LINE
8
CAD_GEOMETRY
10
820.4122
20
1036.3125
30
0
11
820.0997
21
1036.1563
31
0
0
LINE
8
CAD_GEOMETRY
10
820.0997
20
1036.1563
30
0
11
819.756
21
1036.0938
31
0
0
LINE
8
CAD_GEOMETRY
10
807.3185
20
1036.125
30
0
11
807.3185
21
1036.125
31
0
0
LINE
8
CAD_GEOMETRY
10
807.3185
20
1036.125
30
0
11
806.9747
21
1036.1875
31
0
0
LINE
8
CAD_GEOMETRY
10
806.9747
20
1036.1875
30
0
11
806.631
21
1036.3438
31
0
0
LINE
8
CAD_GEOMETRY
10
806.631
20
1036.3438
30
0
11
806.381
21
1036.5938
31
0
0
LINE
8
CAD_GEOMETRY
10
806.381
20
1036.5938
30
0
11
806.2247
21
1036.9063
31
0
0
LINE
8
CAD_GEOMETRY
10
672.5997
20
1105
30
0
11
707.5997
21
1105
31
0
0
LINE
8
CAD_GEOMETRY
10
707.5997
20
1105
30
0
11
707.5997
21
1115
31
0
0
LINE
8
CAD_GEOMETRY
10
707.5997
20
1115
30
0
11
672.5997
21
1115
31
0
0
LINE
8
CAD_GEOMETRY
10
672.5997
20
1115
30
0
11
672.5997
21
1105
31
0
0
CIRCLE
8
CAD_GEOMETRY
10
675.3497
20
1110
30
0
40
0.75
0
CIRCLE
8
CAD_GEOMETRY
10
679.3497
20
1109
30
0
40
0.5
0
CIRCLE
8
CAD_GEOMETRY
10
679.8497
20
1111.25
30
0
40
0.5
0
LINE
8
CAD_GEOMETRY
10
675.3497
20
1110
30
0
11
681.3497
21
1110
31
0
0
LINE
8
CAD_GEOMETRY
10
681.3497
20
1110
30
0
11
680.5997
21
1109.5
31
0
0
LINE
8
CAD_GEOMETRY
10
681.3497
20
1110
30
0
11
680.5997
21
1110.5
31
0
0
LINE
8
CAD_GEOMETRY
10
680.5997
20
1109.5
30
0
11
680.5997
21
1110.5
31
0
0
LINE
8
CAD_GEOMETRY
10
678.5997
20
1109.25
30
0
11
677.8497
21
1110
31
0
0
LINE
8
CAD_GEOMETRY
10
677.8497
20
1110.75
30
0
11
677.0997
21
1110
31
0
0
LINE
8
CAD_GEOMETRY
10
679.3497
20
1109
30
0
11
678.5997
21
1109.25
31
0
0
LINE
8
CAD_GEOMETRY
10
679.5997
20
1111.25
30
0
11
679.0997
21
1111.25
31
0
0
LINE
8
CAD_GEOMETRY
10
679.0997
20
1111.25
30
0
11
677.8497
21
1110.75
31
0
0
LINE
8
CAD_GEOMETRY
10
673.8497
20
1107.75
30
0
11
682.0997
21
1107.75
31
0
0
LINE
8
CAD_GEOMETRY
10
682.0997
20
1107.75
30
0
11
682.0997
21
1112.25
31
0
0
LINE
8
CAD_GEOMETRY
10
682.0997
20
1112.25
30
0
11
673.8497
21
1112.25
31
0
0
LINE
8
CAD_GEOMETRY
10
673.8497
20
1112.25
30
0
11
673.8497
21
1107.75
31
0
0
LINE
8
CAD_GEOMETRY
10
685.4904
20
1109.8438
30
0
11
685.4904
21
1110.0781
31
0
0
LINE
8
CAD_GEOMETRY
10
685.4904
20
1110.0781
30
0
11
685.9591
21
1110.0781
31
0
0
LINE
8
CAD_GEOMETRY
10
686.2404
20
1110.0781
30
0
11
686.4279
21
1110.0781
31
0
0
LINE
8
CAD_GEOMETRY
10
686.7091
20
1110.0781
30
0
11
686.8966
21
1110.0781
31
0
0
LINE
8
CAD_GEOMETRY
10
687.1779
20
1110.0781
30
0
11
687.3654
21
1110.0781
31
0
0
LINE
8
CAD_GEOMETRY
10
687.6466
20
1110.0781
30
0
11
687.8341
21
1110.0781
31
0
0
LINE
8
CAD_GEOMETRY
10
688.1154
20
1110.0781
30
0
11
688.5372
21
1110.0781
31
0
0
LINE
8
CAD_GEOMETRY
10
688.5372
20
1110.0781
30
0
11
688.5372
21
1109.8438
31
0
0
LINE
8
CAD_GEOMETRY
10
685.256
20
1109.8438
30
0
11
685.256
21
1109.1406
31
0
0
LINE
8
CAD_GEOMETRY
10
685.256
20
1109.1406
30
0
11
688.7716
21
1109.1406
31
0
0
LINE
8
CAD_GEOMETRY
10
688.7716
20
1109.1406
30
0
11
688.7716
21
1109.8438
31
0
0
LINE
8
CAD_GEOMETRY
10
688.7716
20
1109.8438
30
0
11
688.5372
21
1109.8438
31
0
0
LINE
8
CAD_GEOMETRY
10
685.256
20
1109.8438
30
0
11
685.4904
21
1109.8438
31
0
0
LINE
8
CAD_GEOMETRY
10
685.0216
20
1110.7813
30
0
11
689.006
21
1110.7813
31
0
0
LINE
8
CAD_GEOMETRY
10
689.006
20
1110.7813
30
0
11
689.006
21
1110.0781
31
0
0
LINE
8
CAD_GEOMETRY
10
689.006
20
1110.0781
30
0
11
688.7716
21
1109.8438
31
0
0
LINE
8
CAD_GEOMETRY
10
685.256
20
1109.8438
30
0
11
685.0216
21
1110.0781
31
0
0
LINE
8
CAD_GEOMETRY
10
685.0216
20
1110.0781
30
0
11
685.0216
21
1110.7813
31
0
0
LINE
8
CAD_GEOMETRY
10
683.8497
20
1107.5
30
0
11
690.1779
21
1107.5
31
0
0
LINE
8
CAD_GEOMETRY
10
690.1779
20
1107.5
30
0
11
690.1779
21
1112.4219
31
0
0
LINE
8
CAD_GEOMETRY
10
690.1779
20
1112.4219
30
0
11
683.8497
21
1112.4219
31
0
0
LINE
8
CAD_GEOMETRY
10
683.8497
20
1112.4219
30
0
11
683.8497
21
1107.5
31
0
0
LINE
8
CAD_GEOMETRY
10
685.9591
20
1110.0781
30
0
11
686.2404
21
1110.0781
31
0
0
LINE
8
CAD_GEOMETRY
10
686.2404
20
1110.0781
30
0
11
686.2404
21
1110.3125
31
0
0
LINE
8
CAD_GEOMETRY
10
686.2404
20
1110.3125
30
0
11
685.9591
21
1110.3125
31
0
0
LINE
8
CAD_GEOMETRY
10
685.9591
20
1110.3125
30
0
11
685.9591
21
1110.0781
31
0
0
LINE
8
CAD_GEOMETRY
10
686.4279
20
1110.0781
30
0
11
686.7091
21
1110.0781
31
0
0
LINE
8
CAD_GEOMETRY
10
686.7091
20
1110.0781
30
0
11
686.7091
21
1110.3125
31
0
0
LINE
8
CAD_GEOMETRY
10
686.7091
20
1110.3125
30
0
11
686.4279
21
1110.3125
31
0
0
LINE
8
CAD_GEOMETRY
10
686.4279
20
1110.3125
30
0
11
686.4279
21
1110.0781
31
0
0
LINE
8
CAD_GEOMETRY
10
686.8966
20
1110.0781
30
0
11
687.1779
21
1110.0781
31
0
0
LINE
8
CAD_GEOMETRY
10
687.1779
20
1110.0781
30
0
11
687.1779
21
1110.3125
31
0
0
LINE
8
CAD_GEOMETRY
10
687.1779
20
1110.3125
30
0
11
686.8966
21
1110.3125
31
0
0
LINE
8
CAD_GEOMETRY
10
686.8966
20
1110.3125
30
0
11
686.8966
21
1110.0781
31
0
0
LINE
8
CAD_GEOMETRY
10
687.3654
20
1110.0781
30
0
11
687.6466
21
1110.0781
31
0
0
LINE
8
CAD_GEOMETRY
10
687.6466
20
1110.0781
30
0
11
687.6466
21
1110.3125
31
0
0
LINE
8
CAD_GEOMETRY
10
687.6466
20
1110.3125
30
0
11
687.3654
21
1110.3125
31
0
0
LINE
8
CAD_GEOMETRY
10
687.3654
20
1110.3125
30
0
11
687.3654
21
1110.0781
31
0
0
LINE
8
CAD_GEOMETRY
10
687.8341
20
1110.0781
30
0
11
688.1154
21
1110.0781
31
0
0
LINE
8
CAD_GEOMETRY
10
688.1154
20
1110.0781
30
0
11
688.1154
21
1110.3125
31
0
0
LINE
8
CAD_GEOMETRY
10
688.1154
20
1110.3125
30
0
11
687.8341
21
1110.3125
31
0
0
LINE
8
CAD_GEOMETRY
10
687.8341
20
1110.3125
30
0
11
687.8341
21
1110.0781
31
0
0
LINE
8
CAD_GEOMETRY
10
680.2172
20
1042.365
30
0
11
680.2172
21
1041.465
31
0
0
LINE
8
CAD_GEOMETRY
10
673.9172
20
1041.465
30
0
11
674.8172
21
1041.465
31
0
0
LINE
8
CAD_GEOMETRY
10
674.8172
20
1042.365
30
0
11
674.3672
21
1042.365
31
0
0
LINE
8
CAD_GEOMETRY
10
674.8172
20
1041.465
30
0
11
674.8172
21
1042.365
31
0
0
LINE
8
CAD_GEOMETRY
10
678.8672
20
1044.165
30
0
11
676.1672
21
1044.165
31
0
0
LINE
8
CAD_GEOMETRY
10
678.8672
20
1044.165
30
0
11
679.3172
21
1044.165
31
0
0
LINE
8
CAD_GEOMETRY
10
675.7172
20
1044.165
30
0
11
675.7172
21
1043.265
31
0
0
LINE
8
CAD_GEOMETRY
10
678.8672
20
1043.265
30
0
11
678.8672
21
1044.165
31
0
0
LINE
8
CAD_GEOMETRY
10
679.7672
20
1043.265
30
0
11
678.8672
21
1043.265
31
0
0
LINE
8
CAD_GEOMETRY
10
679.7672
20
1042.365
30
0
11
679.7672
21
1043.265
31
0
0
LINE
8
CAD_GEOMETRY
10
676.1672
20
1043.265
30
0
11
676.1672
21
1044.165
31
0
0
LINE
8
CAD_GEOMETRY
10
675.2672
20
1043.265
30
0
11
676.1672
21
1043.265
31
0
0
LINE
8
CAD_GEOMETRY
10
676.1672
20
1044.165
30
0
11
675.7172
21
1044.165
31
0
0
LINE
8
CAD_GEOMETRY
10
675.2672
20
1042.365
30
0
11
675.2672
21
1043.265
31
0
0
LINE
8
CAD_GEOMETRY
10
675.2672
20
1042.365
30
0
11
673.9172
21
1042.365
31
0
0
LINE
8
CAD_GEOMETRY
10
681.1172
20
1042.365
30
0
11
679.7672
21
1042.365
31
0
0
LINE
8
CAD_GEOMETRY
10
681.1172
20
1037.865
30
0
11
681.1172
21
1042.365
31
0
0
LINE
8
CAD_GEOMETRY
10
673.9172
20
1037.865
30
0
11
673.9172
21
1042.365
31
0
0
LINE
8
CAD_GEOMETRY
10
673.9172
20
1037.865
30
0
11
681.1172
21
1037.865
31
0
0
LINE
8
CAD_GEOMETRY
10
681.1172
20
1041.465
30
0
11
680.6672
21
1041.465
31
0
0
LINE
8
CAD_GEOMETRY
10
680.2172
20
1041.465
30
0
11
681.1172
21
1041.465
31
0
0
LINE
8
CAD_GEOMETRY
10
674.5922
20
1037.865
30
0
11
674.5922
21
1040.565
31
0
0
LINE
8
CAD_GEOMETRY
10
674.5922
20
1040.565
30
0
11
680.4422
21
1040.565
31
0
0
LINE
8
CAD_GEOMETRY
10
680.4422
20
1040.565
30
0
11
680.4422
21
1037.865
31
0
0
LINE
8
CAD_GEOMETRY
10
679.3172
20
1044.165
30
0
11
679.3172
21
1043.265
31
0
0
LINE
8
CAD_GEOMETRY
10
679.7672
20
1037.865
30
0
11
679.9922
21
1037.865
31
0
0
LINE
8
CAD_GEOMETRY
10
679.9922
20
1037.865
30
0
11
679.9922
21
1040.115
31
0
0
LINE
8
CAD_GEOMETRY
10
679.9922
20
1040.115
30
0
11
679.7672
21
1040.115
31
0
0
LINE
8
CAD_GEOMETRY
10
679.7672
20
1040.115
30
0
11
679.7672
21
1037.865
31
0
0
LINE
8
CAD_GEOMETRY
10
679.0922
20
1037.865
30
0
11
679.3172
21
1037.865
31
0
0
LINE
8
CAD_GEOMETRY
10
679.3172
20
1037.865
30
0
11
679.3172
21
1040.115
31
0
0
LINE
8
CAD_GEOMETRY
10
679.3172
20
1040.115
30
0
11
679.0922
21
1040.115
31
0
0
LINE
8
CAD_GEOMETRY
10
679.0922
20
1040.115
30
0
11
679.0922
21
1037.865
31
0
0
LINE
8
CAD_GEOMETRY
10
677.7422
20
1037.865
30
0
11
677.9672
21
1037.865
31
0
0
LINE
8
CAD_GEOMETRY
10
677.9672
20
1037.865
30
0
11
677.9672
21
1040.115
31
0
0
LINE
8
CAD_GEOMETRY
10
677.9672
20
1040.115
30
0
11
677.7422
21
1040.115
31
0
0
LINE
8
CAD_GEOMETRY
10
677.7422
20
1040.115
30
0
11
677.7422
21
1037.865
31
0
0
LINE
8
CAD_GEOMETRY
10
677.0672
20
1037.865
30
0
11
677.2922
21
1037.865
31
0
0
LINE
8
CAD_GEOMETRY
10
677.2922
20
1037.865
30
0
11
677.2922
21
1040.115
31
0
0
LINE
8
CAD_GEOMETRY
10
677.2922
20
1040.115
30
0
11
677.0672
21
1040.115
31
0
0
LINE
8
CAD_GEOMETRY
10
677.0672
20
1040.115
30
0
11
677.0672
21
1037.865
31
0
0
LINE
8
CAD_GEOMETRY
10
676.3922
20
1037.865
30
0
11
676.6172
21
1037.865
31
0
0
LINE
8
CAD_GEOMETRY
10
676.6172
20
1037.865
30
0
11
676.6172
21
1040.115
31
0
0
LINE
8
CAD_GEOMETRY
10
676.6172
20
1040.115
30
0
11
676.3922
21
1040.115
31
0
0
LINE
8
CAD_GEOMETRY
10
676.3922
20
1040.115
30
0
11
676.3922
21
1037.865
31
0
0
LINE
8
CAD_GEOMETRY
10
675.7172
20
1037.865
30
0
11
675.9422
21
1037.865
31
0
0
LINE
8
CAD_GEOMETRY
10
675.9422
20
1037.865
30
0
11
675.9422
21
1040.115
31
0
0
LINE
8
CAD_GEOMETRY
10
675.9422
20
1040.115
30
0
11
675.7172
21
1040.115
31
0
0
LINE
8
CAD_GEOMETRY
10
675.7172
20
1040.115
30
0
11
675.7172
21
1037.865
31
0
0
LINE
8
CAD_GEOMETRY
10
675.0422
20
1037.865
30
0
11
675.2672
21
1037.865
31
0
0
LINE
8
CAD_GEOMETRY
10
675.2672
20
1037.865
30
0
11
675.2672
21
1040.115
31
0
0
LINE
8
CAD_GEOMETRY
10
675.2672
20
1040.115
30
0
11
675.0422
21
1040.115
31
0
0
LINE
8
CAD_GEOMETRY
10
675.0422
20
1040.115
30
0
11
675.0422
21
1037.865
31
0
0
LINE
8
CAD_GEOMETRY
10
678.4172
20
1037.865
30
0
11
678.6422
21
1037.865
31
0
0
LINE
8
CAD_GEOMETRY
10
678.6422
20
1037.865
30
0
11
678.6422
21
1040.115
31
0
0
LINE
8
CAD_GEOMETRY
10
678.6422
20
1040.115
30
0
11
678.4172
21
1040.115
31
0
0
LINE
8
CAD_GEOMETRY
10
678.4172
20
1040.115
30
0
11
678.4172
21
1037.865
31
0
0
LINE
8
CAD_GEOMETRY
10
674.2997
20
1041.465
30
0
11
674.5247
21
1041.465
31
0
0
LINE
8
CAD_GEOMETRY
10
674.5247
20
1041.465
30
0
11
674.5247
21
1042.365
31
0
0
LINE
8
CAD_GEOMETRY
10
674.5247
20
1042.365
30
0
11
674.2997
21
1042.365
31
0
0
LINE
8
CAD_GEOMETRY
10
674.2997
20
1042.365
30
0
11
674.2997
21
1041.465
31
0
0
LINE
8
CAD_GEOMETRY
10
680.5997
20
1041.465
30
0
11
680.8247
21
1041.465
31
0
0
LINE
8
CAD_GEOMETRY
10
680.8247
20
1041.465
30
0
11
680.8247
21
1042.365
31
0
0
LINE
8
CAD_GEOMETRY
10
680.8247
20
1042.365
30
0
11
680.5997
21
1042.365
31
0
0
LINE
8
CAD_GEOMETRY
10
680.5997
20
1042.365
30
0
11
680.5997
21
1041.465
31
0
0
LINE
8
CAD_GEOMETRY
10
715.2172
20
1042.365
30
0
11
715.2172
21
1041.465
31
0
0
LINE
8
CAD_GEOMETRY
10
708.9172
20
1041.465
30
0
11
709.8172
21
1041.465
31
0
0
LINE
8
CAD_GEOMETRY
10
709.8172
20
1042.365
30
0
11
709.3672
21
1042.365
31
0
0
LINE
8
CAD_GEOMETRY
10
709.8172
20
1041.465
30
0
11
709.8172
21
1042.365
31
0
0
LINE
8
CAD_GEOMETRY
10
713.8672
20
1044.165
30
0
11
711.1672
21
1044.165
31
0
0
LINE
8
CAD_GEOMETRY
10
713.8672
20
1044.165
30
0
11
714.3172
21
1044.165
31
0
0
LINE
8
CAD_GEOMETRY
10
710.7172
20
1044.165
30
0
11
710.7172
21
1043.265
31
0
0
LINE
8
CAD_GEOMETRY
10
713.8672
20
1043.265
30
0
11
713.8672
21
1044.165
31
0
0
LINE
8
CAD_GEOMETRY
10
714.7672
20
1043.265
30
0
11
713.8672
21
1043.265
31
0
0
LINE
8
CAD_GEOMETRY
10
714.7672
20
1042.365
30
0
11
714.7672
21
1043.265
31
0
0
LINE
8
CAD_GEOMETRY
10
711.1672
20
1043.265
30
0
11
711.1672
21
1044.165
31
0
0
LINE
8
CAD_GEOMETRY
10
710.2672
20
1043.265
30
0
11
711.1672
21
1043.265
31
0
0
LINE
8
CAD_GEOMETRY
10
711.1672
20
1044.165
30
0
11
710.7172
21
1044.165
31
0
0
LINE
8
CAD_GEOMETRY
10
710.2672
20
1042.365
30
0
11
710.2672
21
1043.265
31
0
0
LINE
8
CAD_GEOMETRY
10
710.2672
20
1042.365
30
0
11
708.9172
21
1042.365
31
0
0
LINE
8
CAD_GEOMETRY
10
716.1172
20
1042.365
30
0
11
714.7672
21
1042.365
31
0
0
LINE
8
CAD_GEOMETRY
10
716.1172
20
1037.865
30
0
11
716.1172
21
1042.365
31
0
0
LINE
8
CAD_GEOMETRY
10
708.9172
20
1037.865
30
0
11
708.9172
21
1042.365
31
0
0
LINE
8
CAD_GEOMETRY
10
708.9172
20
1037.865
30
0
11
716.1172
21
1037.865
31
0
0
LINE
8
CAD_GEOMETRY
10
716.1172
20
1041.465
30
0
11
715.6672
21
1041.465
31
0
0
LINE
8
CAD_GEOMETRY
10
715.2172
20
1041.465
30
0
11
716.1172
21
1041.465
31
0
0
LINE
8
CAD_GEOMETRY
10
709.5922
20
1037.865
30
0
11
709.5922
21
1040.565
31
0
0
LINE
8
CAD_GEOMETRY
10
709.5922
20
1040.565
30
0
11
715.4422
21
1040.565
31
0
0
LINE
8
CAD_GEOMETRY
10
715.4422
20
1040.565
30
0
11
715.4422
21
1037.865
31
0
0
LINE
8
CAD_GEOMETRY
10
714.3172
20
1044.165
30
0
11
714.3172
21
1043.265
31
0
0
LINE
8
CAD_GEOMETRY
10
714.7672
20
1037.865
30
0
11
714.9922
21
1037.865
31
0
0
LINE
8
CAD_GEOMETRY
10
714.9922
20
1037.865
30
0
11
714.9922
21
1040.115
31
0
0
LINE
8
CAD_GEOMETRY
10
714.9922
20
1040.115
30
0
11
714.7672
21
1040.115
31
0
0
LINE
8
CAD_GEOMETRY
10
714.7672
20
1040.115
30
0
11
714.7672
21
1037.865
31
0
0
LINE
8
CAD_GEOMETRY
10
714.0922
20
1037.865
30
0
11
714.3172
21
1037.865
31
0
0
LINE
8
CAD_GEOMETRY
10
714.3172
20
1037.865
30
0
11
714.3172
21
1040.115
31
0
0
LINE
8
CAD_GEOMETRY
10
714.3172
20
1040.115
30
0
11
714.0922
21
1040.115
31
0
0
LINE
8
CAD_GEOMETRY
10
714.0922
20
1040.115
30
0
11
714.0922
21
1037.865
31
0
0
LINE
8
CAD_GEOMETRY
10
712.7422
20
1037.865
30
0
11
712.9672
21
1037.865
31
0
0
LINE
8
CAD_GEOMETRY
10
712.9672
20
1037.865
30
0
11
712.9672
21
1040.115
31
0
0
LINE
8
CAD_GEOMETRY
10
712.9672
20
1040.115
30
0
11
712.7422
21
1040.115
31
0
0
LINE
8
CAD_GEOMETRY
10
712.7422
20
1040.115
30
0
11
712.7422
21
1037.865
31
0
0
LINE
8
CAD_GEOMETRY
10
712.0672
20
1037.865
30
0
11
712.2922
21
1037.865
31
0
0
LINE
8
CAD_GEOMETRY
10
712.2922
20
1037.865
30
0
11
712.2922
21
1040.115
31
0
0
LINE
8
CAD_GEOMETRY
10
712.2922
20
1040.115
30
0
11
712.0672
21
1040.115
31
0
0
LINE
8
CAD_GEOMETRY
10
712.0672
20
1040.115
30
0
11
712.0672
21
1037.865
31
0
0
LINE
8
CAD_GEOMETRY
10
711.3922
20
1037.865
30
0
11
711.6172
21
1037.865
31
0
0
LINE
8
CAD_GEOMETRY
10
711.6172
20
1037.865
30
0
11
711.6172
21
1040.115
31
0
0
LINE
8
CAD_GEOMETRY
10
711.6172
20
1040.115
30
0
11
711.3922
21
1040.115
31
0
0
LINE
8
CAD_GEOMETRY
10
711.3922
20
1040.115
30
0
11
711.3922
21
1037.865
31
0
0
LINE
8
CAD_GEOMETRY
10
710.7172
20
1037.865
30
0
11
710.9422
21
1037.865
31
0
0
LINE
8
CAD_GEOMETRY
10
710.9422
20
1037.865
30
0
11
710.9422
21
1040.115
31
0
0
LINE
8
CAD_GEOMETRY
10
710.9422
20
1040.115
30
0
11
710.7172
21
1040.115
31
0
0
LINE
8
CAD_GEOMETRY
10
710.7172
20
1040.115
30
0
11
710.7172
21
1037.865
31
0
0
LINE
8
CAD_GEOMETRY
10
710.0422
20
1037.865
30
0
11
710.2672
21
1037.865
31
0
0
LINE
8
CAD_GEOMETRY
10
710.2672
20
1037.865
30
0
11
710.2672
21
1040.115
31
0
0
LINE
8
CAD_GEOMETRY
10
710.2672
20
1040.115
30
0
11
710.0422
21
1040.115
31
0
0
LINE
8
CAD_GEOMETRY
10
710.0422
20
1040.115
30
0
11
710.0422
21
1037.865
31
0
0
LINE
8
CAD_GEOMETRY
10
713.4172
20
1037.865
30
0
11
713.6422
21
1037.865
31
0
0
LINE
8
CAD_GEOMETRY
10
713.6422
20
1037.865
30
0
11
713.6422
21
1040.115
31
0
0
LINE
8
CAD_GEOMETRY
10
713.6422
20
1040.115
30
0
11
713.4172
21
1040.115
31
0
0
LINE
8
CAD_GEOMETRY
10
713.4172
20
1040.115
30
0
11
713.4172
21
1037.865
31
0
0
LINE
8
CAD_GEOMETRY
10
709.2997
20
1041.465
30
0
11
709.5247
21
1041.465
31
0
0
LINE
8
CAD_GEOMETRY
10
709.5247
20
1041.465
30
0
11
709.5247
21
1042.365
31
0
0
LINE
8
CAD_GEOMETRY
10
709.5247
20
1042.365
30
0
11
709.2997
21
1042.365
31
0
0
LINE
8
CAD_GEOMETRY
10
709.2997
20
1042.365
30
0
11
709.2997
21
1041.465
31
0
0
LINE
8
CAD_GEOMETRY
10
715.5997
20
1041.465
30
0
11
715.8247
21
1041.465
31
0
0
LINE
8
CAD_GEOMETRY
10
715.8247
20
1041.465
30
0
11
715.8247
21
1042.365
31
0
0
LINE
8
CAD_GEOMETRY
10
715.8247
20
1042.365
30
0
11
715.5997
21
1042.365
31
0
0
LINE
8
CAD_GEOMETRY
10
715.5997
20
1042.365
30
0
11
715.5997
21
1041.465
31
0
0
LINE
8
CAD_GEOMETRY
10
868.8497
20
1060
30
0
11
876.3497
21
1060
31
0
0
LINE
8
CAD_GEOMETRY
10
876.3497
20
1060
30
0
11
876.3497
21
1085
31
0
0
LINE
8
CAD_GEOMETRY
10
876.3497
20
1085
30
0
11
868.8497
21
1085
31
0
0
LINE
8
CAD_GEOMETRY
10
868.8497
20
1085
30
0
11
868.8497
21
1060
31
0
0
LINE
8
CAD_GEOMETRY
10
832.5997
20
1035
30
0
11
832.5997
21
1030
31
0
0
LINE
8
CAD_GEOMETRY
10
702.5997
20
1115
30
0
11
702.5997
21
1120
31
0
0
LINE
8
CAD_GEOMETRY
10
792.5997
20
1030
30
0
11
792.5997
21
1035
31
0
0
LINE
8
CAD_GEOMETRY
10
747.5997
20
1120
30
0
11
747.5997
21
1115
31
0
0
LINE
8
CAD_GEOMETRY
10
757.5997
20
1120
30
0
11
757.5997
21
1115
31
0
0
LINE
8
CAD_GEOMETRY
10
767.5997
20
1120
30
0
11
767.5997
21
1115
31
0
0
LINE
8
CAD_GEOMETRY
10
777.5997
20
1120
30
0
11
777.5997
21
1115
31
0
0
LINE
8
CAD_GEOMETRY
10
747.5997
20
1030
30
0
11
747.5997
21
1035
31
0
0
LINE
8
CAD_GEOMETRY
10
757.5997
20
1030
30
0
11
757.5997
21
1035
31
0
0
LINE
8
CAD_GEOMETRY
10
767.5997
20
1030
30
0
11
767.5997
21
1035
31
0
0
LINE
8
CAD_GEOMETRY
10
777.5997
20
1030
30
0
11
777.5997
21
1035
31
0
0
LINE
8
CAD_GEOMETRY
10
847.5997
20
1120
30
0
11
847.5997
21
1115
31
0
0
LINE
8
CAD_GEOMETRY
10
857.5997
20
1120
30
0
11
857.5997
21
1115
31
0
0
LINE
8
CAD_GEOMETRY
10
837.5997
20
1120
30
0
11
837.5997
21
1115
31
0
0
LINE
8
CAD_GEOMETRY
10
872.5997
20
1120
30
0
11
872.5997
21
1115
31
0
0
LINE
8
CAD_GEOMETRY
10
667.5997
20
1035
30
0
11
882.5997
21
1035
31
0
0
LINE
8
CAD_GEOMETRY
10
882.5997
20
1035
30
0
11
882.5997
21
1115
31
0
0
LINE
8
CAD_GEOMETRY
10
882.5997
20
1115
30
0
11
667.5997
21
1115
31
0
0
LINE
8
CAD_GEOMETRY
10
667.5997
20
1115
30
0
11
667.5997
21
1035
31
0
0
LINE
8
CAD_GEOMETRY
10
807.5997
20
1120
30
0
11
807.5997
21
1115
31
0
0
LINE
8
CAD_GEOMETRY
10
817.5997
20
1120
30
0
11
817.5997
21
1115
31
0
0
LINE
8
CAD_GEOMETRY
10
792.5997
20
1120
30
0
11
792.5997
21
1115
31
0
0
LINE
8
CAD_GEOMETRY
10
697.5997
20
1035
30
0
11
697.5997
21
1030
31
0
0
LINE
8
CAD_GEOMETRY
10
732.5997
20
1035
30
0
11
732.5997
21
1030
31
0
0
LINE
8
COMPONENT
10
460
20
800
30
0
11
1137.5997
21
800
31
0
0
LINE
8
COMPONENT
10
1137.5997
20
800
30
0
11
1137.5997
21
1149.25
31
0
0
LINE
8
COMPONENT
10
1137.5997
20
1149.25
30
0
11
460
21
1149.25
31
0
0
LINE
8
COMPONENT
10
460
20
1149.25
30
0
11
460
21
800
31
0
0
LINE
8
COMPONENT_OUTLINE
10
460
20
800
30
0
11
1137.5997
21
800
31
0
0
LINE
8
COMPONENT_OUTLINE
10
1137.5997
20
800
30
0
11
1137.5997
21
1149.25
31
0
0
LINE
8
COMPONENT_OUTLINE
10
1137.5997
20
1149.25
30
0
11
460
21
1149.25
31
0
0
LINE
8
COMPONENT_OUTLINE
10
460
20
1149.25
30
0
11
460
21
800
31
0
0
LINE
8
COMPONENT_DETAIL
10
794.7999
20
974.625
30
0
11
802.7999
21
974.625
31
0
0
TEXT
8
TAG
10
463
20
974.625
30
0
40
12
1
-CAD3
0
TEXT
8
TEXT
10
463
20
810
30
0
40
4
1
sinamics g120c vfd cad asset siemens bilddb
0
CIRCLE
8
TERMINAL
10
685.8666
20
800
30
0
40
1.5
0
CIRCLE
8
TERMINAL
10
911.7332
20
800
30
0
40
1.5
0
LINE
8
CAD_GEOMETRY
10
810
20
800
30
0
11
1230
21
800
31
0
0
LINE
8
CAD_GEOMETRY
10
1230
20
800
30
0
11
1230
21
1097
31
0
0
LINE
8
CAD_GEOMETRY
10
1230
20
1097
30
0
11
810
21
1097
31
0
0
LINE
8
CAD_GEOMETRY
10
810
20
1097
30
0
11
810
21
800
31
0
0
LINE
8
CAD_GEOMETRY
10
814
20
804
30
0
11
1226
21
804
31
0
0
LINE
8
CAD_GEOMETRY
10
1226
20
804
30
0
11
1226
21
1093
31
0
0
LINE
8
CAD_GEOMETRY
10
1226
20
1093
30
0
11
814
21
1093
31
0
0
LINE
8
CAD_GEOMETRY
10
814
20
1093
30
0
11
814
21
804
31
0
0
LINE
8
CAD_GEOMETRY
10
1058
20
820
30
0
11
1058
21
804
31
0
0
LINE
8
CAD_GEOMETRY
10
1058
20
820
30
0
11
1226
21
820
31
0
0
LINE
8
CAD_GEOMETRY
10
1106
20
820
30
0
11
1106
21
804
31
0
0
LINE
8
CAD_GEOMETRY
10
1106
20
812
30
0
11
1226
21
812
31
0
0
LINE
8
CAD_GEOMETRY
10
1078
20
1010
30
0
11
1082
21
1010
31
0
0
LINE
8
CAD_GEOMETRY
10
1110
20
1010
30
0
11
1106
21
1010
31
0
0
LINE
8
CAD_GEOMETRY
10
1094
20
1010
30
0
11
1090
21
1010
31
0
0
LINE
8
CAD_GEOMETRY
10
1096
20
1010
30
0
11
1098
21
1010
31
0
0
LINE
8
CAD_GEOMETRY
10
1080
20
1010
30
0
11
1078
21
1010
31
0
0
LINE
8
CAD_GEOMETRY
10
1078
20
1010
30
0
11
1078
21
1008
31
0
0
LINE
8
CAD_GEOMETRY
10
1108
20
1010
30
0
11
1110
21
1010
31
0
0
LINE
8
CAD_GEOMETRY
10
1110
20
1010
30
0
11
1110
21
1008
31
0
0
LINE
8
CAD_GEOMETRY
10
1092
20
1010
30
0
11
1096
21
1010
31
0
0
LINE
8
CAD_GEOMETRY
10
1094
20
1010
30
0
11
1094
21
1008
31
0
0
CIRCLE
8
CAD_GEOMETRY
10
1094
20
1010
30
0
40
0.75
0
LINE
8
CAD_GEOMETRY
10
1078
20
1008
30
0
11
1078
21
988
31
0
0
LINE
8
CAD_GEOMETRY
10
1094
20
1008
30
0
11
1094
21
988
31
0
0
LINE
8
CAD_GEOMETRY
10
1110
20
1008
30
0
11
1110
21
988
31
0
0
LINE
8
CAD_GEOMETRY
10
1102
20
1044
30
0
11
1114
21
1044
31
0
0
LINE
8
CAD_GEOMETRY
10
1114
20
1044
30
0
11
1114
21
1052
31
0
0
LINE
8
CAD_GEOMETRY
10
1114
20
1052
30
0
11
1102
21
1052
31
0
0
LINE
8
CAD_GEOMETRY
10
1102
20
1052
30
0
11
1102
21
1044
31
0
0
LINE
8
CAD_GEOMETRY
10
950
20
1004
30
0
11
950
21
1008
31
0
0
LINE
8
CAD_GEOMETRY
10
950
20
1008
30
0
11
954
21
1008
31
0
0
LINE
8
CAD_GEOMETRY
10
962
20
1008
30
0
11
966
21
1008
31
0
0
LINE
8
CAD_GEOMETRY
10
966
20
1008
30
0
11
966
21
1004
31
0
0
LINE
8
CAD_GEOMETRY
10
854
20
988
30
0
11
1118
21
988
31
0
0
LINE
8
CAD_GEOMETRY
10
1118
20
988
30
0
11
1118
21
1052
31
0
0
LINE
8
CAD_GEOMETRY
10
1118
20
1052
30
0
11
854
21
1052
31
0
0
LINE
8
CAD_GEOMETRY
10
854
20
1052
30
0
11
854
21
988
31
0
0
LINE
8
CAD_GEOMETRY
10
862
20
1056
30
0
11
862
21
1052
31
0
0
LINE
8
CAD_GEOMETRY
10
870
20
1056
30
0
11
870
21
1052
31
0
0
LINE
8
CAD_GEOMETRY
10
886
20
1056
30
0
11
886
21
1052
31
0
0
LINE
8
CAD_GEOMETRY
10
862
20
984
30
0
11
862
21
988
31
0
0
LINE
8
CAD_GEOMETRY
10
870
20
984
30
0
11
870
21
988
31
0
0
LINE
8
CAD_GEOMETRY
10
878
20
984
30
0
11
878
21
988
31
0
0
LINE
8
CAD_GEOMETRY
10
886
20
984
30
0
11
886
21
988
31
0
0
LINE
8
CAD_GEOMETRY
10
918
20
984
30
0
11
918
21
988
31
0
0
LINE
8
CAD_GEOMETRY
10
902
20
984
30
0
11
902
21
988
31
0
0
LINE
8
CAD_GEOMETRY
10
998
20
988
30
0
11
998
21
984
31
0
0
LINE
8
CAD_GEOMETRY
10
1014
20
988
30
0
11
1014
21
984
31
0
0
LINE
8
CAD_GEOMETRY
10
1030
20
988
30
0
11
1030
21
984
31
0
0
LINE
8
CAD_GEOMETRY
10
1106
20
1010
30
0
11
1104
21
1010
31
0
0
LINE
8
CAD_GEOMETRY
10
1104.5
20
1012.5
30
0
11
1100.0021
21
1009.9966
31
0
0
LINE
8
CAD_GEOMETRY
10
1100.0021
20
1009.9966
30
0
11
1098.0021
21
1009.9966
31
0
0
LINE
8
CAD_GEOMETRY
10
1084.0021
20
1009.9966
30
0
11
1082.0021
21
1009.9966
31
0
0
LINE
8
CAD_GEOMETRY
10
1090
20
1010
30
0
11
1088
21
1010
31
0
0
LINE
8
CAD_GEOMETRY
10
1088
20
1010
30
0
11
1088
21
1008
31
0
0
LINE
8
CAD_GEOMETRY
10
1088.5
20
1008.5
30
0
11
1084
21
1010
31
0
0
LINE
8
CAD_GEOMETRY
10
1078
20
988
30
0
11
1078
21
984
31
0
0
LINE
8
CAD_GEOMETRY
10
1110
20
988
30
0
11
1110
21
984
31
0
0
LINE
8
CAD_GEOMETRY
10
1094
20
988
30
0
11
1094
21
984
31
0
0
LINE
8
CAD_GEOMETRY
10
998
20
1052
30
0
11
998
21
1056
31
0
0
LINE
8
CAD_GEOMETRY
10
1014
20
1052
30
0
11
1014
21
1056
31
0
0
LINE
8
CAD_GEOMETRY
10
1030
20
1052
30
0
11
1030
21
1056
31
0
0
LINE
8
CAD_GEOMETRY
10
1046
20
1052
30
0
11
1046
21
1056
31
0
0
LINE
8
CAD_GEOMETRY
10
1062
20
1052
30
0
11
1062
21
1056
31
0
0
LINE
8
CAD_GEOMETRY
10
950
20
988
30
0
11
950
21
984
31
0
0
LINE
8
CAD_GEOMETRY
10
966
20
988
30
0
11
966
21
984
31
0
0
LINE
8
CAD_GEOMETRY
10
1046
20
988
30
0
11
1046
21
984
31
0
0
LINE
8
CAD_GEOMETRY
10
1062
20
988
30
0
11
1062
21
984
31
0
0
LINE
8
CAD_GEOMETRY
10
1110
20
1052
30
0
11
1110
21
1056
31
0
0
LINE
8
CAD_GEOMETRY
10
878
20
1056
30
0
11
878
21
1052
31
0
0
ARC
8
CAD_GEOMETRY
10
868.325
20
1012.375
30
0
40
0.9
50
200
51
343
0
ARC
8
CAD_GEOMETRY
10
866.675
20
1011.625
30
0
40
0.9
50
20
51
160
0
LINE
8
CAD_GEOMETRY
10
860
20
1004
30
0
11
880
21
1004
31
0
0
LINE
8
CAD_GEOMETRY
10
880
20
1004
30
0
11
880
21
1016
31
0
0
LINE
8
CAD_GEOMETRY
10
880
20
1016
30
0
11
860
21
1016
31
0
0
LINE
8
CAD_GEOMETRY
10
860
20
1016
30
0
11
860
21
1004
31
0
0
LINE
8
CAD_GEOMETRY
10
860
20
1004
30
0
11
880
21
1016
31
0
0
LINE
8
CAD_GEOMETRY
10
870
20
1002
30
0
11
870
21
1004
31
0
0
LINE
8
CAD_GEOMETRY
10
878
20
1016
30
0
11
878
21
1018
31
0
0
LINE
8
CAD_GEOMETRY
10
870
20
1016
30
0
11
870
21
1018
31
0
0
LINE
8
CAD_GEOMETRY
10
878
20
1002
30
0
11
878
21
1004
31
0
0
LINE
8
CAD_GEOMETRY
10
862
20
1002
30
0
11
862
21
1004
31
0
0
LINE
8
CAD_GEOMETRY
10
862
20
1016
30
0
11
862
21
1018
31
0
0
ARC
8
CAD_GEOMETRY
10
877.325
20
1008.375
30
0
40
0.9
50
200
51
343
0
ARC
8
CAD_GEOMETRY
10
875.675
20
1007.625
30
0
40
0.9
50
20
51
160
0
CIRCLE
8
CAD_GEOMETRY
10
894
20
1011.875
30
0
40
2.5
0
LINE
8
CAD_GEOMETRY
10
896.4
20
1021.675
30
0
11
898
21
1022.875
31
0
0
LINE
8
CAD_GEOMETRY
10
892.179
20
1010.1621
30
0
11
893.571
21
1014.3379
31
0
0
LINE
8
CAD_GEOMETRY
10
894
20
1015.2539
30
0
11
894
21
1014.375
31
0
0
CIRCLE
8
CAD_GEOMETRY
10
894
20
1019.875
30
0
40
3
0
LINE
8
CAD_GEOMETRY
10
891.5758
20
1021.6423
30
0
11
890
21
1022.875
31
0
0
LINE
8
CAD_GEOMETRY
10
895.821
20
1010.1621
30
0
11
894.429
21
1014.3379
31
0
0
LINE
8
CAD_GEOMETRY
10
894
20
1016.875
30
0
11
894
21
1015.9961
31
0
0
LINE
8
CAD_GEOMETRY
10
886
20
1024
30
0
11
902
21
1024
31
0
0
LINE
8
CAD_GEOMETRY
10
902
20
1024
30
0
11
902
21
1034
31
0
0
LINE
8
CAD_GEOMETRY
10
902
20
1034
30
0
11
886
21
1034
31
0
0
LINE
8
CAD_GEOMETRY
10
886
20
1034
30
0
11
886
21
1024
31
0
0
LINE
8
CAD_GEOMETRY
10
890
20
1028
30
0
11
890
21
1022.875
31
0
0
LINE
8
CAD_GEOMETRY
10
898
20
1028
30
0
11
898
21
1022.875
31
0
0
LINE
8
CAD_GEOMETRY
10
910
20
984
30
0
11
910
21
988
31
0
0
LINE
8
CAD_GEOMETRY
10
934
20
1052
30
0
11
934
21
1056
31
0
0
LINE
8
CAD_GEOMETRY
10
950
20
1052
30
0
11
950
21
1056
31
0
0
LINE
8
CAD_GEOMETRY
10
982
20
988
30
0
11
982
21
984
31
0
0
LINE
8
CAD_GEOMETRY
10
934
20
988
30
0
11
934
21
984
31
0
0
LINE
8
CAD_GEOMETRY
10
890
20
1028
30
0
11
890
21
1032
31
0
0
LINE
8
CAD_GEOMETRY
10
898
20
1028
30
0
11
898
21
1032
31
0
0
LINE
8
COMPONENT
10
810
20
800
30
0
11
1230
21
800
31
0
0
LINE
8
COMPONENT
10
1230
20
800
30
0
11
1230
21
1097
31
0
0
LINE
8
COMPONENT
10
1230
20
1097
30
0
11
810
21
1097
31
0
0
LINE
8
COMPONENT
10
810
20
1097
30
0
11
810
21
800
31
0
0
LINE
8
COMPONENT_OUTLINE
10
810
20
800
30
0
11
1230
21
800
31
0
0
LINE
8
COMPONENT_OUTLINE
10
1230
20
800
30
0
11
1230
21
1097
31
0
0
LINE
8
COMPONENT_OUTLINE
10
1230
20
1097
30
0
11
810
21
1097
31
0
0
LINE
8
COMPONENT_OUTLINE
10
810
20
1097
30
0
11
810
21
800
31
0
0
LINE
8
COMPONENT_DETAIL
10
1016
20
948.5
30
0
11
1024
21
948.5
31
0
0
TEXT
8
TAG
10
813
20
948.5
30
0
40
12
1
-CAD4
0
TEXT
8
TEXT
10
813
20
810
30
0
40
4
1
sinamics v20 vfd cad asset siemens bilddb
0
CIRCLE
8
TERMINAL
10
950
20
800
30
0
40
1.5
0
CIRCLE
8
TERMINAL
10
1090
20
800
30
0
40
1.5
0
LINE
8
CAD_GEOMETRY
10
1160
20
540
30
0
11
1439.4
21
540
31
0
0
LINE
8
CAD_GEOMETRY
10
1439.4
20
540
30
0
11
1439.4
21
971.8
31
0
0
LINE
8
CAD_GEOMETRY
10
1439.4
20
971.8
30
0
11
1160
21
971.8
31
0
0
LINE
8
CAD_GEOMETRY
10
1160
20
971.8
30
0
11
1160
21
540
31
0
0
LINE
8
CAD_GEOMETRY
10
1267
20
560
30
0
11
1267
21
544
31
0
0
LINE
8
CAD_GEOMETRY
10
1435
20
560
30
0
11
1267.2
21
560
31
0
0
LINE
8
CAD_GEOMETRY
10
1336
20
552
30
0
11
1435.4
21
552
31
0
0
LINE
8
CAD_GEOMETRY
10
1336
20
560
30
0
11
1336
21
544
31
0
0
LINE
8
CAD_GEOMETRY
10
1164
20
544
30
0
11
1435.4
21
544
31
0
0
LINE
8
CAD_GEOMETRY
10
1435.4
20
544
30
0
11
1435.4
21
967.8
31
0
0
LINE
8
CAD_GEOMETRY
10
1435.4
20
967.8
30
0
11
1164
21
967.8
31
0
0
LINE
8
CAD_GEOMETRY
10
1164
20
967.8
30
0
11
1164
21
544
31
0
0
LINE
8
CAD_GEOMETRY
10
1208
20
916
30
0
11
1202
21
916
31
0
0
LINE
8
CAD_GEOMETRY
10
1208
20
916
30
0
11
1208
21
908
31
0
0
LINE
8
CAD_GEOMETRY
10
1224
20
916
30
0
11
1230
21
916
31
0
0
LINE
8
CAD_GEOMETRY
10
1224
20
916
30
0
11
1224
21
924
31
0
0
LINE
8
CAD_GEOMETRY
10
1226
20
924
30
0
11
1230
21
924
31
0
0
LINE
8
CAD_GEOMETRY
10
1224
20
900
30
0
11
1230
21
900
31
0
0
LINE
8
CAD_GEOMETRY
10
1224
20
900
30
0
11
1224
21
908
31
0
0
LINE
8
CAD_GEOMETRY
10
1226
20
908
30
0
11
1230
21
908
31
0
0
LINE
8
CAD_GEOMETRY
10
1202
20
924
30
0
11
1208
21
924
31
0
0
LINE
8
CAD_GEOMETRY
10
1227.8917
20
898.292
30
0
11
1235.8917
21
898.292
31
0
0
LINE
8
CAD_GEOMETRY
10
1235.8917
20
898.292
30
0
11
1235.8917
21
928.1617
31
0
0
LINE
8
CAD_GEOMETRY
10
1235.8917
20
928.1617
30
0
11
1227.8917
21
928.1617
31
0
0
LINE
8
CAD_GEOMETRY
10
1227.8917
20
928.1617
30
0
11
1227.8917
21
898.292
31
0
0
LINE
8
CAD_GEOMETRY
10
1196
20
906.0701
30
0
11
1204
21
906.0701
31
0
0
LINE
8
CAD_GEOMETRY
10
1204
20
906.0701
30
0
11
1204
21
928.0285
31
0
0
LINE
8
CAD_GEOMETRY
10
1204
20
928.0285
30
0
11
1196
21
928.0285
31
0
0
LINE
8
CAD_GEOMETRY
10
1196
20
928.0285
30
0
11
1196
21
906.0701
31
0
0
LINE
8
CAD_GEOMETRY
10
1206
20
916
30
0
11
1208
21
916
31
0
0
LINE
8
CAD_GEOMETRY
10
1208
20
916
30
0
11
1208
21
914
31
0
0
LINE
8
CAD_GEOMETRY
10
1208
20
910
30
0
11
1208
21
908
31
0
0
LINE
8
CAD_GEOMETRY
10
1208
20
908
30
0
11
1210
21
908
31
0
0
LINE
8
CAD_GEOMETRY
10
1224
20
918
30
0
11
1224
21
916
31
0
0
LINE
8
CAD_GEOMETRY
10
1224
20
916
30
0
11
1226
21
916
31
0
0
LINE
8
CAD_GEOMETRY
10
1222
20
924
30
0
11
1226
21
924
31
0
0
LINE
8
CAD_GEOMETRY
10
1224
20
924
30
0
11
1224
21
922
31
0
0
CIRCLE
8
CAD_GEOMETRY
10
1224
20
924
30
0
40
0.75
0
LINE
8
CAD_GEOMETRY
10
1224
20
902
30
0
11
1224
21
900
31
0
0
LINE
8
CAD_GEOMETRY
10
1224
20
900
30
0
11
1226
21
900
31
0
0
LINE
8
CAD_GEOMETRY
10
1222
20
908
30
0
11
1226
21
908
31
0
0
LINE
8
CAD_GEOMETRY
10
1224
20
908
30
0
11
1224
21
906
31
0
0
CIRCLE
8
CAD_GEOMETRY
10
1224
20
908
30
0
40
0.75
0
LINE
8
CAD_GEOMETRY
10
1236
20
924
30
0
11
1233
21
924
31
0
0
LINE
8
CAD_GEOMETRY
10
1231
20
924
30
0
11
1230
21
924
31
0
0
CIRCLE
8
CAD_GEOMETRY
10
1232
20
924
30
0
40
1
0
LINE
8
CAD_GEOMETRY
10
1236
20
916
30
0
11
1233
21
916
31
0
0
LINE
8
CAD_GEOMETRY
10
1231
20
916
30
0
11
1230
21
916
31
0
0
CIRCLE
8
CAD_GEOMETRY
10
1232
20
916
30
0
40
1
0
LINE
8
CAD_GEOMETRY
10
1236
20
908
30
0
11
1233
21
908
31
0
0
LINE
8
CAD_GEOMETRY
10
1231
20
908
30
0
11
1230
21
908
31
0
0
CIRCLE
8
CAD_GEOMETRY
10
1232
20
908
30
0
40
1
0
LINE
8
CAD_GEOMETRY
10
1236
20
900
30
0
11
1233
21
900
31
0
0
LINE
8
CAD_GEOMETRY
10
1231
20
900
30
0
11
1230
21
900
31
0
0
CIRCLE
8
CAD_GEOMETRY
10
1232
20
900
30
0
40
1
0
LINE
8
CAD_GEOMETRY
10
1196
20
908
30
0
11
1199
21
908
31
0
0
LINE
8
CAD_GEOMETRY
10
1201
20
908
30
0
11
1202
21
908
31
0
0
CIRCLE
8
CAD_GEOMETRY
10
1200
20
908
30
0
40
1
0
LINE
8
CAD_GEOMETRY
10
1196
20
924
30
0
11
1199
21
924
31
0
0
LINE
8
CAD_GEOMETRY
10
1201
20
924
30
0
11
1202
21
924
31
0
0
CIRCLE
8
CAD_GEOMETRY
10
1200
20
924
30
0
40
1
0
LINE
8
CAD_GEOMETRY
10
1196
20
916
30
0
11
1199
21
916
31
0
0
LINE
8
CAD_GEOMETRY
10
1201
20
916
30
0
11
1202
21
916
31
0
0
CIRCLE
8
CAD_GEOMETRY
10
1200
20
916
30
0
40
1
0
ARC
8
CAD_GEOMETRY
10
1212.6198
20
908.2073
30
0
40
1.6
50
30
51
180
0
ARC
8
CAD_GEOMETRY
10
1215.3478
20
909.7823
30
0
40
1.55
50
-150
51
0
0
LINE
8
CAD_GEOMETRY
10
1214.9786
20
922.5319
30
0
11
1217.1786
21
922.5319
31
0
0
LINE
8
CAD_GEOMETRY
10
1220.9786
20
922.5319
30
0
11
1218.7786
21
922.5319
31
0
0
LINE
8
CAD_GEOMETRY
10
1214.9786
20
923.5319
30
0
11
1220.9786
21
923.5319
31
0
0
LINE
8
CAD_GEOMETRY
10
1210
20
908
30
0
11
1208
21
908
31
0
0
LINE
8
CAD_GEOMETRY
10
1224
20
924
30
0
11
1222
21
924
31
0
0
LINE
8
CAD_GEOMETRY
10
1210
20
924
30
0
11
1208
21
924
31
0
0
LINE
8
CAD_GEOMETRY
10
1222
20
906
30
0
11
1222
21
926
31
0
0
LINE
8
CAD_GEOMETRY
10
1222
20
926
30
0
11
1210
21
926
31
0
0
LINE
8
CAD_GEOMETRY
10
1210
20
926
30
0
11
1210
21
906
31
0
0
LINE
8
CAD_GEOMETRY
10
1210
20
906
30
0
11
1222
21
906
31
0
0
LINE
8
CAD_GEOMETRY
10
1224
20
908
30
0
11
1222
21
908
31
0
0
LINE
8
CAD_GEOMETRY
10
1222
20
906
30
0
11
1210
21
926
31
0
0
LINE
8
CAD_GEOMETRY
10
1196
20
896
30
0
11
1236
21
896
31
0
0
LINE
8
CAD_GEOMETRY
10
1236
20
896
30
0
11
1236
21
936
31
0
0
LINE
8
CAD_GEOMETRY
10
1236
20
936
30
0
11
1196
21
936
31
0
0
LINE
8
CAD_GEOMETRY
10
1196
20
936
30
0
11
1196
21
896
31
0
0
LINE
8
COMPONENT
10
1160
20
540
30
0
11
1439.4
21
540
31
0
0
LINE
8
COMPONENT
10
1439.4
20
540
30
0
11
1439.4
21
971.8
31
0
0
LINE
8
COMPONENT
10
1439.4
20
971.8
30
0
11
1160
21
971.8
31
0
0
LINE
8
COMPONENT
10
1160
20
971.8
30
0
11
1160
21
540
31
0
0
LINE
8
COMPONENT_OUTLINE
10
1160
20
540
30
0
11
1439.4
21
540
31
0
0
LINE
8
COMPONENT_OUTLINE
10
1439.4
20
540
30
0
11
1439.4
21
971.8
31
0
0
LINE
8
COMPONENT_OUTLINE
10
1439.4
20
971.8
30
0
11
1160
21
971.8
31
0
0
LINE
8
COMPONENT_OUTLINE
10
1160
20
971.8
30
0
11
1160
21
540
31
0
0
LINE
8
COMPONENT_DETAIL
10
1295.7
20
755.9
30
0
11
1303.7
21
755.9
31
0
0
TEXT
8
TAG
10
1163
20
755.9
30
0
40
12
1
-CAD5
0
TEXT
8
TEXT
10
1163
20
550
30
0
40
4
1
sitop psu cad asset siemens bilddb
0
CIRCLE
8
TERMINAL
10
1253.1333
20
540
30
0
40
1.5
0
CIRCLE
8
TERMINAL
10
1346.2667
20
540
30
0
40
1.5
0
ENDSEC
0
EOF
