0
SECTION
2
HEADER
9
$INSUNITS
70
4
0
ENDSEC
0
SECTION
2
ENTITIES
0
LINE
8
ENCLOSURE
10
0
20
0
30
0
11
800
21
0
31
0
0
LINE
8
ENCLOSURE
10
800
20
0
30
0
11
800
21
2000
31
0
0
LINE
8
ENCLOSURE
10
800
20
2000
30
0
11
0
21
2000
31
0
0
LINE
8
ENCLOSURE
10
0
20
2000
30
0
11
0
21
0
31
0
0
LINE
8
MOUNTING_PLATE
10
50
20
50
30
0
11
750
21
50
31
0
0
LINE
8
MOUNTING_PLATE
10
750
20
50
30
0
11
750
21
1950
31
0
0
LINE
8
MOUNTING_PLATE
10
750
20
1950
30
0
11
50
21
1950
31
0
0
LINE
8
MOUNTING_PLATE
10
50
20
1950
30
0
11
50
21
50
31
0
0
TEXT
8
ANNOTATION
10
50
20
1965
30
0
40
10
1
MCC panel [mm]
0
LINE
8
DIN_RAIL
10
140
20
450
30
0
11
660
21
450
31
0
0
LINE
8
DIN_RAIL
10
140
20
90
30
0
11
660
21
90
31
0
0
LINE
8
DIN_RAIL
10
140
20
270
30
0
11
660
21
270
31
0
0
LINE
8
WIRE_DUCT
10
705
20
50
30
0
11
750
21
50
31
0
0
LINE
8
WIRE_DUCT
10
750
20
50
30
0
11
750
21
1950
31
0
0
LINE
8
WIRE_DUCT
10
750
20
1950
30
0
11
705
21
1950
31
0
0
LINE
8
WIRE_DUCT
10
705
20
1950
30
0
11
705
21
50
31
0
0
LINE
8
WIRE_DUCT
10
50
20
420
30
0
11
750
21
420
31
0
0
LINE
8
WIRE_DUCT
10
750
20
420
30
0
11
750
21
460
31
0
0
LINE
8
WIRE_DUCT
10
750
20
460
30
0
11
50
21
460
31
0
0
LINE
8
WIRE_DUCT
10
50
20
460
30
0
11
50
21
420
31
0
0
LINE
8
WIRE_DUCT
10
50
20
240
30
0
11
750
21
240
31
0
0
LINE
8
WIRE_DUCT
10
750
20
240
30
0
11
750
21
280
31
0
0
LINE
8
WIRE_DUCT
10
750
20
280
30
0
11
50
21
280
31
0
0
LINE
8
WIRE_DUCT
10
50
20
280
30
0
11
50
21
240
31
0
0
LINE
8
WIRE_DUCT
10
50
20
50
30
0
11
95
21
50
31
0
0
LINE
8
WIRE_DUCT
10
95
20
50
30
0
11
95
21
1950
31
0
0
LINE
8
WIRE_DUCT
10
95
20
1950
30
0
11
50
21
1950
31
0
0
LINE
8
WIRE_DUCT
10
50
20
1950
30
0
11
50
21
50
31
0
0
LINE
8
DEVICE
10
195
20
485
30
0
11
201
21
485
31
0
0
LINE
8
DEVICE
10
201
20
485
30
0
11
201
21
540
31
0
0
LINE
8
DEVICE
10
201
20
540
30
0
11
195
21
540
31
0
0
LINE
8
DEVICE
10
195
20
540
30
0
11
195
21
485
31
0
0
TEXT
8
DEVICE_TAG
10
197
20
495
30
0
40
6
1
X14
0
TEXT
8
PART_REF
10
197
20
488
30
0
40
3
1
CNB-TERM-4
0
LINE
8
DEVICE
10
315
20
485
30
0
11
321
21
485
31
0
0
LINE
8
DEVICE
10
321
20
485
30
0
11
321
21
540
31
0
0
LINE
8
DEVICE
10
321
20
540
30
0
11
315
21
540
31
0
0
LINE
8
DEVICE
10
315
20
540
30
0
11
315
21
485
31
0
0
TEXT
8
DEVICE_TAG
10
317
20
495
30
0
40
6
1
X8
0
TEXT
8
PART_REF
10
317
20
488
30
0
40
3
1
CNB-TERM-4
0
LINE
8
DEVICE
10
440
20
305
30
0
11
485
21
305
31
0
0
LINE
8
DEVICE
10
485
20
305
30
0
11
485
21
380
31
0
0
LINE
8
DEVICE
10
485
20
380
30
0
11
440
21
380
31
0
0
LINE
8
DEVICE
10
440
20
380
30
0
11
440
21
305
31
0
0
TEXT
8
DEVICE_TAG
10
442
20
315
30
0
40
6
1
FR4
0
TEXT
8
PART_REF
10
442
20
308
30
0
40
3
1
CNB-OL-15KW
0
LINE
8
DEVICE
10
240
20
485
30
0
11
246
21
485
31
0
0
LINE
8
DEVICE
10
246
20
485
30
0
11
246
21
540
31
0
0
LINE
8
DEVICE
10
246
20
540
30
0
11
240
21
540
31
0
0
LINE
8
DEVICE
10
240
20
540
30
0
11
240
21
485
31
0
0
TEXT
8
DEVICE_TAG
10
242
20
495
30
0
40
6
1
X18
0
TEXT
8
PART_REF
10
242
20
488
30
0
40
3
1
CNB-TERM-4
0
LINE
8
DEVICE
10
140
20
485
30
0
11
146
21
485
31
0
0
LINE
8
DEVICE
10
146
20
485
30
0
11
146
21
540
31
0
0
LINE
8
DEVICE
10
146
20
540
30
0
11
140
21
540
31
0
0
LINE
8
DEVICE
10
140
20
540
30
0
11
140
21
485
31
0
0
TEXT
8
DEVICE_TAG
10
142
20
495
30
0
40
6
1
X1
0
TEXT
8
PART_REF
10
142
20
488
30
0
40
3
1
CNB-TERM-4
0
LINE
8
DEVICE
10
545
20
125
30
0
11
590
21
125
31
0
0
LINE
8
DEVICE
10
590
20
125
30
0
11
590
21
210
31
0
0
LINE
8
DEVICE
10
590
20
210
30
0
11
545
21
210
31
0
0
LINE
8
DEVICE
10
545
20
210
30
0
11
545
21
125
31
0
0
TEXT
8
DEVICE_TAG
10
547
20
135
30
0
40
6
1
KM2
0
TEXT
8
PART_REF
10
547
20
128
30
0
40
3
1
CNB-CON-15KW
0
LINE
8
DEVICE
10
435
20
125
30
0
11
489
21
125
31
0
0
LINE
8
DEVICE
10
489
20
125
30
0
11
489
21
205
31
0
0
LINE
8
DEVICE
10
489
20
205
30
0
11
435
21
205
31
0
0
LINE
8
DEVICE
10
435
20
205
30
0
11
435
21
125
31
0
0
TEXT
8
DEVICE_TAG
10
437
20
135
30
0
40
6
1
QF-M6
0
TEXT
8
PART_REF
10
437
20
128
30
0
40
3
1
CNB-MCB-3P-16
0
LINE
8
DEVICE
10
595
20
125
30
0
11
640
21
125
31
0
0
LINE
8
DEVICE
10
640
20
125
30
0
11
640
21
210
31
0
0
LINE
8
DEVICE
10
640
20
210
30
0
11
595
21
210
31
0
0
LINE
8
DEVICE
10
595
20
210
30
0
11
595
21
125
31
0
0
TEXT
8
DEVICE_TAG
10
597
20
135
30
0
40
6
1
KM3
0
TEXT
8
PART_REF
10
597
20
128
30
0
40
3
1
CNB-CON-15KW
0
LINE
8
DEVICE
10
290
20
305
30
0
11
335
21
305
31
0
0
LINE
8
DEVICE
10
335
20
305
30
0
11
335
21
380
31
0
0
LINE
8
DEVICE
10
335
20
380
30
0
11
290
21
380
31
0
0
LINE
8
DEVICE
10
290
20
380
30
0
11
290
21
305
31
0
0
TEXT
8
DEVICE_TAG
10
292
20
315
30
0
40
6
1
FR1
0
TEXT
8
PART_REF
10
292
20
308
30
0
40
3
1
CNB-OL-15KW
0
LINE
8
DEVICE
10
175
20
485
30
0
11
181
21
485
31
0
0
LINE
8
DEVICE
10
181
20
485
30
0
11
181
21
540
31
0
0
LINE
8
DEVICE
10
181
20
540
30
0
11
175
21
540
31
0
0
LINE
8
DEVICE
10
175
20
540
30
0
11
175
21
485
31
0
0
TEXT
8
DEVICE_TAG
10
177
20
495
30
0
40
6
1
X12
0
TEXT
8
PART_REF
10
177
20
488
30
0
40
3
1
CNB-TERM-4
0
LINE
8
DEVICE
10
150
20
485
30
0
11
156
21
485
31
0
0
LINE
8
DEVICE
10
156
20
485
30
0
11
156
21
540
31
0
0
LINE
8
DEVICE
10
156
20
540
30
0
11
150
21
540
31
0
0
LINE
8
DEVICE
10
150
20
540
30
0
11
150
21
485
31
0
0
TEXT
8
DEVICE_TAG
10
152
20
495
30
0
40
6
1
X10
0
TEXT
8
PART_REF
10
152
20
488
30
0
40
3
1
CNB-TERM-4
0
LINE
8
DEVICE
10
200
20
125
30
0
11
254
21
125
31
0
0
LINE
8
DEVICE
10
254
20
125
30
0
11
254
21
205
31
0
0
LINE
8
DEVICE
10
254
20
205
30
0
11
200
21
205
31
0
0
LINE
8
DEVICE
10
200
20
205
30
0
11
200
21
125
31
0
0
TEXT
8
DEVICE_TAG
10
202
20
135
30
0
40
6
1
QF-M2
0
TEXT
8
PART_REF
10
202
20
128
30
0
40
3
1
CNB-MCB-3P-16
0
LINE
8
DEVICE
10
295
20
485
30
0
11
301
21
485
31
0
0
LINE
8
DEVICE
10
301
20
485
30
0
11
301
21
540
31
0
0
LINE
8
DEVICE
10
301
20
540
30
0
11
295
21
540
31
0
0
LINE
8
DEVICE
10
295
20
540
30
0
11
295
21
485
31
0
0
TEXT
8
DEVICE_TAG
10
297
20
495
30
0
40
6
1
X6
0
TEXT
8
PART_REF
10
297
20
488
30
0
40
3
1
CNB-TERM-4
0
LINE
8
DEVICE
10
250
20
485
30
0
11
256
21
485
31
0
0
LINE
8
DEVICE
10
256
20
485
30
0
11
256
21
540
31
0
0
LINE
8
DEVICE
10
256
20
540
30
0
11
250
21
540
31
0
0
LINE
8
DEVICE
10
250
20
540
30
0
11
250
21
485
31
0
0
TEXT
8
DEVICE_TAG
10
252
20
495
30
0
40
6
1
X2
0
TEXT
8
PART_REF
10
252
20
488
30
0
40
3
1
CNB-TERM-4
0
LINE
8
DEVICE
10
375
20
125
30
0
11
429
21
125
31
0
0
LINE
8
DEVICE
10
429
20
125
30
0
11
429
21
205
31
0
0
LINE
8
DEVICE
10
429
20
205
30
0
11
375
21
205
31
0
0
LINE
8
DEVICE
10
375
20
205
30
0
11
375
21
125
31
0
0
TEXT
8
DEVICE_TAG
10
377
20
135
30
0
40
6
1
QF-M5
0
TEXT
8
PART_REF
10
377
20
128
30
0
40
3
1
CNB-MCB-3P-16
0
LINE
8
DEVICE
10
490
20
305
30
0
11
535
21
305
31
0
0
LINE
8
DEVICE
10
535
20
305
30
0
11
535
21
380
31
0
0
LINE
8
DEVICE
10
535
20
380
30
0
11
490
21
380
31
0
0
LINE
8
DEVICE
10
490
20
380
30
0
11
490
21
305
31
0
0
TEXT
8
DEVICE_TAG
10
492
20
315
30
0
40
6
1
FR5
0
TEXT
8
PART_REF
10
492
20
308
30
0
40
3
1
CNB-OL-15KW
0
LINE
8
DEVICE
10
315
20
125
30
0
11
369
21
125
31
0
0
LINE
8
DEVICE
10
369
20
125
30
0
11
369
21
205
31
0
0
LINE
8
DEVICE
10
369
20
205
30
0
11
315
21
205
31
0
0
LINE
8
DEVICE
10
315
20
205
30
0
11
315
21
125
31
0
0
TEXT
8
DEVICE_TAG
10
317
20
135
30
0
40
6
1
QF-M4
0
TEXT
8
PART_REF
10
317
20
128
30
0
40
3
1
CNB-MCB-3P-16
0
LINE
8
DEVICE
10
160
20
485
30
0
11
166
21
485
31
0
0
LINE
8
DEVICE
10
166
20
485
30
0
11
166
21
540
31
0
0
LINE
8
DEVICE
10
166
20
540
30
0
11
160
21
540
31
0
0
LINE
8
DEVICE
10
160
20
540
30
0
11
160
21
485
31
0
0
TEXT
8
DEVICE_TAG
10
162
20
495
30
0
40
6
1
X11
0
TEXT
8
PART_REF
10
162
20
488
30
0
40
3
1
CNB-TERM-4
0
LINE
8
DEVICE
10
205
20
485
30
0
11
211
21
485
31
0
0
LINE
8
DEVICE
10
211
20
485
30
0
11
211
21
540
31
0
0
LINE
8
DEVICE
10
211
20
540
30
0
11
205
21
540
31
0
0
LINE
8
DEVICE
10
205
20
540
30
0
11
205
21
485
31
0
0
TEXT
8
DEVICE_TAG
10
207
20
495
30
0
40
6
1
X15
0
TEXT
8
PART_REF
10
207
20
488
30
0
40
3
1
CNB-TERM-4
0
LINE
8
DEVICE
10
230
20
485
30
0
11
236
21
485
31
0
0
LINE
8
DEVICE
10
236
20
485
30
0
11
236
21
540
31
0
0
LINE
8
DEVICE
10
236
20
540
30
0
11
230
21
540
31
0
0
LINE
8
DEVICE
10
230
20
540
30
0
11
230
21
485
31
0
0
TEXT
8
DEVICE_TAG
10
232
20
495
30
0
40
6
1
X17
0
TEXT
8
PART_REF
10
232
20
488
30
0
40
3
1
CNB-TERM-4
0
LINE
8
DEVICE
10
245
20
305
30
0
11
290
21
305
31
0
0
LINE
8
DEVICE
10
290
20
305
30
0
11
290
21
390
31
0
0
LINE
8
DEVICE
10
290
20
390
30
0
11
245
21
390
31
0
0
LINE
8
DEVICE
10
245
20
390
30
0
11
245
21
305
31
0
0
TEXT
8
DEVICE_TAG
10
247
20
315
30
0
40
6
1
KM6
0
TEXT
8
PART_REF
10
247
20
308
30
0
40
3
1
CNB-CON-15KW
0
LINE
8
DEVICE
10
140
20
125
30
0
11
194
21
125
31
0
0
LINE
8
DEVICE
10
194
20
125
30
0
11
194
21
205
31
0
0
LINE
8
DEVICE
10
194
20
205
30
0
11
140
21
205
31
0
0
LINE
8
DEVICE
10
140
20
205
30
0
11
140
21
125
31
0
0
TEXT
8
DEVICE_TAG
10
142
20
135
30
0
40
6
1
QF-M1
0
TEXT
8
PART_REF
10
142
20
128
30
0
40
3
1
CNB-MCB-3P-16
0
LINE
8
DEVICE
10
260
20
125
30
0
11
314
21
125
31
0
0
LINE
8
DEVICE
10
314
20
125
30
0
11
314
21
205
31
0
0
LINE
8
DEVICE
10
314
20
205
30
0
11
260
21
205
31
0
0
LINE
8
DEVICE
10
260
20
205
30
0
11
260
21
125
31
0
0
TEXT
8
DEVICE_TAG
10
262
20
135
30
0
40
6
1
QF-M3
0
TEXT
8
PART_REF
10
262
20
128
30
0
40
3
1
CNB-MCB-3P-16
0
LINE
8
DEVICE
10
190
20
305
30
0
11
235
21
305
31
0
0
LINE
8
DEVICE
10
235
20
305
30
0
11
235
21
390
31
0
0
LINE
8
DEVICE
10
235
20
390
30
0
11
190
21
390
31
0
0
LINE
8
DEVICE
10
190
20
390
30
0
11
190
21
305
31
0
0
TEXT
8
DEVICE_TAG
10
192
20
315
30
0
40
6
1
KM5
0
TEXT
8
PART_REF
10
192
20
308
30
0
40
3
1
CNB-CON-15KW
0
LINE
8
DEVICE
10
285
20
485
30
0
11
291
21
485
31
0
0
LINE
8
DEVICE
10
291
20
485
30
0
11
291
21
540
31
0
0
LINE
8
DEVICE
10
291
20
540
30
0
11
285
21
540
31
0
0
LINE
8
DEVICE
10
285
20
540
30
0
11
285
21
485
31
0
0
TEXT
8
DEVICE_TAG
10
287
20
495
30
0
40
6
1
X5
0
TEXT
8
PART_REF
10
287
20
488
30
0
40
3
1
CNB-TERM-4
0
LINE
8
DEVICE
10
540
20
305
30
0
11
585
21
305
31
0
0
LINE
8
DEVICE
10
585
20
305
30
0
11
585
21
380
31
0
0
LINE
8
DEVICE
10
585
20
380
30
0
11
540
21
380
31
0
0
LINE
8
DEVICE
10
540
20
380
30
0
11
540
21
305
31
0
0
TEXT
8
DEVICE_TAG
10
542
20
315
30
0
40
6
1
FR6
0
TEXT
8
PART_REF
10
542
20
308
30
0
40
3
1
CNB-OL-15KW
0
LINE
8
DEVICE
10
135
20
1750
30
0
11
240
21
1750
31
0
0
LINE
8
DEVICE
10
240
20
1750
30
0
11
240
21
1910
31
0
0
LINE
8
DEVICE
10
240
20
1910
30
0
11
135
21
1910
31
0
0
LINE
8
DEVICE
10
135
20
1910
30
0
11
135
21
1750
31
0
0
TEXT
8
DEVICE_TAG
10
137
20
1760
30
0
40
6
1
QF1
0
TEXT
8
PART_REF
10
137
20
1753
30
0
40
3
1
CNB-MCCB-250
0
LINE
8
DEVICE
10
495
20
125
30
0
11
540
21
125
31
0
0
LINE
8
DEVICE
10
540
20
125
30
0
11
540
21
210
31
0
0
LINE
8
DEVICE
10
540
20
210
30
0
11
495
21
210
31
0
0
LINE
8
DEVICE
10
495
20
210
30
0
11
495
21
125
31
0
0
TEXT
8
DEVICE_TAG
10
497
20
135
30
0
40
6
1
KM1
0
TEXT
8
PART_REF
10
497
20
128
30
0
40
3
1
CNB-CON-15KW
0
LINE
8
DEVICE
10
305
20
485
30
0
11
311
21
485
31
0
0
LINE
8
DEVICE
10
311
20
485
30
0
11
311
21
540
31
0
0
LINE
8
DEVICE
10
311
20
540
30
0
11
305
21
540
31
0
0
LINE
8
DEVICE
10
305
20
540
30
0
11
305
21
485
31
0
0
TEXT
8
DEVICE_TAG
10
307
20
495
30
0
40
6
1
X7
0
TEXT
8
PART_REF
10
307
20
488
30
0
40
3
1
CNB-TERM-4
0
LINE
8
DEVICE
10
270
20
485
30
0
11
276
21
485
31
0
0
LINE
8
DEVICE
10
276
20
485
30
0
11
276
21
540
31
0
0
LINE
8
DEVICE
10
276
20
540
30
0
11
270
21
540
31
0
0
LINE
8
DEVICE
10
270
20
540
30
0
11
270
21
485
31
0
0
TEXT
8
DEVICE_TAG
10
272
20
495
30
0
40
6
1
X4
0
TEXT
8
PART_REF
10
272
20
488
30
0
40
3
1
CNB-TERM-4
0
LINE
8
DEVICE
10
260
20
485
30
0
11
266
21
485
31
0
0
LINE
8
DEVICE
10
266
20
485
30
0
11
266
21
540
31
0
0
LINE
8
DEVICE
10
266
20
540
30
0
11
260
21
540
31
0
0
LINE
8
DEVICE
10
260
20
540
30
0
11
260
21
485
31
0
0
TEXT
8
DEVICE_TAG
10
262
20
495
30
0
40
6
1
X3
0
TEXT
8
PART_REF
10
262
20
488
30
0
40
3
1
CNB-TERM-4
0
LINE
8
DEVICE
10
185
20
485
30
0
11
191
21
485
31
0
0
LINE
8
DEVICE
10
191
20
485
30
0
11
191
21
540
31
0
0
LINE
8
DEVICE
10
191
20
540
30
0
11
185
21
540
31
0
0
LINE
8
DEVICE
10
185
20
540
30
0
11
185
21
485
31
0
0
TEXT
8
DEVICE_TAG
10
187
20
495
30
0
40
6
1
X13
0
TEXT
8
PART_REF
10
187
20
488
30
0
40
3
1
CNB-TERM-4
0
LINE
8
DEVICE
10
215
20
485
30
0
11
221
21
485
31
0
0
LINE
8
DEVICE
10
221
20
485
30
0
11
221
21
540
31
0
0
LINE
8
DEVICE
10
221
20
540
30
0
11
215
21
540
31
0
0
LINE
8
DEVICE
10
215
20
540
30
0
11
215
21
485
31
0
0
TEXT
8
DEVICE_TAG
10
217
20
495
30
0
40
6
1
X16
0
TEXT
8
PART_REF
10
217
20
488
30
0
40
3
1
CNB-TERM-4
0
LINE
8
DEVICE
10
390
20
305
30
0
11
435
21
305
31
0
0
LINE
8
DEVICE
10
435
20
305
30
0
11
435
21
380
31
0
0
LINE
8
DEVICE
10
435
20
380
30
0
11
390
21
380
31
0
0
LINE
8
DEVICE
10
390
20
380
30
0
11
390
21
305
31
0
0
TEXT
8
DEVICE_TAG
10
392
20
315
30
0
40
6
1
FR3
0
TEXT
8
PART_REF
10
392
20
308
30
0
40
3
1
CNB-OL-15KW
0
LINE
8
DEVICE
10
340
20
305
30
0
11
385
21
305
31
0
0
LINE
8
DEVICE
10
385
20
305
30
0
11
385
21
380
31
0
0
LINE
8
DEVICE
10
385
20
380
30
0
11
340
21
380
31
0
0
LINE
8
DEVICE
10
340
20
380
30
0
11
340
21
305
31
0
0
TEXT
8
DEVICE_TAG
10
342
20
315
30
0
40
6
1
FR2
0
TEXT
8
PART_REF
10
342
20
308
30
0
40
3
1
CNB-OL-15KW
0
LINE
8
DEVICE
10
325
20
485
30
0
11
331
21
485
31
0
0
LINE
8
DEVICE
10
331
20
485
30
0
11
331
21
540
31
0
0
LINE
8
DEVICE
10
331
20
540
30
0
11
325
21
540
31
0
0
LINE
8
DEVICE
10
325
20
540
30
0
11
325
21
485
31
0
0
TEXT
8
DEVICE_TAG
10
327
20
495
30
0
40
6
1
X9
0
TEXT
8
PART_REF
10
327
20
488
30
0
40
3
1
CNB-TERM-4
0
LINE
8
DEVICE
10
140
20
305
30
0
11
185
21
305
31
0
0
LINE
8
DEVICE
10
185
20
305
30
0
11
185
21
390
31
0
0
LINE
8
DEVICE
10
185
20
390
30
0
11
140
21
390
31
0
0
LINE
8
DEVICE
10
140
20
390
30
0
11
140
21
305
31
0
0
TEXT
8
DEVICE_TAG
10
142
20
315
30
0
40
6
1
KM4
0
TEXT
8
PART_REF
10
142
20
308
30
0
40
3
1
CNB-CON-15KW
0
LINE
8
WIRE
10
162.5
20
347.5
30
0
11
462.5
21
342.5
31
0
0
LINE
8
WIRE
10
187.5
20
1830
30
0
11
287
21
165
31
0
0
LINE
8
WIRE
10
267.5
20
347.5
30
0
11
562.5
21
342.5
31
0
0
LINE
8
WIRE
10
567.5
20
167.5
30
0
11
362.5
21
342.5
31
0
0
LINE
8
WIRE
10
187.5
20
1830
30
0
11
167
21
165
31
0
0
LINE
8
WIRE
10
342
20
165
30
0
11
162.5
21
347.5
31
0
0
LINE
8
WIRE
10
402
20
165
30
0
11
212.5
21
347.5
31
0
0
LINE
8
WIRE
10
312.5
20
342.5
30
0
11
143
21
512.5
31
0
0
LINE
8
WIRE
10
362.5
20
342.5
30
0
11
253
21
512.5
31
0
0
LINE
8
WIRE
10
412.5
20
342.5
30
0
11
263
21
512.5
31
0
0
LINE
8
WIRE
10
167
20
165
30
0
11
517.5
21
167.5
31
0
0
LINE
8
WIRE
10
517.5
20
167.5
30
0
11
312.5
21
342.5
31
0
0
LINE
8
WIRE
10
212.5
20
347.5
30
0
11
512.5
21
342.5
31
0
0
LINE
8
WIRE
10
462
20
165
30
0
11
267.5
21
347.5
31
0
0
LINE
8
WIRE
10
287
20
165
30
0
11
617.5
21
167.5
31
0
0
LINE
8
WIRE
10
187.5
20
1830
30
0
11
402
21
165
31
0
0
LINE
8
WIRE
10
617.5
20
167.5
30
0
11
412.5
21
342.5
31
0
0
LINE
8
WIRE
10
187.5
20
1830
30
0
11
227
21
165
31
0
0
LINE
8
WIRE
10
227
20
165
30
0
11
567.5
21
167.5
31
0
0
LINE
8
WIRE
10
187.5
20
1830
30
0
11
462
21
165
31
0
0
LINE
8
WIRE
10
512.5
20
342.5
30
0
11
288
21
512.5
31
0
0
LINE
8
WIRE
10
562.5
20
342.5
30
0
11
298
21
512.5
31
0
0
LINE
8
WIRE
10
187.5
20
1830
30
0
11
342
21
165
31
0
0
LINE
8
WIRE
10
462.5
20
342.5
30
0
11
273
21
512.5
31
0
0
ENDSEC
0
EOF
