0
SECTION
2
HEADER
9
$ACADVER
1
AC1009
9
$INSUNITS
70
4
0
ENDSEC
0
SECTION
2
ENTITIES
999
CNB Electrical Lab | R4.1 export check | A
0
LINE
8
ENCLOSURE
10
0
20
0
30
0
11
400
21
0
31
0
0
LINE
8
ENCLOSURE
10
400
20
0
30
0
11
400
21
300
31
0
0
LINE
8
ENCLOSURE
10
400
20
300
30
0
11
0
21
300
31
0
0
LINE
8
ENCLOSURE
10
0
20
300
30
0
11
0
21
0
31
0
0
LINE
8
MOUNTING_PLATE
10
20
20
20
30
0
11
380
21
20
31
0
0
LINE
8
MOUNTING_PLATE
10
380
20
20
30
0
11
380
21
280
31
0
0
LINE
8
MOUNTING_PLATE
10
380
20
280
30
0
11
20
21
280
31
0
0
LINE
8
MOUNTING_PLATE
10
20
20
280
30
0
11
20
21
20
31
0
0
TEXT
8
TEXT
10
20
20
275
30
0
40
12
1
Control cabinet
0
LINE
8
CAD_GEOMETRY
10
80
20
40
30
0
11
156
21
40
31
0
0
LINE
8
CAD_GEOMETRY
10
156
20
40
30
0
11
156
21
260
31
0
0
LINE
8
CAD_GEOMETRY
10
156
20
260
30
0
11
80
21
260
31
0
0
LINE
8
CAD_GEOMETRY
10
80
20
260
30
0
11
80
21
40
31
0
0
LINE
8
CAD_GEOMETRY
10
84
20
44
30
0
11
152
21
44
31
0
0
LINE
8
CAD_GEOMETRY
10
152
20
44
30
0
11
152
21
256
31
0
0
LINE
8
CAD_GEOMETRY
10
152
20
256
30
0
11
84
21
256
31
0
0
LINE
8
CAD_GEOMETRY
10
84
20
256
30
0
11
84
21
44
31
0
0
CIRCLE
8
CAD_GEOMETRY
10
140
20
236
30
0
40
1
0
LINE
8
CAD_GEOMETRY
10
141.5
20
236
30
0
11
141
21
236
31
0
0
LINE
8
CAD_GEOMETRY
10
141.5
20
235.5
30
0
11
143
21
235.5
31
0
0
LINE
8
CAD_GEOMETRY
10
143
20
235.5
30
0
11
143
21
236.5
31
0
0
LINE
8
CAD_GEOMETRY
10
143
20
236.5
30
0
11
141.5
21
236.5
31
0
0
LINE
8
CAD_GEOMETRY
10
141.5
20
236.5
30
0
11
141.5
21
235.5
31
0
0
ARC
8
CAD_GEOMETRY
10
143
20
236
30
0
40
1
50
-90
51
90
0
CIRCLE
8
CAD_GEOMETRY
10
140
20
228
30
0
40
1
0
LINE
8
CAD_GEOMETRY
10
141.5
20
228
30
0
11
141
21
228
31
0
0
LINE
8
CAD_GEOMETRY
10
141.5
20
227.5
30
0
11
143
21
227.5
31
0
0
LINE
8
CAD_GEOMETRY
10
143
20
227.5
30
0
11
143
21
228.5
31
0
0
LINE
8
CAD_GEOMETRY
10
143
20
228.5
30
0
11
141.5
21
228.5
31
0
0
LINE
8
CAD_GEOMETRY
10
141.5
20
228.5
30
0
11
141.5
21
227.5
31
0
0
ARC
8
CAD_GEOMETRY
10
143
20
228
30
0
40
1
50
-90
51
90
0
CIRCLE
8
CAD_GEOMETRY
10
140
20
203
30
0
40
1
0
LINE
8
CAD_GEOMETRY
10
141.5
20
203
30
0
11
141
21
203
31
0
0
LINE
8
CAD_GEOMETRY
10
141.5
20
202.5
30
0
11
143
21
202.5
31
0
0
LINE
8
CAD_GEOMETRY
10
143
20
202.5
30
0
11
143
21
203.5
31
0
0
LINE
8
CAD_GEOMETRY
10
143
20
203.5
30
0
11
141.5
21
203.5
31
0
0
LINE
8
CAD_GEOMETRY
10
141.5
20
203.5
30
0
11
141.5
21
202.5
31
0
0
ARC
8
CAD_GEOMETRY
10
143
20
203
30
0
40
1
50
-90
51
90
0
CIRCLE
8
CAD_GEOMETRY
10
140
20
216
30
0
40
1
0
LINE
8
CAD_GEOMETRY
10
141.5
20
216
30
0
11
141
21
216
31
0
0
LINE
8
CAD_GEOMETRY
10
141.5
20
215.5
30
0
11
143
21
215.5
31
0
0
LINE
8
CAD_GEOMETRY
10
143
20
215.5
30
0
11
143
21
216.5
31
0
0
LINE
8
CAD_GEOMETRY
10
143
20
216.5
30
0
11
141.5
21
216.5
31
0
0
LINE
8
CAD_GEOMETRY
10
141.5
20
216.5
30
0
11
141.5
21
215.5
31
0
0
ARC
8
CAD_GEOMETRY
10
143
20
216
30
0
40
1
50
-90
51
90
0
LINE
8
CAD_GEOMETRY
10
144
20
188
30
0
11
141
21
188
31
0
0
CIRCLE
8
CAD_GEOMETRY
10
140
20
188
30
0
40
1
0
LINE
8
COMPONENT
10
80
20
40
30
0
11
156
21
40
31
0
0
LINE
8
COMPONENT
10
156
20
40
30
0
11
156
21
260
31
0
0
LINE
8
COMPONENT
10
156
20
260
30
0
11
80
21
260
31
0
0
LINE
8
COMPONENT
10
80
20
260
30
0
11
80
21
40
31
0
0
LINE
8
COMPONENT_OUTLINE
10
80
20
40
30
0
11
156
21
40
31
0
0
LINE
8
COMPONENT_OUTLINE
10
156
20
40
30
0
11
156
21
260
31
0
0
LINE
8
COMPONENT_OUTLINE
10
156
20
260
30
0
11
80
21
260
31
0
0
LINE
8
COMPONENT_OUTLINE
10
80
20
260
30
0
11
80
21
40
31
0
0
LINE
8
COMPONENT_DETAIL
10
114
20
150
30
0
11
122
21
150
31
0
0
TEXT
8
TAG
10
83
20
150
30
0
40
12
1
-G1
0
TEXT
8
TEXT
10
83
20
50
30
0
40
4
1
SIMATIC HMI KTP700 Basic DP
0
CIRCLE
8
TERMINAL
10
105.3333
20
40
30
0
40
1.5
0
CIRCLE
8
TERMINAL
10
130.6667
20
40
30
0
40
1.5
0
ENDSEC
0
EOF
