0
SECTION
2
HEADER
9
$INSUNITS
70
4
0
ENDSEC
0
SECTION
2
ENTITIES
0
LINE
8
ENCLOSURE
10
0
20
0
30
0
11
600
21
0
31
0
0
LINE
8
ENCLOSURE
10
600
20
0
30
0
11
600
21
1200
31
0
0
LINE
8
ENCLOSURE
10
600
20
1200
30
0
11
0
21
1200
31
0
0
LINE
8
ENCLOSURE
10
0
20
1200
30
0
11
0
21
0
31
0
0
LINE
8
MOUNTING_PLATE
10
50
20
50
30
0
11
550
21
50
31
0
0
LINE
8
MOUNTING_PLATE
10
550
20
50
30
0
11
550
21
1150
31
0
0
LINE
8
MOUNTING_PLATE
10
550
20
1150
30
0
11
50
21
1150
31
0
0
LINE
8
MOUNTING_PLATE
10
50
20
1150
30
0
11
50
21
50
31
0
0
TEXT
8
ANNOTATION
10
50
20
1165
30
0
40
10
1
Electrical control panel [mm]
0
LINE
8
DIN_RAIL
10
140
20
310
30
0
11
460
21
310
31
0
0
LINE
8
DIN_RAIL
10
140
20
130
30
0
11
460
21
130
31
0
0
LINE
8
WIRE_DUCT
10
50
20
285
30
0
11
550
21
285
31
0
0
LINE
8
WIRE_DUCT
10
550
20
285
30
0
11
550
21
325
31
0
0
LINE
8
WIRE_DUCT
10
550
20
325
30
0
11
50
21
325
31
0
0
LINE
8
WIRE_DUCT
10
50
20
325
30
0
11
50
21
285
31
0
0
LINE
8
WIRE_DUCT
10
50
20
50
30
0
11
95
21
50
31
0
0
LINE
8
WIRE_DUCT
10
95
20
50
30
0
11
95
21
1150
31
0
0
LINE
8
WIRE_DUCT
10
95
20
1150
30
0
11
50
21
1150
31
0
0
LINE
8
WIRE_DUCT
10
50
20
1150
30
0
11
50
21
50
31
0
0
LINE
8
WIRE_DUCT
10
505
20
50
30
0
11
550
21
50
31
0
0
LINE
8
WIRE_DUCT
10
550
20
50
30
0
11
550
21
1150
31
0
0
LINE
8
WIRE_DUCT
10
550
20
1150
30
0
11
505
21
1150
31
0
0
LINE
8
WIRE_DUCT
10
505
20
1150
30
0
11
505
21
50
31
0
0
LINE
8
DEVICE
10
215
20
165
30
0
11
305
21
165
31
0
0
LINE
8
DEVICE
10
305
20
165
30
0
11
305
21
265
31
0
0
LINE
8
DEVICE
10
305
20
265
30
0
11
215
21
265
31
0
0
LINE
8
DEVICE
10
215
20
265
30
0
11
215
21
165
31
0
0
TEXT
8
DEVICE_TAG
10
217
20
175
30
0
40
6
1
IO1
0
TEXT
8
PART_REF
10
217
20
168
30
0
40
3
1
CNB-PLC-IO16
0
LINE
8
DEVICE
10
260
20
345
30
0
11
278
21
345
31
0
0
LINE
8
DEVICE
10
278
20
345
30
0
11
278
21
425
31
0
0
LINE
8
DEVICE
10
278
20
425
30
0
11
260
21
425
31
0
0
LINE
8
DEVICE
10
260
20
425
30
0
11
260
21
345
31
0
0
TEXT
8
DEVICE_TAG
10
262
20
355
30
0
40
6
1
KA2
0
TEXT
8
PART_REF
10
262
20
348
30
0
40
3
1
CNB-RELAY-4CO
0
LINE
8
DEVICE
10
305
20
345
30
0
11
323
21
345
31
0
0
LINE
8
DEVICE
10
323
20
345
30
0
11
323
21
425
31
0
0
LINE
8
DEVICE
10
323
20
425
30
0
11
305
21
425
31
0
0
LINE
8
DEVICE
10
305
20
425
30
0
11
305
21
345
31
0
0
TEXT
8
DEVICE_TAG
10
307
20
355
30
0
40
6
1
KA4
0
TEXT
8
PART_REF
10
307
20
348
30
0
40
3
1
CNB-RELAY-4CO
0
LINE
8
DEVICE
10
310
20
165
30
0
11
400
21
165
31
0
0
LINE
8
DEVICE
10
400
20
165
30
0
11
400
21
265
31
0
0
LINE
8
DEVICE
10
400
20
265
30
0
11
310
21
265
31
0
0
LINE
8
DEVICE
10
310
20
265
30
0
11
310
21
165
31
0
0
TEXT
8
DEVICE_TAG
10
312
20
175
30
0
40
6
1
IO2
0
TEXT
8
PART_REF
10
312
20
168
30
0
40
3
1
CNB-PLC-IO16
0
LINE
8
DEVICE
10
140
20
165
30
0
11
212
21
165
31
0
0
LINE
8
DEVICE
10
212
20
165
30
0
11
212
21
265
31
0
0
LINE
8
DEVICE
10
212
20
265
30
0
11
140
21
265
31
0
0
LINE
8
DEVICE
10
140
20
265
30
0
11
140
21
165
31
0
0
TEXT
8
DEVICE_TAG
10
142
20
175
30
0
40
6
1
G1
0
TEXT
8
PART_REF
10
142
20
168
30
0
40
3
1
CNB-PSU-24-120
0
LINE
8
DEVICE
10
135
20
950
30
0
11
240
21
950
31
0
0
LINE
8
DEVICE
10
240
20
950
30
0
11
240
21
1110
31
0
0
LINE
8
DEVICE
10
240
20
1110
30
0
11
135
21
1110
31
0
0
LINE
8
DEVICE
10
135
20
1110
30
0
11
135
21
950
31
0
0
TEXT
8
DEVICE_TAG
10
137
20
960
30
0
40
6
1
QF1
0
TEXT
8
PART_REF
10
137
20
953
30
0
40
3
1
CNB-MCCB-250
0
LINE
8
DEVICE
10
235
20
345
30
0
11
253
21
345
31
0
0
LINE
8
DEVICE
10
253
20
345
30
0
11
253
21
425
31
0
0
LINE
8
DEVICE
10
253
20
425
30
0
11
235
21
425
31
0
0
LINE
8
DEVICE
10
235
20
425
30
0
11
235
21
345
31
0
0
TEXT
8
DEVICE_TAG
10
237
20
355
30
0
40
6
1
KA1
0
TEXT
8
PART_REF
10
237
20
348
30
0
40
3
1
CNB-RELAY-4CO
0
LINE
8
DEVICE
10
140
20
345
30
0
11
230
21
345
31
0
0
LINE
8
DEVICE
10
230
20
345
30
0
11
230
21
445
31
0
0
LINE
8
DEVICE
10
230
20
445
30
0
11
140
21
445
31
0
0
LINE
8
DEVICE
10
140
20
445
30
0
11
140
21
345
31
0
0
TEXT
8
DEVICE_TAG
10
142
20
355
30
0
40
6
1
PLC1
0
TEXT
8
PART_REF
10
142
20
348
30
0
40
3
1
CNB-PLC-CPU
0
LINE
8
DEVICE
10
280
20
345
30
0
11
298
21
345
31
0
0
LINE
8
DEVICE
10
298
20
345
30
0
11
298
21
425
31
0
0
LINE
8
DEVICE
10
298
20
425
30
0
11
280
21
425
31
0
0
LINE
8
DEVICE
10
280
20
425
30
0
11
280
21
345
31
0
0
TEXT
8
DEVICE_TAG
10
282
20
355
30
0
40
6
1
KA3
0
TEXT
8
PART_REF
10
282
20
348
30
0
40
3
1
CNB-RELAY-4CO
0
ENDSEC
0
EOF
