0
SECTION
2
HEADER
9
$INSUNITS
70
4
0
ENDSEC
0
SECTION
2
ENTITIES
0
LINE
8
ENCLOSURE
10
0
20
0
30
0
11
600
21
0
31
0
0
LINE
8
ENCLOSURE
10
600
20
0
30
0
11
600
21
1000
31
0
0
LINE
8
ENCLOSURE
10
600
20
1000
30
0
11
0
21
1000
31
0
0
LINE
8
ENCLOSURE
10
0
20
1000
30
0
11
0
21
0
31
0
0
LINE
8
MOUNTING_PLATE
10
50
20
50
30
0
11
550
21
50
31
0
0
LINE
8
MOUNTING_PLATE
10
550
20
50
30
0
11
550
21
950
31
0
0
LINE
8
MOUNTING_PLATE
10
550
20
950
30
0
11
50
21
950
31
0
0
LINE
8
MOUNTING_PLATE
10
50
20
950
30
0
11
50
21
50
31
0
0
TEXT
8
ANNOTATION
10
50
20
965
30
0
40
10
1
Starter panel [mm]
0
LINE
8
DIN_RAIL
10
140
20
90
30
0
11
460
21
90
31
0
0
LINE
8
DIN_RAIL
10
140
20
270
30
0
11
460
21
270
31
0
0
LINE
8
WIRE_DUCT
10
50
20
50
30
0
11
95
21
50
31
0
0
LINE
8
WIRE_DUCT
10
95
20
50
30
0
11
95
21
950
31
0
0
LINE
8
WIRE_DUCT
10
95
20
950
30
0
11
50
21
950
31
0
0
LINE
8
WIRE_DUCT
10
50
20
950
30
0
11
50
21
50
31
0
0
LINE
8
WIRE_DUCT
10
50
20
240
30
0
11
550
21
240
31
0
0
LINE
8
WIRE_DUCT
10
550
20
240
30
0
11
550
21
280
31
0
0
LINE
8
WIRE_DUCT
10
550
20
280
30
0
11
50
21
280
31
0
0
LINE
8
WIRE_DUCT
10
50
20
280
30
0
11
50
21
240
31
0
0
LINE
8
WIRE_DUCT
10
505
20
50
30
0
11
550
21
50
31
0
0
LINE
8
WIRE_DUCT
10
550
20
50
30
0
11
550
21
950
31
0
0
LINE
8
WIRE_DUCT
10
550
20
950
30
0
11
505
21
950
31
0
0
LINE
8
WIRE_DUCT
10
505
20
950
30
0
11
505
21
50
31
0
0
LINE
8
DEVICE
10
205
20
305
30
0
11
211
21
305
31
0
0
LINE
8
DEVICE
10
211
20
305
30
0
11
211
21
360
31
0
0
LINE
8
DEVICE
10
211
20
360
30
0
11
205
21
360
31
0
0
LINE
8
DEVICE
10
205
20
360
30
0
11
205
21
305
31
0
0
TEXT
8
DEVICE_TAG
10
207
20
315
30
0
40
6
1
X7
0
TEXT
8
PART_REF
10
207
20
308
30
0
40
3
1
CNB-TERM-4
0
LINE
8
DEVICE
10
360
20
125
30
0
11
405
21
125
31
0
0
LINE
8
DEVICE
10
405
20
125
30
0
11
405
21
200
31
0
0
LINE
8
DEVICE
10
405
20
200
30
0
11
360
21
200
31
0
0
LINE
8
DEVICE
10
360
20
200
30
0
11
360
21
125
31
0
0
TEXT
8
DEVICE_TAG
10
362
20
135
30
0
40
6
1
FR1
0
TEXT
8
PART_REF
10
362
20
128
30
0
40
3
1
CNB-OL-15KW
0
LINE
8
DEVICE
10
160
20
305
30
0
11
166
21
305
31
0
0
LINE
8
DEVICE
10
166
20
305
30
0
11
166
21
360
31
0
0
LINE
8
DEVICE
10
166
20
360
30
0
11
160
21
360
31
0
0
LINE
8
DEVICE
10
160
20
360
30
0
11
160
21
305
31
0
0
TEXT
8
DEVICE_TAG
10
162
20
315
30
0
40
6
1
X3
0
TEXT
8
PART_REF
10
162
20
308
30
0
40
3
1
CNB-TERM-4
0
LINE
8
DEVICE
10
140
20
125
30
0
11
194
21
125
31
0
0
LINE
8
DEVICE
10
194
20
125
30
0
11
194
21
205
31
0
0
LINE
8
DEVICE
10
194
20
205
30
0
11
140
21
205
31
0
0
LINE
8
DEVICE
10
140
20
205
30
0
11
140
21
125
31
0
0
TEXT
8
DEVICE_TAG
10
142
20
135
30
0
40
6
1
QF-M1
0
TEXT
8
PART_REF
10
142
20
128
30
0
40
3
1
CNB-MCB-3P-16
0
LINE
8
DEVICE
10
215
20
305
30
0
11
221
21
305
31
0
0
LINE
8
DEVICE
10
221
20
305
30
0
11
221
21
360
31
0
0
LINE
8
DEVICE
10
221
20
360
30
0
11
215
21
360
31
0
0
LINE
8
DEVICE
10
215
20
360
30
0
11
215
21
305
31
0
0
TEXT
8
DEVICE_TAG
10
217
20
315
30
0
40
6
1
X8
0
TEXT
8
PART_REF
10
217
20
308
30
0
40
3
1
CNB-TERM-4
0
LINE
8
DEVICE
10
175
20
305
30
0
11
181
21
305
31
0
0
LINE
8
DEVICE
10
181
20
305
30
0
11
181
21
360
31
0
0
LINE
8
DEVICE
10
181
20
360
30
0
11
175
21
360
31
0
0
LINE
8
DEVICE
10
175
20
360
30
0
11
175
21
305
31
0
0
TEXT
8
DEVICE_TAG
10
177
20
315
30
0
40
6
1
X4
0
TEXT
8
PART_REF
10
177
20
308
30
0
40
3
1
CNB-TERM-4
0
LINE
8
DEVICE
10
260
20
125
30
0
11
305
21
125
31
0
0
LINE
8
DEVICE
10
305
20
125
30
0
11
305
21
210
31
0
0
LINE
8
DEVICE
10
305
20
210
30
0
11
260
21
210
31
0
0
LINE
8
DEVICE
10
260
20
210
30
0
11
260
21
125
31
0
0
TEXT
8
DEVICE_TAG
10
262
20
135
30
0
40
6
1
KM1
0
TEXT
8
PART_REF
10
262
20
128
30
0
40
3
1
CNB-CON-15KW
0
LINE
8
DEVICE
10
150
20
305
30
0
11
156
21
305
31
0
0
LINE
8
DEVICE
10
156
20
305
30
0
11
156
21
360
31
0
0
LINE
8
DEVICE
10
156
20
360
30
0
11
150
21
360
31
0
0
LINE
8
DEVICE
10
150
20
360
30
0
11
150
21
305
31
0
0
TEXT
8
DEVICE_TAG
10
152
20
315
30
0
40
6
1
X2
0
TEXT
8
PART_REF
10
152
20
308
30
0
40
3
1
CNB-TERM-4
0
LINE
8
DEVICE
10
310
20
125
30
0
11
355
21
125
31
0
0
LINE
8
DEVICE
10
355
20
125
30
0
11
355
21
210
31
0
0
LINE
8
DEVICE
10
355
20
210
30
0
11
310
21
210
31
0
0
LINE
8
DEVICE
10
310
20
210
30
0
11
310
21
125
31
0
0
TEXT
8
DEVICE_TAG
10
312
20
135
30
0
40
6
1
KM2
0
TEXT
8
PART_REF
10
312
20
128
30
0
40
3
1
CNB-CON-15KW
0
LINE
8
DEVICE
10
185
20
305
30
0
11
191
21
305
31
0
0
LINE
8
DEVICE
10
191
20
305
30
0
11
191
21
360
31
0
0
LINE
8
DEVICE
10
191
20
360
30
0
11
185
21
360
31
0
0
LINE
8
DEVICE
10
185
20
360
30
0
11
185
21
305
31
0
0
TEXT
8
DEVICE_TAG
10
187
20
315
30
0
40
6
1
X5
0
TEXT
8
PART_REF
10
187
20
308
30
0
40
3
1
CNB-TERM-4
0
LINE
8
DEVICE
10
195
20
305
30
0
11
201
21
305
31
0
0
LINE
8
DEVICE
10
201
20
305
30
0
11
201
21
360
31
0
0
LINE
8
DEVICE
10
201
20
360
30
0
11
195
21
360
31
0
0
LINE
8
DEVICE
10
195
20
360
30
0
11
195
21
305
31
0
0
TEXT
8
DEVICE_TAG
10
197
20
315
30
0
40
6
1
X6
0
TEXT
8
PART_REF
10
197
20
308
30
0
40
3
1
CNB-TERM-4
0
LINE
8
DEVICE
10
200
20
125
30
0
11
254
21
125
31
0
0
LINE
8
DEVICE
10
254
20
125
30
0
11
254
21
205
31
0
0
LINE
8
DEVICE
10
254
20
205
30
0
11
200
21
205
31
0
0
LINE
8
DEVICE
10
200
20
205
30
0
11
200
21
125
31
0
0
TEXT
8
DEVICE_TAG
10
202
20
135
30
0
40
6
1
QF-M2
0
TEXT
8
PART_REF
10
202
20
128
30
0
40
3
1
CNB-MCB-3P-16
0
LINE
8
DEVICE
10
135
20
750
30
0
11
240
21
750
31
0
0
LINE
8
DEVICE
10
240
20
750
30
0
11
240
21
910
31
0
0
LINE
8
DEVICE
10
240
20
910
30
0
11
135
21
910
31
0
0
LINE
8
DEVICE
10
135
20
910
30
0
11
135
21
750
31
0
0
TEXT
8
DEVICE_TAG
10
137
20
760
30
0
40
6
1
QF1
0
TEXT
8
PART_REF
10
137
20
753
30
0
40
3
1
CNB-MCCB-250
0
LINE
8
DEVICE
10
410
20
125
30
0
11
455
21
125
31
0
0
LINE
8
DEVICE
10
455
20
125
30
0
11
455
21
200
31
0
0
LINE
8
DEVICE
10
455
20
200
30
0
11
410
21
200
31
0
0
LINE
8
DEVICE
10
410
20
200
30
0
11
410
21
125
31
0
0
TEXT
8
DEVICE_TAG
10
412
20
135
30
0
40
6
1
FR2
0
TEXT
8
PART_REF
10
412
20
128
30
0
40
3
1
CNB-OL-15KW
0
LINE
8
DEVICE
10
140
20
305
30
0
11
146
21
305
31
0
0
LINE
8
DEVICE
10
146
20
305
30
0
11
146
21
360
31
0
0
LINE
8
DEVICE
10
146
20
360
30
0
11
140
21
360
31
0
0
LINE
8
DEVICE
10
140
20
360
30
0
11
140
21
305
31
0
0
TEXT
8
DEVICE_TAG
10
142
20
315
30
0
40
6
1
X1
0
TEXT
8
PART_REF
10
142
20
308
30
0
40
3
1
CNB-TERM-4
0
LINE
8
WIRE
10
187.5
20
830
30
0
11
167
21
165
31
0
0
LINE
8
WIRE
10
382.5
20
162.5
30
0
11
143
21
332.5
31
0
0
LINE
8
WIRE
10
187.5
20
830
30
0
11
227
21
165
31
0
0
LINE
8
WIRE
10
332.5
20
167.5
30
0
11
432.5
21
162.5
31
0
0
LINE
8
WIRE
10
282.5
20
167.5
30
0
11
382.5
21
162.5
31
0
0
LINE
8
WIRE
10
432.5
20
162.5
30
0
11
153
21
332.5
31
0
0
LINE
8
WIRE
10
227
20
165
30
0
11
332.5
21
167.5
31
0
0
LINE
8
WIRE
10
167
20
165
30
0
11
282.5
21
167.5
31
0
0
ENDSEC
0
EOF
